M48
INCH,TZ
T1C0.0157
T2C0.0315
T3C0.0354
T4C0.0394
T5C0.0420
T6C0.0472
T7C0.0598
%
G90
G05
T1
X33465Y-32480
X33465Y-40354
X37402Y-31496
X37402Y-37402
X38386Y-34449
X39370Y-39370
X41339Y-41339
X45276Y-38386
T2
X23622Y-38583
X23622Y-40551
X27559Y-38583
X27559Y-40551
X31496Y-34417
X31496Y-38417
X33465Y-34417
X33465Y-38417
X35745Y-29200
X35745Y-33137
X37714Y-29200
X37714Y-33137
X39339Y-27428
X43339Y-27428
T3
X19685Y-32480
X20685Y-32480
X23999Y-36548
X25574Y-36548
X27149Y-36548
X39370Y-26050
X39781Y-29397
X40370Y-26050
X41355Y-29397
X42930Y-29397
T4
X26575Y-42323
X27575Y-42323
X29512Y-42323
X30512Y-42323
X32465Y-42323
X33465Y-42323
X35811Y-42323
X36220Y-26050
X36811Y-42323
X36860Y-36364
X36860Y-40364
X37220Y-26050
X37860Y-36364
X37860Y-40364
X38307Y-42323
X38860Y-36364
X38860Y-40364
X39307Y-42323
X39860Y-36364
X39860Y-40364
X40307Y-42323
X40860Y-36364
X40860Y-40364
X41307Y-42323
X41860Y-36364
X41860Y-40364
X42307Y-42323
X43307Y-42323
X49213Y-27559
X49213Y-29528
X49213Y-31496
X49213Y-33465
X49213Y-35433
X49213Y-37402
X49213Y-39370
T5
X46260Y-26519
X46260Y-41829
T6
X23212Y-34875
X23212Y-37237
X27936Y-34875
X27936Y-37237
X38993Y-28708
X38993Y-31070
X43718Y-28708
X43718Y-31070
T7
X20669Y-34548
X20669Y-36548
T0
M30
