%TF.GenerationSoftware,KiCad,Pcbnew,(6.0.7)*%
%TF.CreationDate,2025-03-19T21:33:16-07:00*%
%TF.ProjectId,PCB_v1,5043425f-7631-42e6-9b69-6361645f7063,rev?*%
%TF.SameCoordinates,Original*%
%TF.FileFunction,Soldermask,Top*%
%TF.FilePolarity,Negative*%
%FSLAX46Y46*%
G04 Gerber Fmt 4.6, Leading zero omitted, Abs format (unit mm)*
G04 Created by KiCad (PCBNEW (6.0.7)) date 2025-03-19 21:33:16*
%MOMM*%
%LPD*%
G01*
G04 APERTURE LIST*
%ADD10R,1.574800X1.574800*%
%ADD11C,1.574800*%
%ADD12C,2.000000*%
%ADD13C,1.700000*%
%ADD14R,1.700000X1.700000*%
%ADD15O,1.700000X1.700000*%
%ADD16C,1.600000*%
%ADD17O,1.600000X1.600000*%
%ADD18C,3.200000*%
%ADD19R,1.800000X1.800000*%
%ADD20C,1.800000*%
%ADD21R,3.000000X3.000000*%
%ADD22C,3.000000*%
G04 APERTURE END LIST*
D10*
%TO.C,F1*%
X117500000Y-106245200D03*
D11*
X117500000Y-67357800D03*
%TD*%
D12*
%TO.C,SW2*%
X99042500Y-78917500D03*
X111042500Y-78917500D03*
X99042500Y-72917500D03*
X111042500Y-72917500D03*
D13*
X101042500Y-74667500D03*
X105042500Y-74667500D03*
X109042500Y-74667500D03*
%TD*%
D14*
%TO.C,J9*%
X110000000Y-107500000D03*
D15*
X107460000Y-107500000D03*
X104920000Y-107500000D03*
X102380000Y-107500000D03*
X99840000Y-107500000D03*
X97300000Y-107500000D03*
%TD*%
D16*
%TO.C,C1*%
X70000000Y-98000000D03*
X70000000Y-103000000D03*
%TD*%
%TO.C,R3*%
X85000000Y-97580000D03*
D17*
X85000000Y-87420000D03*
%TD*%
D18*
%TO.C,H3*%
X47500000Y-107500000D03*
%TD*%
D14*
%TO.C,TP5*%
X125000000Y-80000000D03*
%TD*%
D12*
%TO.C,SW1*%
X58957500Y-94582500D03*
X70957500Y-94582500D03*
X70957500Y-88582500D03*
X58957500Y-88582500D03*
D13*
X68957500Y-92832500D03*
X64957500Y-92832500D03*
X60957500Y-92832500D03*
%TD*%
D19*
%TO.C,D1*%
X50000000Y-82500000D03*
D20*
X52540000Y-82500000D03*
%TD*%
D16*
%TO.C,C2*%
X95792500Y-74167500D03*
X90792500Y-74167500D03*
%TD*%
D18*
%TO.C,H5*%
X55000000Y-45000000D03*
%TD*%
%TO.C,H2*%
X135000000Y-42500000D03*
%TD*%
%TO.C,H4*%
X135000000Y-107500000D03*
%TD*%
D15*
%TO.C,J7*%
X74960000Y-107500000D03*
D14*
X77500000Y-107500000D03*
%TD*%
D18*
%TO.C,H1*%
X47500000Y-42500000D03*
%TD*%
D15*
%TO.C,J8*%
X82460000Y-107500000D03*
D14*
X85000000Y-107500000D03*
%TD*%
%TO.C,TP2*%
X125000000Y-95000000D03*
%TD*%
D17*
%TO.C,R2*%
X110080000Y-69667500D03*
D16*
X99920000Y-69667500D03*
%TD*%
D14*
%TO.C,J3*%
X67500000Y-107500000D03*
D15*
X70040000Y-107500000D03*
%TD*%
D18*
%TO.C,H10*%
X124896000Y-60910000D03*
%TD*%
D16*
%TO.C,C3*%
X60000000Y-98000000D03*
X60000000Y-103000000D03*
%TD*%
D14*
%TO.C,J5*%
X106325000Y-92365000D03*
D15*
X103785000Y-92365000D03*
X101245000Y-92365000D03*
X98705000Y-92365000D03*
X96165000Y-92365000D03*
X93625000Y-92365000D03*
%TD*%
D14*
%TO.C,TP1*%
X125000000Y-100000000D03*
%TD*%
D18*
%TO.C,H6*%
X85000000Y-45000000D03*
%TD*%
D15*
%TO.C,J6*%
X93625000Y-102525000D03*
X96165000Y-102525000D03*
X98705000Y-102525000D03*
X101245000Y-102525000D03*
X103785000Y-102525000D03*
D14*
X106325000Y-102525000D03*
%TD*%
D15*
%TO.C,J4*%
X90960000Y-107500000D03*
D14*
X93500000Y-107500000D03*
%TD*%
D18*
%TO.C,H8*%
X85000000Y-75000000D03*
%TD*%
D15*
%TO.C,J1*%
X94540000Y-66167500D03*
D14*
X92000000Y-66167500D03*
%TD*%
%TO.C,TP3*%
X125000000Y-90000000D03*
%TD*%
%TO.C,TP7*%
X125000000Y-70000000D03*
%TD*%
%TO.C,TP6*%
X125000000Y-75000000D03*
%TD*%
D21*
%TO.C,J2*%
X52500000Y-92832500D03*
D22*
X52500000Y-87752500D03*
%TD*%
D16*
%TO.C,C4*%
X95792500Y-84167500D03*
X90792500Y-84167500D03*
%TD*%
D18*
%TO.C,H9*%
X95604000Y-45040000D03*
%TD*%
D16*
%TO.C,R1*%
X80000000Y-97580000D03*
D17*
X80000000Y-87420000D03*
%TD*%
D20*
%TO.C,D2*%
X100000000Y-66167500D03*
D19*
X102540000Y-66167500D03*
%TD*%
D18*
%TO.C,H7*%
X55000000Y-75000000D03*
%TD*%
D14*
%TO.C,TP4*%
X125000000Y-85000000D03*
%TD*%
M02*
