%TF.GenerationSoftware,KiCad,Pcbnew,(6.0.7)*%
%TF.CreationDate,2025-03-19T21:33:16-07:00*%
%TF.ProjectId,PCB_v1,5043425f-7631-42e6-9b69-6361645f7063,rev?*%
%TF.SameCoordinates,Original*%
%TF.FileFunction,Copper,L1,Top*%
%TF.FilePolarity,Positive*%
%FSLAX46Y46*%
G04 Gerber Fmt 4.6, Leading zero omitted, Abs format (unit mm)*
G04 Created by KiCad (PCBNEW (6.0.7)) date 2025-03-19 21:33:16*
%MOMM*%
%LPD*%
G01*
G04 APERTURE LIST*
%TA.AperFunction,NonConductor*%
%ADD10C,0.200000*%
%TD*%
%TA.AperFunction,ComponentPad*%
%ADD11R,1.574800X1.574800*%
%TD*%
%TA.AperFunction,ComponentPad*%
%ADD12C,1.574800*%
%TD*%
%TA.AperFunction,ComponentPad*%
%ADD13C,2.000000*%
%TD*%
%TA.AperFunction,ComponentPad*%
%ADD14C,1.700000*%
%TD*%
%TA.AperFunction,ComponentPad*%
%ADD15R,1.700000X1.700000*%
%TD*%
%TA.AperFunction,ComponentPad*%
%ADD16O,1.700000X1.700000*%
%TD*%
%TA.AperFunction,ComponentPad*%
%ADD17C,1.600000*%
%TD*%
%TA.AperFunction,ComponentPad*%
%ADD18O,1.600000X1.600000*%
%TD*%
%TA.AperFunction,ComponentPad*%
%ADD19R,1.800000X1.800000*%
%TD*%
%TA.AperFunction,ComponentPad*%
%ADD20C,1.800000*%
%TD*%
%TA.AperFunction,ComponentPad*%
%ADD21R,3.000000X3.000000*%
%TD*%
%TA.AperFunction,ComponentPad*%
%ADD22C,3.000000*%
%TD*%
%TA.AperFunction,ViaPad*%
%ADD23C,0.800000*%
%TD*%
%TA.AperFunction,Conductor*%
%ADD24C,0.250000*%
%TD*%
G04 APERTURE END LIST*
D10*
X89000000Y-42500000D02*
X133180000Y-42500000D01*
X133180000Y-42500000D02*
X133180000Y-63582000D01*
X133180000Y-63582000D02*
X89000000Y-63582000D01*
X89000000Y-63582000D02*
X89000000Y-42500000D01*
X52500000Y-42500000D02*
X88000000Y-42500000D01*
X88000000Y-42500000D02*
X88000000Y-78000000D01*
X88000000Y-78000000D02*
X52500000Y-78000000D01*
X52500000Y-78000000D02*
X52500000Y-42500000D01*
D11*
%TO.P,F1,1*%
%TO.N,Net-(F1-Pad1)*%
X117500000Y-106245200D03*
D12*
%TO.P,F1,2*%
%TO.N,Net-(F1-Pad2)*%
X117500000Y-67357800D03*
%TD*%
D13*
%TO.P,SW2,*%
%TO.N,*%
X99042500Y-78917500D03*
X111042500Y-78917500D03*
X99042500Y-72917500D03*
X111042500Y-72917500D03*
D14*
%TO.P,SW2,1,A*%
%TO.N,+3.3V*%
X101042500Y-74667500D03*
%TO.P,SW2,2,B*%
%TO.N,Net-(F1-Pad2)*%
X105042500Y-74667500D03*
%TO.P,SW2,3,C*%
%TO.N,unconnected-(SW2-Pad3)*%
X109042500Y-74667500D03*
%TD*%
D15*
%TO.P,J9,1,Pin_1*%
%TO.N,+3.3V*%
X110000000Y-107500000D03*
D16*
%TO.P,J9,2,Pin_2*%
%TO.N,/Thermistor*%
X107460000Y-107500000D03*
%TO.P,J9,3,Pin_3*%
%TO.N,/PUL_3.3*%
X104920000Y-107500000D03*
%TO.P,J9,4,Pin_4*%
%TO.N,/DIR_3.3*%
X102380000Y-107500000D03*
%TO.P,J9,5,Pin_5*%
%TO.N,GND*%
X99840000Y-107500000D03*
%TO.P,J9,6,Pin_6*%
%TO.N,+5V*%
X97300000Y-107500000D03*
%TD*%
D17*
%TO.P,C1,1*%
%TO.N,VCC*%
X70000000Y-98000000D03*
%TO.P,C1,2*%
%TO.N,GND*%
X70000000Y-103000000D03*
%TD*%
%TO.P,R3,1*%
%TO.N,/Thermistor*%
X85000000Y-97580000D03*
D18*
%TO.P,R3,2*%
%TO.N,GND*%
X85000000Y-87420000D03*
%TD*%
D15*
%TO.P,TP5,1,1*%
%TO.N,/PUL_3.3*%
X125000000Y-80000000D03*
%TD*%
D13*
%TO.P,SW1,*%
%TO.N,*%
X58957500Y-94582500D03*
X70957500Y-94582500D03*
X70957500Y-88582500D03*
X58957500Y-88582500D03*
D14*
%TO.P,SW1,1,A*%
%TO.N,VCC*%
X68957500Y-92832500D03*
%TO.P,SW1,2,B*%
%TO.N,Net-(J2-Pad2)*%
X64957500Y-92832500D03*
%TO.P,SW1,3,C*%
%TO.N,unconnected-(SW1-Pad3)*%
X60957500Y-92832500D03*
%TD*%
D19*
%TO.P,D1,1,K*%
%TO.N,GND*%
X50000000Y-82500000D03*
D20*
%TO.P,D1,2,A*%
%TO.N,Net-(D1-Pad2)*%
X52540000Y-82500000D03*
%TD*%
D17*
%TO.P,C2,2*%
%TO.N,GND*%
X95792500Y-74167500D03*
%TO.P,C2,1*%
%TO.N,+3.3V*%
X90792500Y-74167500D03*
%TD*%
D16*
%TO.P,J7,2,Pin_2*%
%TO.N,GND*%
X74960000Y-107500000D03*
D15*
%TO.P,J7,1,Pin_1*%
X77500000Y-107500000D03*
%TD*%
D16*
%TO.P,J8,2,Pin_2*%
%TO.N,/PUL_5*%
X82460000Y-107500000D03*
D15*
%TO.P,J8,1,Pin_1*%
%TO.N,/DIR_5*%
X85000000Y-107500000D03*
%TD*%
%TO.P,TP2,1,1*%
%TO.N,+3.3V*%
X125000000Y-95000000D03*
%TD*%
D18*
%TO.P,R2,2*%
%TO.N,Net-(D2-Pad2)*%
X110080000Y-69667500D03*
D17*
%TO.P,R2,1*%
%TO.N,+3.3V*%
X99920000Y-69667500D03*
%TD*%
D15*
%TO.P,J3,1,Pin_1*%
%TO.N,GND*%
X67500000Y-107500000D03*
D16*
%TO.P,J3,2,Pin_2*%
%TO.N,VCC*%
X70040000Y-107500000D03*
%TD*%
D17*
%TO.P,C3,1*%
%TO.N,VCC*%
X60000000Y-98000000D03*
%TO.P,C3,2*%
%TO.N,GND*%
X60000000Y-103000000D03*
%TD*%
D15*
%TO.P,J5,1,Pin_1*%
%TO.N,/DIR_3.3*%
X106325000Y-92365000D03*
D16*
%TO.P,J5,2,Pin_2*%
%TO.N,/PUL_3.3*%
X103785000Y-92365000D03*
%TO.P,J5,3,Pin_3*%
%TO.N,+3.3V*%
X101245000Y-92365000D03*
%TO.P,J5,4,Pin_4*%
%TO.N,GND*%
X98705000Y-92365000D03*
%TO.P,J5,5,Pin_5*%
%TO.N,unconnected-(J5-Pad5)*%
X96165000Y-92365000D03*
%TO.P,J5,6,Pin_6*%
%TO.N,unconnected-(J5-Pad6)*%
X93625000Y-92365000D03*
%TD*%
D15*
%TO.P,TP1,1,1*%
%TO.N,GND*%
X125000000Y-100000000D03*
%TD*%
D16*
%TO.P,J6,6,Pin_6*%
%TO.N,unconnected-(J6-Pad6)*%
X93625000Y-102525000D03*
%TO.P,J6,5,Pin_5*%
%TO.N,unconnected-(J6-Pad5)*%
X96165000Y-102525000D03*
%TO.P,J6,4,Pin_4*%
%TO.N,GND*%
X98705000Y-102525000D03*
%TO.P,J6,3,Pin_3*%
%TO.N,+5V*%
X101245000Y-102525000D03*
%TO.P,J6,2,Pin_2*%
%TO.N,/PUL_5*%
X103785000Y-102525000D03*
D15*
%TO.P,J6,1,Pin_1*%
%TO.N,/DIR_5*%
X106325000Y-102525000D03*
%TD*%
D16*
%TO.P,J4,2,Pin_2*%
%TO.N,/Thermistor*%
X90960000Y-107500000D03*
D15*
%TO.P,J4,1,Pin_1*%
%TO.N,+3.3V*%
X93500000Y-107500000D03*
%TD*%
D16*
%TO.P,J1,2,Pin_2*%
%TO.N,GND*%
X94540000Y-66167500D03*
D15*
%TO.P,J1,1,Pin_1*%
%TO.N,Net-(F1-Pad1)*%
X92000000Y-66167500D03*
%TD*%
%TO.P,TP3,1,1*%
%TO.N,VCC*%
X125000000Y-90000000D03*
%TD*%
%TO.P,TP7,1,1*%
%TO.N,/PUL_5*%
X125000000Y-70000000D03*
%TD*%
%TO.P,TP6,1,1*%
%TO.N,/DIR_5*%
X125000000Y-75000000D03*
%TD*%
D21*
%TO.P,J2,1,Pin_1*%
%TO.N,GND*%
X52500000Y-92832500D03*
D22*
%TO.P,J2,2,Pin_2*%
%TO.N,Net-(J2-Pad2)*%
X52500000Y-87752500D03*
%TD*%
D17*
%TO.P,C4,2*%
%TO.N,GND*%
X95792500Y-84167500D03*
%TO.P,C4,1*%
%TO.N,+3.3V*%
X90792500Y-84167500D03*
%TD*%
%TO.P,R1,1*%
%TO.N,VCC*%
X80000000Y-97580000D03*
D18*
%TO.P,R1,2*%
%TO.N,Net-(D1-Pad2)*%
X80000000Y-87420000D03*
%TD*%
D20*
%TO.P,D2,2,A*%
%TO.N,Net-(D2-Pad2)*%
X100000000Y-66167500D03*
D19*
%TO.P,D2,1,K*%
%TO.N,GND*%
X102540000Y-66167500D03*
%TD*%
D15*
%TO.P,TP4,1,1*%
%TO.N,/DIR_3.3*%
X125000000Y-85000000D03*
%TD*%
D23*
%TO.N,Net-(F1-Pad1)*%
X95000000Y-80000000D03*
%TO.N,/DIR_5*%
X95000000Y-95000000D03*
%TO.N,/DIR_3.3*%
X115000000Y-97500000D03*
X105000000Y-105000000D03*
%TO.N,/DIR_5*%
X100000000Y-100000000D03*
%TO.N,VCC*%
X85000000Y-82500000D03*
%TO.N,Net-(F1-Pad1)*%
X97500000Y-87500000D03*
%TO.N,/Thermistor*%
X85000000Y-102500000D03*
%TD*%
D24*
%TO.N,Net-(F1-Pad1)*%
X97500000Y-82500000D02*
X97500000Y-87500000D01*
X95000000Y-80000000D02*
X97500000Y-82500000D01*
%TO.N,/Thermistor*%
X106285000Y-108675000D02*
X107460000Y-107500000D01*
X92135000Y-108675000D02*
X106285000Y-108675000D01*
X90960000Y-107500000D02*
X92135000Y-108675000D01*
%TO.N,/DIR_5*%
X90775272Y-90775273D02*
X90775272Y-93275272D01*
X90775272Y-93275272D02*
X92500000Y-95000000D01*
X92686396Y-88864149D02*
X90775272Y-90775273D01*
X92500000Y-95000000D02*
X95000000Y-95000000D01*
X101086396Y-87050000D02*
X99272247Y-88864149D01*
X112950000Y-87050000D02*
X101086396Y-87050000D01*
X99272247Y-88864149D02*
X92686396Y-88864149D01*
X125000000Y-75000000D02*
X112950000Y-87050000D01*
%TO.N,/PUL_5*%
X92500000Y-88414149D02*
X90000000Y-90914149D01*
X99085851Y-88414149D02*
X92500000Y-88414149D01*
X90000000Y-97500000D02*
X90615000Y-98115000D01*
X103600000Y-83900000D02*
X99085851Y-88414149D01*
X90000000Y-90914149D02*
X90000000Y-97500000D01*
X110000000Y-83900000D02*
X103600000Y-83900000D01*
X125000000Y-70000000D02*
X123900000Y-70000000D01*
X123900000Y-70000000D02*
X110000000Y-83900000D01*
%TO.N,/DIR_3.3*%
X120000000Y-87500000D02*
X122500000Y-85000000D01*
X120000000Y-92500000D02*
X120000000Y-87500000D01*
X115000000Y-97500000D02*
X120000000Y-92500000D01*
X122500000Y-85000000D02*
X125000000Y-85000000D01*
%TO.N,/PUL_3.3*%
X117500000Y-92500000D02*
X117500000Y-87500000D01*
X115000000Y-95000000D02*
X117500000Y-92500000D01*
X112500000Y-95000000D02*
X115000000Y-95000000D01*
X112500000Y-92500000D02*
X112500000Y-95000000D01*
X117500000Y-87500000D02*
X125000000Y-80000000D01*
%TO.N,/PUL_5*%
X90615000Y-98115000D02*
X91230000Y-97500000D01*
X82460000Y-106270000D02*
X90615000Y-98115000D01*
%TO.N,/DIR_3.3*%
X104880000Y-105000000D02*
X105000000Y-105000000D01*
X102380000Y-107500000D02*
X104880000Y-105000000D01*
%TO.N,/PUL_3.3*%
X103785000Y-88715000D02*
X103785000Y-92365000D01*
X105000000Y-87500000D02*
X103785000Y-88715000D01*
X107500000Y-87500000D02*
X105000000Y-87500000D01*
X112500000Y-102500000D02*
X112500000Y-92500000D01*
X112500000Y-92500000D02*
X107500000Y-87500000D01*
X106649149Y-105000000D02*
X110000000Y-105000000D01*
X105000000Y-106649149D02*
X106649149Y-105000000D01*
X105000000Y-107500000D02*
X105000000Y-106649149D01*
X104920000Y-107500000D02*
X105000000Y-107500000D01*
X110000000Y-105000000D02*
X112500000Y-102500000D01*
%TO.N,/DIR_5*%
X90000000Y-100000000D02*
X100000000Y-100000000D01*
X85000000Y-107500000D02*
X85000000Y-105000000D01*
X85000000Y-105000000D02*
X90000000Y-100000000D01*
%TO.N,/PUL_5*%
X103785000Y-100655000D02*
X103785000Y-102525000D01*
X100630000Y-97500000D02*
X103785000Y-100655000D01*
X91230000Y-97500000D02*
X100630000Y-97500000D01*
X82460000Y-107500000D02*
X82460000Y-106270000D01*
%TO.N,Net-(D2-Pad2)*%
X103500000Y-69667500D02*
X110080000Y-69667500D01*
X100000000Y-66167500D02*
X103500000Y-69667500D01*
%TO.N,Net-(F1-Pad2)*%
X107875000Y-77500000D02*
X105042500Y-74667500D01*
X110000000Y-77500000D02*
X107875000Y-77500000D01*
X117500000Y-70000000D02*
X110000000Y-77500000D01*
X117500000Y-67357800D02*
X117500000Y-70000000D01*
%TO.N,/Thermistor*%
X85000000Y-97580000D02*
X85000000Y-102500000D01*
%TO.N,Net-(J2-Pad2)*%
X64957500Y-89957500D02*
X64957500Y-92832500D01*
X55252500Y-85000000D02*
X60000000Y-85000000D01*
X60000000Y-85000000D02*
X64957500Y-89957500D01*
X52500000Y-87752500D02*
X55252500Y-85000000D01*
%TO.N,Net-(D1-Pad2)*%
X75080000Y-82500000D02*
X80000000Y-87420000D01*
X52540000Y-82500000D02*
X75080000Y-82500000D01*
%TD*%
%TA.AperFunction,Conductor*%
%TO.N,+3.3V*%
G36*
X88782718Y-64150635D02*
G01*
X88833520Y-64171678D01*
X88833523Y-64171679D01*
X88841150Y-64174838D01*
X89000000Y-64195751D01*
X89008188Y-64194673D01*
X89031697Y-64191578D01*
X89048143Y-64190500D01*
X129874385Y-64190500D01*
X129942506Y-64210502D01*
X129988999Y-64264158D01*
X130000385Y-64316434D01*
X130002065Y-67520098D01*
X130023993Y-109347568D01*
X130024002Y-109365434D01*
X130004036Y-109433565D01*
X129950404Y-109480086D01*
X129898002Y-109491500D01*
X106609447Y-109491500D01*
X106541326Y-109471498D01*
X106494833Y-109417842D01*
X106484729Y-109347568D01*
X106514223Y-109282988D01*
X106545308Y-109257047D01*
X106556030Y-109250706D01*
X106573776Y-109242012D01*
X106592617Y-109234552D01*
X106628387Y-109208564D01*
X106638307Y-109202048D01*
X106669535Y-109183580D01*
X106669538Y-109183578D01*
X106676362Y-109179542D01*
X106690683Y-109165221D01*
X106705717Y-109152380D01*
X106715694Y-109145131D01*
X106722107Y-109140472D01*
X106750298Y-109106395D01*
X106758288Y-109097616D01*
X107004549Y-108851355D01*
X107066861Y-108817329D01*
X107118762Y-108816979D01*
X107298597Y-108853567D01*
X107303772Y-108853757D01*
X107303774Y-108853757D01*
X107516673Y-108861564D01*
X107516677Y-108861564D01*
X107521837Y-108861753D01*
X107526957Y-108861097D01*
X107526959Y-108861097D01*
X107738288Y-108834025D01*
X107738289Y-108834025D01*
X107743416Y-108833368D01*
X107791220Y-108819026D01*
X107952429Y-108770661D01*
X107952434Y-108770659D01*
X107957384Y-108769174D01*
X108157994Y-108670896D01*
X108339860Y-108541173D01*
X108407331Y-108473938D01*
X108448479Y-108432933D01*
X108510851Y-108399017D01*
X108581658Y-108404205D01*
X108638419Y-108446851D01*
X108655401Y-108477954D01*
X108696676Y-108588054D01*
X108705214Y-108603649D01*
X108781715Y-108705724D01*
X108794276Y-108718285D01*
X108896351Y-108794786D01*
X108911946Y-108803324D01*
X109032394Y-108848478D01*
X109047649Y-108852105D01*
X109098514Y-108857631D01*
X109105328Y-108858000D01*
X109727885Y-108858000D01*
X109743124Y-108853525D01*
X109744329Y-108852135D01*
X109746000Y-108844452D01*
X109746000Y-108839884D01*
X110254000Y-108839884D01*
X110258475Y-108855123D01*
X110259865Y-108856328D01*
X110267548Y-108857999D01*
X110894669Y-108857999D01*
X110901490Y-108857629D01*
X110952352Y-108852105D01*
X110967604Y-108848479D01*
X111088054Y-108803324D01*
X111103649Y-108794786D01*
X111205724Y-108718285D01*
X111218285Y-108705724D01*
X111294786Y-108603649D01*
X111303324Y-108588054D01*
X111348478Y-108467606D01*
X111352105Y-108452351D01*
X111357631Y-108401486D01*
X111358000Y-108394672D01*
X111358000Y-107772115D01*
X111353525Y-107756876D01*
X111352135Y-107755671D01*
X111344452Y-107754000D01*
X110272115Y-107754000D01*
X110256876Y-107758475D01*
X110255671Y-107759865D01*
X110254000Y-107767548D01*
X110254000Y-108839884D01*
X109746000Y-108839884D01*
X109746000Y-107227885D01*
X110254000Y-107227885D01*
X110258475Y-107243124D01*
X110259865Y-107244329D01*
X110267548Y-107246000D01*
X111339884Y-107246000D01*
X111355123Y-107241525D01*
X111356328Y-107240135D01*
X111357999Y-107232452D01*
X111357999Y-107080734D01*
X116204100Y-107080734D01*
X116210855Y-107142916D01*
X116261985Y-107279305D01*
X116349339Y-107395861D01*
X116465895Y-107483215D01*
X116602284Y-107534345D01*
X116664466Y-107541100D01*
X118335534Y-107541100D01*
X118397716Y-107534345D01*
X118534105Y-107483215D01*
X118650661Y-107395861D01*
X118738015Y-107279305D01*
X118789145Y-107142916D01*
X118795900Y-107080734D01*
X118795900Y-105409666D01*
X118789145Y-105347484D01*
X118738015Y-105211095D01*
X118650661Y-105094539D01*
X118534105Y-105007185D01*
X118397716Y-104956055D01*
X118335534Y-104949300D01*
X116664466Y-104949300D01*
X116602284Y-104956055D01*
X116465895Y-105007185D01*
X116349339Y-105094539D01*
X116261985Y-105211095D01*
X116210855Y-105347484D01*
X116204100Y-105409666D01*
X116204100Y-107080734D01*
X111357999Y-107080734D01*
X111357999Y-106605331D01*
X111357629Y-106598510D01*
X111352105Y-106547648D01*
X111348479Y-106532396D01*
X111303324Y-106411946D01*
X111294786Y-106396351D01*
X111218285Y-106294276D01*
X111205724Y-106281715D01*
X111103649Y-106205214D01*
X111088054Y-106196676D01*
X110967606Y-106151522D01*
X110952351Y-106147895D01*
X110901486Y-106142369D01*
X110894672Y-106142000D01*
X110272115Y-106142000D01*
X110256876Y-106146475D01*
X110255671Y-106147865D01*
X110254000Y-106155548D01*
X110254000Y-107227885D01*
X109746000Y-107227885D01*
X109746000Y-106160116D01*
X109741525Y-106144877D01*
X109740135Y-106143672D01*
X109732452Y-106142001D01*
X109105331Y-106142001D01*
X109098510Y-106142371D01*
X109047648Y-106147895D01*
X109032396Y-106151521D01*
X108911946Y-106196676D01*
X108896351Y-106205214D01*
X108794276Y-106281715D01*
X108781715Y-106294276D01*
X108705214Y-106396351D01*
X108696676Y-106411946D01*
X108655297Y-106522322D01*
X108612655Y-106579087D01*
X108546093Y-106603786D01*
X108476744Y-106588578D01*
X108444121Y-106562891D01*
X108393151Y-106506876D01*
X108393145Y-106506870D01*
X108389670Y-106503051D01*
X108385619Y-106499852D01*
X108385615Y-106499848D01*
X108218414Y-106367800D01*
X108218410Y-106367798D01*
X108214359Y-106364598D01*
X108018789Y-106256638D01*
X108013920Y-106254914D01*
X108013916Y-106254912D01*
X107813087Y-106183795D01*
X107813083Y-106183794D01*
X107808212Y-106182069D01*
X107803119Y-106181162D01*
X107803116Y-106181161D01*
X107593373Y-106143800D01*
X107593367Y-106143799D01*
X107588284Y-106142894D01*
X107514452Y-106141992D01*
X107370081Y-106140228D01*
X107370079Y-106140228D01*
X107364911Y-106140165D01*
X107144091Y-106173955D01*
X106931756Y-106243357D01*
X106733607Y-106346507D01*
X106729474Y-106349610D01*
X106729471Y-106349612D01*
X106649985Y-106409292D01*
X106554965Y-106480635D01*
X106515982Y-106521428D01*
X106437312Y-106603752D01*
X106400629Y-106642138D01*
X106293201Y-106799621D01*
X106238293Y-106844621D01*
X106167768Y-106852792D01*
X106104021Y-106821538D01*
X106083324Y-106797054D01*
X106006928Y-106678964D01*
X105986721Y-106610904D01*
X106006517Y-106542723D01*
X106023625Y-106521428D01*
X106874650Y-105670404D01*
X106936962Y-105636379D01*
X106963745Y-105633500D01*
X109921233Y-105633500D01*
X109932416Y-105634027D01*
X109939909Y-105635702D01*
X109947835Y-105635453D01*
X109947836Y-105635453D01*
X110007986Y-105633562D01*
X110011945Y-105633500D01*
X110039856Y-105633500D01*
X110043791Y-105633003D01*
X110043856Y-105632995D01*
X110055693Y-105632062D01*
X110087951Y-105631048D01*
X110091970Y-105630922D01*
X110099889Y-105630673D01*
X110119343Y-105625021D01*
X110138700Y-105621013D01*
X110150930Y-105619468D01*
X110150931Y-105619468D01*
X110158797Y-105618474D01*
X110166168Y-105615555D01*
X110166170Y-105615555D01*
X110199912Y-105602196D01*
X110211142Y-105598351D01*
X110245983Y-105588229D01*
X110245984Y-105588229D01*
X110253593Y-105586018D01*
X110260412Y-105581985D01*
X110260417Y-105581983D01*
X110271028Y-105575707D01*
X110288776Y-105567012D01*
X110307617Y-105559552D01*
X110343387Y-105533564D01*
X110353307Y-105527048D01*
X110384535Y-105508580D01*
X110384538Y-105508578D01*
X110391362Y-105504542D01*
X110405683Y-105490221D01*
X110420717Y-105477380D01*
X110430694Y-105470131D01*
X110437107Y-105465472D01*
X110465298Y-105431395D01*
X110473288Y-105422616D01*
X112892253Y-103003652D01*
X112900539Y-102996112D01*
X112907018Y-102992000D01*
X112953644Y-102942348D01*
X112956398Y-102939507D01*
X112976135Y-102919770D01*
X112978615Y-102916573D01*
X112986320Y-102907551D01*
X113011159Y-102881100D01*
X113016586Y-102875321D01*
X113020405Y-102868375D01*
X113020407Y-102868372D01*
X113026348Y-102857566D01*
X113037199Y-102841047D01*
X113044758Y-102831301D01*
X113049614Y-102825041D01*
X113052759Y-102817772D01*
X113052762Y-102817768D01*
X113067174Y-102784463D01*
X113072391Y-102773813D01*
X113093695Y-102735060D01*
X113098733Y-102715437D01*
X113105137Y-102696734D01*
X113110033Y-102685420D01*
X113110033Y-102685419D01*
X113113181Y-102678145D01*
X113114420Y-102670322D01*
X113114423Y-102670312D01*
X113120099Y-102634476D01*
X113122505Y-102622856D01*
X113131528Y-102587711D01*
X113131528Y-102587710D01*
X113133500Y-102580030D01*
X113133500Y-102559776D01*
X113135051Y-102540065D01*
X113136980Y-102527886D01*
X113138220Y-102520057D01*
X113134059Y-102476038D01*
X113133500Y-102464181D01*
X113133500Y-100898134D01*
X123641500Y-100898134D01*
X123648255Y-100960316D01*
X123699385Y-101096705D01*
X123786739Y-101213261D01*
X123903295Y-101300615D01*
X124039684Y-101351745D01*
X124101866Y-101358500D01*
X125898134Y-101358500D01*
X125960316Y-101351745D01*
X126096705Y-101300615D01*
X126213261Y-101213261D01*
X126300615Y-101096705D01*
X126351745Y-100960316D01*
X126358500Y-100898134D01*
X126358500Y-99101866D01*
X126351745Y-99039684D01*
X126300615Y-98903295D01*
X126213261Y-98786739D01*
X126096705Y-98699385D01*
X125960316Y-98648255D01*
X125898134Y-98641500D01*
X124101866Y-98641500D01*
X124039684Y-98648255D01*
X123903295Y-98699385D01*
X123786739Y-98786739D01*
X123699385Y-98903295D01*
X123648255Y-99039684D01*
X123641500Y-99101866D01*
X123641500Y-100898134D01*
X113133500Y-100898134D01*
X113133500Y-97500000D01*
X114086496Y-97500000D01*
X114106458Y-97689928D01*
X114165473Y-97871556D01*
X114168776Y-97877278D01*
X114168777Y-97877279D01*
X114185176Y-97905683D01*
X114260960Y-98036944D01*
X114265378Y-98041851D01*
X114265379Y-98041852D01*
X114365909Y-98153502D01*
X114388747Y-98178866D01*
X114543248Y-98291118D01*
X114549276Y-98293802D01*
X114549278Y-98293803D01*
X114711681Y-98366109D01*
X114717712Y-98368794D01*
X114811113Y-98388647D01*
X114898056Y-98407128D01*
X114898061Y-98407128D01*
X114904513Y-98408500D01*
X115095487Y-98408500D01*
X115101939Y-98407128D01*
X115101944Y-98407128D01*
X115188887Y-98388647D01*
X115282288Y-98368794D01*
X115288319Y-98366109D01*
X115450722Y-98293803D01*
X115450724Y-98293802D01*
X115456752Y-98291118D01*
X115611253Y-98178866D01*
X115634091Y-98153502D01*
X115734621Y-98041852D01*
X115734622Y-98041851D01*
X115739040Y-98036944D01*
X115814824Y-97905683D01*
X115831223Y-97877279D01*
X115831224Y-97877278D01*
X115834527Y-97871556D01*
X115893542Y-97689928D01*
X115910907Y-97524706D01*
X115937920Y-97459050D01*
X115947122Y-97448782D01*
X117501236Y-95894669D01*
X123642001Y-95894669D01*
X123642371Y-95901490D01*
X123647895Y-95952352D01*
X123651521Y-95967604D01*
X123696676Y-96088054D01*
X123705214Y-96103649D01*
X123781715Y-96205724D01*
X123794276Y-96218285D01*
X123896351Y-96294786D01*
X123911946Y-96303324D01*
X124032394Y-96348478D01*
X124047649Y-96352105D01*
X124098514Y-96357631D01*
X124105328Y-96358000D01*
X124727885Y-96358000D01*
X124743124Y-96353525D01*
X124744329Y-96352135D01*
X124746000Y-96344452D01*
X124746000Y-96339884D01*
X125254000Y-96339884D01*
X125258475Y-96355123D01*
X125259865Y-96356328D01*
X125267548Y-96357999D01*
X125894669Y-96357999D01*
X125901490Y-96357629D01*
X125952352Y-96352105D01*
X125967604Y-96348479D01*
X126088054Y-96303324D01*
X126103649Y-96294786D01*
X126205724Y-96218285D01*
X126218285Y-96205724D01*
X126294786Y-96103649D01*
X126303324Y-96088054D01*
X126348478Y-95967606D01*
X126352105Y-95952351D01*
X126357631Y-95901486D01*
X126358000Y-95894672D01*
X126358000Y-95272115D01*
X126353525Y-95256876D01*
X126352135Y-95255671D01*
X126344452Y-95254000D01*
X125272115Y-95254000D01*
X125256876Y-95258475D01*
X125255671Y-95259865D01*
X125254000Y-95267548D01*
X125254000Y-96339884D01*
X124746000Y-96339884D01*
X124746000Y-95272115D01*
X124741525Y-95256876D01*
X124740135Y-95255671D01*
X124732452Y-95254000D01*
X123660116Y-95254000D01*
X123644877Y-95258475D01*
X123643672Y-95259865D01*
X123642001Y-95267548D01*
X123642001Y-95894669D01*
X117501236Y-95894669D01*
X118668020Y-94727885D01*
X123642000Y-94727885D01*
X123646475Y-94743124D01*
X123647865Y-94744329D01*
X123655548Y-94746000D01*
X124727885Y-94746000D01*
X124743124Y-94741525D01*
X124744329Y-94740135D01*
X124746000Y-94732452D01*
X124746000Y-94727885D01*
X125254000Y-94727885D01*
X125258475Y-94743124D01*
X125259865Y-94744329D01*
X125267548Y-94746000D01*
X126339884Y-94746000D01*
X126355123Y-94741525D01*
X126356328Y-94740135D01*
X126357999Y-94732452D01*
X126357999Y-94105331D01*
X126357629Y-94098510D01*
X126352105Y-94047648D01*
X126348479Y-94032396D01*
X126303324Y-93911946D01*
X126294786Y-93896351D01*
X126218285Y-93794276D01*
X126205724Y-93781715D01*
X126103649Y-93705214D01*
X126088054Y-93696676D01*
X125967606Y-93651522D01*
X125952351Y-93647895D01*
X125901486Y-93642369D01*
X125894672Y-93642000D01*
X125272115Y-93642000D01*
X125256876Y-93646475D01*
X125255671Y-93647865D01*
X125254000Y-93655548D01*
X125254000Y-94727885D01*
X124746000Y-94727885D01*
X124746000Y-93660116D01*
X124741525Y-93644877D01*
X124740135Y-93643672D01*
X124732452Y-93642001D01*
X124105331Y-93642001D01*
X124098510Y-93642371D01*
X124047648Y-93647895D01*
X124032396Y-93651521D01*
X123911946Y-93696676D01*
X123896351Y-93705214D01*
X123794276Y-93781715D01*
X123781715Y-93794276D01*
X123705214Y-93896351D01*
X123696676Y-93911946D01*
X123651522Y-94032394D01*
X123647895Y-94047649D01*
X123642369Y-94098514D01*
X123642000Y-94105328D01*
X123642000Y-94727885D01*
X118668020Y-94727885D01*
X120392253Y-93003652D01*
X120400539Y-92996112D01*
X120407018Y-92992000D01*
X120453644Y-92942348D01*
X120456398Y-92939507D01*
X120476135Y-92919770D01*
X120478615Y-92916573D01*
X120486320Y-92907551D01*
X120511159Y-92881100D01*
X120516586Y-92875321D01*
X120520405Y-92868375D01*
X120520407Y-92868372D01*
X120526348Y-92857566D01*
X120537199Y-92841047D01*
X120544758Y-92831301D01*
X120549614Y-92825041D01*
X120552759Y-92817772D01*
X120552762Y-92817768D01*
X120567174Y-92784463D01*
X120572391Y-92773813D01*
X120593695Y-92735060D01*
X120598733Y-92715437D01*
X120605137Y-92696734D01*
X120610033Y-92685420D01*
X120610033Y-92685419D01*
X120613181Y-92678145D01*
X120614420Y-92670322D01*
X120614423Y-92670312D01*
X120620099Y-92634476D01*
X120622505Y-92622856D01*
X120631528Y-92587711D01*
X120631528Y-92587710D01*
X120633500Y-92580030D01*
X120633500Y-92559776D01*
X120635051Y-92540065D01*
X120636980Y-92527886D01*
X120638220Y-92520057D01*
X120634059Y-92476038D01*
X120633500Y-92464181D01*
X120633500Y-90898134D01*
X123641500Y-90898134D01*
X123648255Y-90960316D01*
X123699385Y-91096705D01*
X123786739Y-91213261D01*
X123903295Y-91300615D01*
X124039684Y-91351745D01*
X124101866Y-91358500D01*
X125898134Y-91358500D01*
X125960316Y-91351745D01*
X126096705Y-91300615D01*
X126213261Y-91213261D01*
X126300615Y-91096705D01*
X126351745Y-90960316D01*
X126358500Y-90898134D01*
X126358500Y-89101866D01*
X126351745Y-89039684D01*
X126300615Y-88903295D01*
X126213261Y-88786739D01*
X126096705Y-88699385D01*
X125960316Y-88648255D01*
X125898134Y-88641500D01*
X124101866Y-88641500D01*
X124039684Y-88648255D01*
X123903295Y-88699385D01*
X123786739Y-88786739D01*
X123699385Y-88903295D01*
X123648255Y-89039684D01*
X123641500Y-89101866D01*
X123641500Y-90898134D01*
X120633500Y-90898134D01*
X120633500Y-87814594D01*
X120653502Y-87746473D01*
X120670405Y-87725499D01*
X122725500Y-85670405D01*
X122787812Y-85636379D01*
X122814595Y-85633500D01*
X123515500Y-85633500D01*
X123583621Y-85653502D01*
X123630114Y-85707158D01*
X123641500Y-85759500D01*
X123641500Y-85898134D01*
X123648255Y-85960316D01*
X123699385Y-86096705D01*
X123786739Y-86213261D01*
X123903295Y-86300615D01*
X124039684Y-86351745D01*
X124101866Y-86358500D01*
X125898134Y-86358500D01*
X125960316Y-86351745D01*
X126096705Y-86300615D01*
X126213261Y-86213261D01*
X126300615Y-86096705D01*
X126351745Y-85960316D01*
X126358500Y-85898134D01*
X126358500Y-84101866D01*
X126351745Y-84039684D01*
X126300615Y-83903295D01*
X126213261Y-83786739D01*
X126096705Y-83699385D01*
X125960316Y-83648255D01*
X125898134Y-83641500D01*
X124101866Y-83641500D01*
X124039684Y-83648255D01*
X123903295Y-83699385D01*
X123786739Y-83786739D01*
X123699385Y-83903295D01*
X123648255Y-84039684D01*
X123641500Y-84101866D01*
X123641500Y-84240500D01*
X123621498Y-84308621D01*
X123567842Y-84355114D01*
X123515500Y-84366500D01*
X122578767Y-84366500D01*
X122567584Y-84365973D01*
X122560091Y-84364298D01*
X122552165Y-84364547D01*
X122552164Y-84364547D01*
X122492001Y-84366438D01*
X122488043Y-84366500D01*
X122460144Y-84366500D01*
X122456154Y-84367004D01*
X122444320Y-84367936D01*
X122400111Y-84369326D01*
X122392497Y-84371538D01*
X122392492Y-84371539D01*
X122380659Y-84374977D01*
X122361296Y-84378988D01*
X122341203Y-84381526D01*
X122333836Y-84384443D01*
X122333831Y-84384444D01*
X122300092Y-84397802D01*
X122288865Y-84401646D01*
X122246407Y-84413982D01*
X122239581Y-84418019D01*
X122228972Y-84424293D01*
X122211224Y-84432988D01*
X122192383Y-84440448D01*
X122185967Y-84445110D01*
X122185966Y-84445110D01*
X122156613Y-84466436D01*
X122146693Y-84472952D01*
X122115465Y-84491420D01*
X122115462Y-84491422D01*
X122108638Y-84495458D01*
X122094317Y-84509779D01*
X122079284Y-84522619D01*
X122062893Y-84534528D01*
X122057842Y-84540634D01*
X122034702Y-84568605D01*
X122026712Y-84577384D01*
X119607747Y-86996348D01*
X119599461Y-87003888D01*
X119592982Y-87008000D01*
X119587557Y-87013777D01*
X119546357Y-87057651D01*
X119543602Y-87060493D01*
X119523865Y-87080230D01*
X119521385Y-87083427D01*
X119513682Y-87092447D01*
X119483414Y-87124679D01*
X119479595Y-87131625D01*
X119479593Y-87131628D01*
X119473652Y-87142434D01*
X119462801Y-87158953D01*
X119450386Y-87174959D01*
X119447241Y-87182228D01*
X119447238Y-87182232D01*
X119432826Y-87215537D01*
X119427609Y-87226187D01*
X119406305Y-87264940D01*
X119404334Y-87272615D01*
X119404334Y-87272616D01*
X119401267Y-87284562D01*
X119394863Y-87303266D01*
X119386819Y-87321855D01*
X119385580Y-87329678D01*
X119385577Y-87329688D01*
X119379901Y-87365524D01*
X119377495Y-87377144D01*
X119366500Y-87419970D01*
X119366500Y-87440224D01*
X119364949Y-87459934D01*
X119361780Y-87479943D01*
X119362526Y-87487835D01*
X119365941Y-87523961D01*
X119366500Y-87535819D01*
X119366500Y-92185406D01*
X119346498Y-92253527D01*
X119329595Y-92274501D01*
X115049500Y-96554595D01*
X114987188Y-96588621D01*
X114960405Y-96591500D01*
X114904513Y-96591500D01*
X114898061Y-96592872D01*
X114898056Y-96592872D01*
X114811112Y-96611353D01*
X114717712Y-96631206D01*
X114711682Y-96633891D01*
X114711681Y-96633891D01*
X114549278Y-96706197D01*
X114549276Y-96706198D01*
X114543248Y-96708882D01*
X114388747Y-96821134D01*
X114384326Y-96826044D01*
X114384325Y-96826045D01*
X114275203Y-96947238D01*
X114260960Y-96963056D01*
X114165473Y-97128444D01*
X114106458Y-97310072D01*
X114086496Y-97500000D01*
X113133500Y-97500000D01*
X113133500Y-95759500D01*
X113153502Y-95691379D01*
X113207158Y-95644886D01*
X113259500Y-95633500D01*
X114921233Y-95633500D01*
X114932416Y-95634027D01*
X114939909Y-95635702D01*
X114947835Y-95635453D01*
X114947836Y-95635453D01*
X115007986Y-95633562D01*
X115011945Y-95633500D01*
X115039856Y-95633500D01*
X115043791Y-95633003D01*
X115043856Y-95632995D01*
X115055693Y-95632062D01*
X115087951Y-95631048D01*
X115091970Y-95630922D01*
X115099889Y-95630673D01*
X115119343Y-95625021D01*
X115138700Y-95621013D01*
X115150930Y-95619468D01*
X115150931Y-95619468D01*
X115158797Y-95618474D01*
X115166168Y-95615555D01*
X115166170Y-95615555D01*
X115199912Y-95602196D01*
X115211142Y-95598351D01*
X115245983Y-95588229D01*
X115245984Y-95588229D01*
X115253593Y-95586018D01*
X115260412Y-95581985D01*
X115260417Y-95581983D01*
X115271028Y-95575707D01*
X115288776Y-95567012D01*
X115307617Y-95559552D01*
X115343387Y-95533564D01*
X115353307Y-95527048D01*
X115384535Y-95508580D01*
X115384538Y-95508578D01*
X115391362Y-95504542D01*
X115405683Y-95490221D01*
X115420717Y-95477380D01*
X115430694Y-95470131D01*
X115437107Y-95465472D01*
X115465298Y-95431395D01*
X115473288Y-95422616D01*
X117892253Y-93003652D01*
X117900539Y-92996112D01*
X117907018Y-92992000D01*
X117953644Y-92942348D01*
X117956398Y-92939507D01*
X117976135Y-92919770D01*
X117978615Y-92916573D01*
X117986320Y-92907551D01*
X118011159Y-92881100D01*
X118016586Y-92875321D01*
X118020405Y-92868375D01*
X118020407Y-92868372D01*
X118026348Y-92857566D01*
X118037199Y-92841047D01*
X118044758Y-92831301D01*
X118049614Y-92825041D01*
X118052759Y-92817772D01*
X118052762Y-92817768D01*
X118067174Y-92784463D01*
X118072391Y-92773813D01*
X118093695Y-92735060D01*
X118098733Y-92715437D01*
X118105137Y-92696734D01*
X118110033Y-92685420D01*
X118110033Y-92685419D01*
X118113181Y-92678145D01*
X118114420Y-92670322D01*
X118114423Y-92670312D01*
X118120099Y-92634476D01*
X118122505Y-92622856D01*
X118131528Y-92587711D01*
X118131528Y-92587710D01*
X118133500Y-92580030D01*
X118133500Y-92559776D01*
X118135051Y-92540065D01*
X118136980Y-92527886D01*
X118138220Y-92520057D01*
X118134059Y-92476038D01*
X118133500Y-92464181D01*
X118133500Y-87814594D01*
X118153502Y-87746473D01*
X118170405Y-87725499D01*
X124500499Y-81395405D01*
X124562811Y-81361379D01*
X124589594Y-81358500D01*
X125898134Y-81358500D01*
X125960316Y-81351745D01*
X126096705Y-81300615D01*
X126213261Y-81213261D01*
X126300615Y-81096705D01*
X126351745Y-80960316D01*
X126358500Y-80898134D01*
X126358500Y-79101866D01*
X126351745Y-79039684D01*
X126300615Y-78903295D01*
X126213261Y-78786739D01*
X126096705Y-78699385D01*
X125960316Y-78648255D01*
X125898134Y-78641500D01*
X124101866Y-78641500D01*
X124039684Y-78648255D01*
X123903295Y-78699385D01*
X123786739Y-78786739D01*
X123699385Y-78903295D01*
X123648255Y-79039684D01*
X123641500Y-79101866D01*
X123641500Y-80410406D01*
X123621498Y-80478527D01*
X123604595Y-80499501D01*
X117107747Y-86996348D01*
X117099461Y-87003888D01*
X117092982Y-87008000D01*
X117087557Y-87013777D01*
X117046357Y-87057651D01*
X117043602Y-87060493D01*
X117023865Y-87080230D01*
X117021385Y-87083427D01*
X117013682Y-87092447D01*
X116983414Y-87124679D01*
X116979595Y-87131625D01*
X116979593Y-87131628D01*
X116973652Y-87142434D01*
X116962801Y-87158953D01*
X116950386Y-87174959D01*
X116947241Y-87182228D01*
X116947238Y-87182232D01*
X116932826Y-87215537D01*
X116927609Y-87226187D01*
X116906305Y-87264940D01*
X116904334Y-87272615D01*
X116904334Y-87272616D01*
X116901267Y-87284562D01*
X116894863Y-87303266D01*
X116886819Y-87321855D01*
X116885580Y-87329678D01*
X116885577Y-87329688D01*
X116879901Y-87365524D01*
X116877495Y-87377144D01*
X116866500Y-87419970D01*
X116866500Y-87440224D01*
X116864949Y-87459934D01*
X116861780Y-87479943D01*
X116862526Y-87487835D01*
X116865941Y-87523961D01*
X116866500Y-87535819D01*
X116866500Y-92185406D01*
X116846498Y-92253527D01*
X116829595Y-92274501D01*
X114774500Y-94329595D01*
X114712188Y-94363621D01*
X114685405Y-94366500D01*
X113259500Y-94366500D01*
X113191379Y-94346498D01*
X113144886Y-94292842D01*
X113133500Y-94240500D01*
X113133500Y-92578767D01*
X113134027Y-92567584D01*
X113135702Y-92560091D01*
X113135381Y-92549858D01*
X113133562Y-92492001D01*
X113133500Y-92488043D01*
X113133500Y-92460144D01*
X113132996Y-92456153D01*
X113132063Y-92444311D01*
X113131664Y-92431590D01*
X113130674Y-92400111D01*
X113128462Y-92392497D01*
X113128461Y-92392492D01*
X113125023Y-92380659D01*
X113121012Y-92361295D01*
X113119467Y-92349064D01*
X113118474Y-92341203D01*
X113115557Y-92333836D01*
X113115556Y-92333831D01*
X113102198Y-92300092D01*
X113098354Y-92288865D01*
X113096232Y-92281561D01*
X113086018Y-92246407D01*
X113075707Y-92228972D01*
X113067012Y-92211224D01*
X113059552Y-92192383D01*
X113033564Y-92156613D01*
X113027048Y-92146693D01*
X113008580Y-92115465D01*
X113008578Y-92115462D01*
X113004542Y-92108638D01*
X112990221Y-92094317D01*
X112977380Y-92079283D01*
X112970131Y-92069306D01*
X112965472Y-92062893D01*
X112931395Y-92034702D01*
X112922616Y-92026712D01*
X108794500Y-87898595D01*
X108760474Y-87836283D01*
X108765539Y-87765467D01*
X108808086Y-87708632D01*
X108874606Y-87683821D01*
X108883595Y-87683500D01*
X112871233Y-87683500D01*
X112882416Y-87684027D01*
X112889909Y-87685702D01*
X112897835Y-87685453D01*
X112897836Y-87685453D01*
X112957986Y-87683562D01*
X112961945Y-87683500D01*
X112989856Y-87683500D01*
X112993791Y-87683003D01*
X112993856Y-87682995D01*
X113005693Y-87682062D01*
X113037951Y-87681048D01*
X113041970Y-87680922D01*
X113049889Y-87680673D01*
X113069343Y-87675021D01*
X113088700Y-87671013D01*
X113100930Y-87669468D01*
X113100931Y-87669468D01*
X113108797Y-87668474D01*
X113116168Y-87665555D01*
X113116170Y-87665555D01*
X113149912Y-87652196D01*
X113161142Y-87648351D01*
X113195983Y-87638229D01*
X113195984Y-87638229D01*
X113203593Y-87636018D01*
X113210412Y-87631985D01*
X113210417Y-87631983D01*
X113221028Y-87625707D01*
X113238776Y-87617012D01*
X113257617Y-87609552D01*
X113293387Y-87583564D01*
X113303307Y-87577048D01*
X113334535Y-87558580D01*
X113334538Y-87558578D01*
X113341362Y-87554542D01*
X113355683Y-87540221D01*
X113370717Y-87527380D01*
X113380694Y-87520131D01*
X113387107Y-87515472D01*
X113415298Y-87481395D01*
X113423288Y-87472616D01*
X124500499Y-76395405D01*
X124562811Y-76361379D01*
X124589594Y-76358500D01*
X125898134Y-76358500D01*
X125960316Y-76351745D01*
X126096705Y-76300615D01*
X126213261Y-76213261D01*
X126300615Y-76096705D01*
X126351745Y-75960316D01*
X126358500Y-75898134D01*
X126358500Y-74101866D01*
X126351745Y-74039684D01*
X126300615Y-73903295D01*
X126213261Y-73786739D01*
X126096705Y-73699385D01*
X125960316Y-73648255D01*
X125898134Y-73641500D01*
X124101866Y-73641500D01*
X124039684Y-73648255D01*
X123903295Y-73699385D01*
X123786739Y-73786739D01*
X123699385Y-73903295D01*
X123648255Y-74039684D01*
X123641500Y-74101866D01*
X123641500Y-75410405D01*
X123621498Y-75478526D01*
X123604595Y-75499500D01*
X112724500Y-86379595D01*
X112662188Y-86413621D01*
X112635405Y-86416500D01*
X102283595Y-86416500D01*
X102215474Y-86396498D01*
X102168981Y-86342842D01*
X102158877Y-86272568D01*
X102188371Y-86207988D01*
X102194500Y-86201405D01*
X103825500Y-84570405D01*
X103887812Y-84536379D01*
X103914595Y-84533500D01*
X109921233Y-84533500D01*
X109932416Y-84534027D01*
X109939909Y-84535702D01*
X109947835Y-84535453D01*
X109947836Y-84535453D01*
X110007986Y-84533562D01*
X110011945Y-84533500D01*
X110039856Y-84533500D01*
X110043791Y-84533003D01*
X110043856Y-84532995D01*
X110055693Y-84532062D01*
X110087951Y-84531048D01*
X110091970Y-84530922D01*
X110099889Y-84530673D01*
X110119343Y-84525021D01*
X110138700Y-84521013D01*
X110150930Y-84519468D01*
X110150931Y-84519468D01*
X110158797Y-84518474D01*
X110166168Y-84515555D01*
X110166170Y-84515555D01*
X110199912Y-84502196D01*
X110211142Y-84498351D01*
X110245983Y-84488229D01*
X110245984Y-84488229D01*
X110253593Y-84486018D01*
X110260412Y-84481985D01*
X110260417Y-84481983D01*
X110271028Y-84475707D01*
X110288776Y-84467012D01*
X110307617Y-84459552D01*
X110343387Y-84433564D01*
X110353307Y-84427048D01*
X110384535Y-84408580D01*
X110384538Y-84408578D01*
X110391362Y-84404542D01*
X110405683Y-84390221D01*
X110420717Y-84377380D01*
X110437107Y-84365472D01*
X110465298Y-84331395D01*
X110473288Y-84322616D01*
X123596542Y-71199362D01*
X123658854Y-71165336D01*
X123729669Y-71170401D01*
X123772364Y-71202375D01*
X123775008Y-71199731D01*
X123781358Y-71206081D01*
X123786739Y-71213261D01*
X123903295Y-71300615D01*
X124039684Y-71351745D01*
X124101866Y-71358500D01*
X125898134Y-71358500D01*
X125960316Y-71351745D01*
X126096705Y-71300615D01*
X126213261Y-71213261D01*
X126300615Y-71096705D01*
X126351745Y-70960316D01*
X126358000Y-70902736D01*
X126358131Y-70901531D01*
X126358500Y-70898134D01*
X126358500Y-69101866D01*
X126351745Y-69039684D01*
X126300615Y-68903295D01*
X126213261Y-68786739D01*
X126096705Y-68699385D01*
X125960316Y-68648255D01*
X125898134Y-68641500D01*
X124101866Y-68641500D01*
X124039684Y-68648255D01*
X123903295Y-68699385D01*
X123786739Y-68786739D01*
X123699385Y-68903295D01*
X123648255Y-69039684D01*
X123641500Y-69101866D01*
X123641500Y-69340562D01*
X123621498Y-69408683D01*
X123589561Y-69442498D01*
X123556613Y-69466436D01*
X123546695Y-69472951D01*
X123508638Y-69495458D01*
X123494317Y-69509779D01*
X123479284Y-69522619D01*
X123462893Y-69534528D01*
X123457842Y-69540634D01*
X123434702Y-69568605D01*
X123426712Y-69577384D01*
X109774500Y-83229595D01*
X109712188Y-83263621D01*
X109685405Y-83266500D01*
X103678768Y-83266500D01*
X103667585Y-83265973D01*
X103660092Y-83264298D01*
X103652166Y-83264547D01*
X103652165Y-83264547D01*
X103592002Y-83266438D01*
X103588044Y-83266500D01*
X103560144Y-83266500D01*
X103556154Y-83267004D01*
X103544320Y-83267936D01*
X103500111Y-83269326D01*
X103492497Y-83271538D01*
X103492492Y-83271539D01*
X103480659Y-83274977D01*
X103461296Y-83278988D01*
X103441203Y-83281526D01*
X103433836Y-83284443D01*
X103433831Y-83284444D01*
X103400092Y-83297802D01*
X103388865Y-83301646D01*
X103346407Y-83313982D01*
X103339581Y-83318019D01*
X103328972Y-83324293D01*
X103311224Y-83332988D01*
X103292383Y-83340448D01*
X103285967Y-83345110D01*
X103285966Y-83345110D01*
X103256613Y-83366436D01*
X103246693Y-83372952D01*
X103215465Y-83391420D01*
X103215462Y-83391422D01*
X103208638Y-83395458D01*
X103194317Y-83409779D01*
X103179284Y-83422619D01*
X103162893Y-83434528D01*
X103145718Y-83455289D01*
X103134702Y-83468605D01*
X103126712Y-83477384D01*
X98860351Y-87743744D01*
X98798039Y-87777770D01*
X98771256Y-87780649D01*
X98523944Y-87780649D01*
X98455823Y-87760647D01*
X98409330Y-87706991D01*
X98398634Y-87641478D01*
X98398976Y-87638229D01*
X98413504Y-87500000D01*
X98404285Y-87412289D01*
X98394232Y-87316635D01*
X98394232Y-87316633D01*
X98393542Y-87310072D01*
X98334527Y-87128444D01*
X98239040Y-86963056D01*
X98165863Y-86881785D01*
X98135147Y-86817779D01*
X98133500Y-86797476D01*
X98133500Y-82578767D01*
X98134027Y-82567584D01*
X98135702Y-82560091D01*
X98133562Y-82492000D01*
X98133500Y-82488043D01*
X98133500Y-82460144D01*
X98132996Y-82456153D01*
X98132063Y-82444311D01*
X98130923Y-82408036D01*
X98130674Y-82400111D01*
X98128462Y-82392497D01*
X98128461Y-82392492D01*
X98125023Y-82380659D01*
X98121012Y-82361295D01*
X98119467Y-82349064D01*
X98118474Y-82341203D01*
X98115557Y-82333836D01*
X98115556Y-82333831D01*
X98102198Y-82300092D01*
X98098354Y-82288865D01*
X98088230Y-82254022D01*
X98086018Y-82246407D01*
X98075707Y-82228972D01*
X98067012Y-82211224D01*
X98059552Y-82192383D01*
X98033564Y-82156613D01*
X98027048Y-82146693D01*
X98008580Y-82115465D01*
X98008578Y-82115462D01*
X98004542Y-82108638D01*
X97990221Y-82094317D01*
X97977380Y-82079283D01*
X97970131Y-82069306D01*
X97965472Y-82062893D01*
X97931395Y-82034702D01*
X97922616Y-82026712D01*
X95947122Y-80051217D01*
X95913096Y-79988905D01*
X95910907Y-79975292D01*
X95894232Y-79816635D01*
X95894232Y-79816633D01*
X95893542Y-79810072D01*
X95834527Y-79628444D01*
X95739040Y-79463056D01*
X95611253Y-79321134D01*
X95456752Y-79208882D01*
X95450724Y-79206198D01*
X95450722Y-79206197D01*
X95288319Y-79133891D01*
X95288318Y-79133891D01*
X95282288Y-79131206D01*
X95160331Y-79105283D01*
X95101944Y-79092872D01*
X95101939Y-79092872D01*
X95095487Y-79091500D01*
X94904513Y-79091500D01*
X94898061Y-79092872D01*
X94898056Y-79092872D01*
X94839669Y-79105283D01*
X94717712Y-79131206D01*
X94711682Y-79133891D01*
X94711681Y-79133891D01*
X94549278Y-79206197D01*
X94549276Y-79206198D01*
X94543248Y-79208882D01*
X94388747Y-79321134D01*
X94260960Y-79463056D01*
X94165473Y-79628444D01*
X94106458Y-79810072D01*
X94086496Y-80000000D01*
X94087186Y-80006565D01*
X94101387Y-80141676D01*
X94106458Y-80189928D01*
X94165473Y-80371556D01*
X94260960Y-80536944D01*
X94388747Y-80678866D01*
X94543248Y-80791118D01*
X94549276Y-80793802D01*
X94549278Y-80793803D01*
X94711681Y-80866109D01*
X94717712Y-80868794D01*
X94811112Y-80888647D01*
X94898056Y-80907128D01*
X94898061Y-80907128D01*
X94904513Y-80908500D01*
X94960406Y-80908500D01*
X95028527Y-80928502D01*
X95049501Y-80945405D01*
X96829595Y-82725500D01*
X96863621Y-82787812D01*
X96866500Y-82814595D01*
X96866500Y-83086812D01*
X96846498Y-83154933D01*
X96792842Y-83201426D01*
X96722568Y-83211530D01*
X96657988Y-83182036D01*
X96651405Y-83175907D01*
X96636800Y-83161302D01*
X96632292Y-83158145D01*
X96632289Y-83158143D01*
X96539559Y-83093213D01*
X96449249Y-83029977D01*
X96444267Y-83027654D01*
X96444262Y-83027651D01*
X96246725Y-82935539D01*
X96246724Y-82935539D01*
X96241743Y-82933216D01*
X96236435Y-82931794D01*
X96236433Y-82931793D01*
X96025902Y-82875381D01*
X96025900Y-82875381D01*
X96020587Y-82873957D01*
X95792500Y-82854002D01*
X95564413Y-82873957D01*
X95559100Y-82875381D01*
X95559098Y-82875381D01*
X95348567Y-82931793D01*
X95348565Y-82931794D01*
X95343257Y-82933216D01*
X95338276Y-82935539D01*
X95338275Y-82935539D01*
X95140738Y-83027651D01*
X95140733Y-83027654D01*
X95135751Y-83029977D01*
X95045441Y-83093213D01*
X94952711Y-83158143D01*
X94952708Y-83158145D01*
X94948200Y-83161302D01*
X94786302Y-83323200D01*
X94783145Y-83327708D01*
X94783143Y-83327711D01*
X94770960Y-83345110D01*
X94654977Y-83510751D01*
X94652654Y-83515733D01*
X94652651Y-83515738D01*
X94560539Y-83713275D01*
X94558216Y-83718257D01*
X94556794Y-83723565D01*
X94556793Y-83723567D01*
X94535519Y-83802961D01*
X94498957Y-83939413D01*
X94479002Y-84167500D01*
X94498957Y-84395587D01*
X94500381Y-84400900D01*
X94500381Y-84400902D01*
X94537823Y-84540634D01*
X94558216Y-84616743D01*
X94560539Y-84621724D01*
X94560539Y-84621725D01*
X94652651Y-84819262D01*
X94652654Y-84819267D01*
X94654977Y-84824249D01*
X94786302Y-85011800D01*
X94948200Y-85173698D01*
X94952708Y-85176855D01*
X94952711Y-85176857D01*
X95030889Y-85231598D01*
X95135751Y-85305023D01*
X95140733Y-85307346D01*
X95140738Y-85307349D01*
X95337265Y-85398990D01*
X95343257Y-85401784D01*
X95348565Y-85403206D01*
X95348567Y-85403207D01*
X95559098Y-85459619D01*
X95559100Y-85459619D01*
X95564413Y-85461043D01*
X95792500Y-85480998D01*
X96020587Y-85461043D01*
X96025900Y-85459619D01*
X96025902Y-85459619D01*
X96236433Y-85403207D01*
X96236435Y-85403206D01*
X96241743Y-85401784D01*
X96247735Y-85398990D01*
X96444262Y-85307349D01*
X96444267Y-85307346D01*
X96449249Y-85305023D01*
X96554111Y-85231598D01*
X96632289Y-85176857D01*
X96632292Y-85176855D01*
X96636800Y-85173698D01*
X96651405Y-85159093D01*
X96713717Y-85125067D01*
X96784532Y-85130132D01*
X96841368Y-85172679D01*
X96866179Y-85239199D01*
X96866500Y-85248188D01*
X96866500Y-86797476D01*
X96846498Y-86865597D01*
X96834142Y-86881779D01*
X96760960Y-86963056D01*
X96665473Y-87128444D01*
X96606458Y-87310072D01*
X96605768Y-87316633D01*
X96605768Y-87316635D01*
X96595715Y-87412289D01*
X96586496Y-87500000D01*
X96601025Y-87638229D01*
X96601366Y-87641478D01*
X96588594Y-87711317D01*
X96540092Y-87763164D01*
X96476056Y-87780649D01*
X92578767Y-87780649D01*
X92567584Y-87780122D01*
X92560091Y-87778447D01*
X92552165Y-87778696D01*
X92552164Y-87778696D01*
X92492001Y-87780587D01*
X92488043Y-87780649D01*
X92460144Y-87780649D01*
X92456154Y-87781153D01*
X92444320Y-87782085D01*
X92400111Y-87783475D01*
X92392497Y-87785687D01*
X92392492Y-87785688D01*
X92380659Y-87789126D01*
X92361296Y-87793137D01*
X92341203Y-87795675D01*
X92333836Y-87798592D01*
X92333831Y-87798593D01*
X92300092Y-87811951D01*
X92288865Y-87815795D01*
X92246407Y-87828131D01*
X92239581Y-87832168D01*
X92228972Y-87838442D01*
X92211224Y-87847137D01*
X92192383Y-87854597D01*
X92185967Y-87859259D01*
X92185966Y-87859259D01*
X92156613Y-87880585D01*
X92146693Y-87887101D01*
X92115465Y-87905569D01*
X92115462Y-87905571D01*
X92108638Y-87909607D01*
X92094317Y-87923928D01*
X92079284Y-87936768D01*
X92062893Y-87948677D01*
X92057842Y-87954783D01*
X92034702Y-87982754D01*
X92026712Y-87991533D01*
X89607747Y-90410497D01*
X89599461Y-90418037D01*
X89592982Y-90422149D01*
X89587557Y-90427926D01*
X89546357Y-90471800D01*
X89543602Y-90474642D01*
X89523865Y-90494379D01*
X89521385Y-90497576D01*
X89513682Y-90506596D01*
X89483414Y-90538828D01*
X89479595Y-90545774D01*
X89479593Y-90545777D01*
X89473652Y-90556583D01*
X89462801Y-90573102D01*
X89450386Y-90589108D01*
X89447241Y-90596377D01*
X89447238Y-90596381D01*
X89432826Y-90629686D01*
X89427609Y-90640336D01*
X89406305Y-90679089D01*
X89404334Y-90686764D01*
X89404334Y-90686765D01*
X89401267Y-90698711D01*
X89394863Y-90717415D01*
X89386819Y-90736004D01*
X89385580Y-90743827D01*
X89385577Y-90743837D01*
X89379901Y-90779673D01*
X89377495Y-90791293D01*
X89366500Y-90834119D01*
X89366500Y-90854373D01*
X89364949Y-90874083D01*
X89361780Y-90894092D01*
X89362526Y-90901984D01*
X89365941Y-90938110D01*
X89366500Y-90949968D01*
X89366500Y-97421233D01*
X89365973Y-97432416D01*
X89364298Y-97439909D01*
X89364547Y-97447835D01*
X89364547Y-97447836D01*
X89366438Y-97507986D01*
X89366500Y-97511945D01*
X89366500Y-97539856D01*
X89366997Y-97543790D01*
X89366997Y-97543791D01*
X89367005Y-97543856D01*
X89367938Y-97555693D01*
X89369327Y-97599889D01*
X89374978Y-97619339D01*
X89378987Y-97638700D01*
X89381526Y-97658797D01*
X89384445Y-97666168D01*
X89384445Y-97666170D01*
X89397804Y-97699912D01*
X89401649Y-97711142D01*
X89413982Y-97753593D01*
X89418015Y-97760412D01*
X89418017Y-97760417D01*
X89424293Y-97771028D01*
X89432988Y-97788776D01*
X89440448Y-97807617D01*
X89445110Y-97814033D01*
X89445110Y-97814034D01*
X89466436Y-97843387D01*
X89472952Y-97853307D01*
X89483745Y-97871556D01*
X89495458Y-97891362D01*
X89509779Y-97905683D01*
X89522619Y-97920716D01*
X89534528Y-97937107D01*
X89540634Y-97942158D01*
X89568605Y-97965298D01*
X89577384Y-97973288D01*
X89630001Y-98025905D01*
X89664027Y-98088217D01*
X89658962Y-98159032D01*
X89630001Y-98204095D01*
X87715095Y-100119001D01*
X87652783Y-100153027D01*
X87581968Y-100147962D01*
X87525132Y-100105415D01*
X87500321Y-100038895D01*
X87500000Y-100029906D01*
X87500000Y-89391197D01*
X87500000Y-85253562D01*
X90070993Y-85253562D01*
X90080289Y-85265577D01*
X90131494Y-85301431D01*
X90140989Y-85306914D01*
X90338447Y-85398990D01*
X90348739Y-85402736D01*
X90559188Y-85459125D01*
X90569981Y-85461028D01*
X90787025Y-85480017D01*
X90797975Y-85480017D01*
X91015019Y-85461028D01*
X91025812Y-85459125D01*
X91236261Y-85402736D01*
X91246553Y-85398990D01*
X91444011Y-85306914D01*
X91453506Y-85301431D01*
X91505548Y-85264991D01*
X91513924Y-85254512D01*
X91506856Y-85241066D01*
X90805312Y-84539522D01*
X90791368Y-84531908D01*
X90789535Y-84532039D01*
X90782920Y-84536290D01*
X90077423Y-85241787D01*
X90070993Y-85253562D01*
X87500000Y-85253562D01*
X87500000Y-84172975D01*
X89479983Y-84172975D01*
X89498972Y-84390019D01*
X89500875Y-84400812D01*
X89557264Y-84611261D01*
X89561010Y-84621553D01*
X89653086Y-84819011D01*
X89658569Y-84828506D01*
X89695009Y-84880548D01*
X89705488Y-84888924D01*
X89718934Y-84881856D01*
X90420478Y-84180312D01*
X90426856Y-84168632D01*
X91156908Y-84168632D01*
X91157039Y-84170465D01*
X91161290Y-84177080D01*
X91866787Y-84882577D01*
X91878562Y-84889007D01*
X91890577Y-84879711D01*
X91926431Y-84828506D01*
X91931914Y-84819011D01*
X92023990Y-84621553D01*
X92027736Y-84611261D01*
X92084125Y-84400812D01*
X92086028Y-84390019D01*
X92105017Y-84172975D01*
X92105017Y-84162025D01*
X92086028Y-83944981D01*
X92084125Y-83934188D01*
X92027736Y-83723739D01*
X92023990Y-83713447D01*
X91931914Y-83515989D01*
X91926431Y-83506494D01*
X91889991Y-83454452D01*
X91879512Y-83446076D01*
X91866066Y-83453144D01*
X91164522Y-84154688D01*
X91156908Y-84168632D01*
X90426856Y-84168632D01*
X90428092Y-84166368D01*
X90427961Y-84164535D01*
X90423710Y-84157920D01*
X89718213Y-83452423D01*
X89706438Y-83445993D01*
X89694423Y-83455289D01*
X89658569Y-83506494D01*
X89653086Y-83515989D01*
X89561010Y-83713447D01*
X89557264Y-83723739D01*
X89500875Y-83934188D01*
X89498972Y-83944981D01*
X89479983Y-84162025D01*
X89479983Y-84172975D01*
X87500000Y-84172975D01*
X87500000Y-83080488D01*
X90071076Y-83080488D01*
X90078144Y-83093934D01*
X90779688Y-83795478D01*
X90793632Y-83803092D01*
X90795465Y-83802961D01*
X90802080Y-83798710D01*
X91507577Y-83093213D01*
X91514007Y-83081438D01*
X91504711Y-83069423D01*
X91453506Y-83033569D01*
X91444011Y-83028086D01*
X91246553Y-82936010D01*
X91236261Y-82932264D01*
X91025812Y-82875875D01*
X91015019Y-82873972D01*
X90797975Y-82854983D01*
X90787025Y-82854983D01*
X90569981Y-82873972D01*
X90559188Y-82875875D01*
X90348739Y-82932264D01*
X90338447Y-82936010D01*
X90140989Y-83028086D01*
X90131494Y-83033569D01*
X90079452Y-83070009D01*
X90071076Y-83080488D01*
X87500000Y-83080488D01*
X87499999Y-78917500D01*
X97529335Y-78917500D01*
X97547965Y-79154211D01*
X97549119Y-79159018D01*
X97549120Y-79159024D01*
X97561090Y-79208882D01*
X97603395Y-79385094D01*
X97605288Y-79389665D01*
X97605289Y-79389667D01*
X97635688Y-79463056D01*
X97694260Y-79604463D01*
X97696846Y-79608683D01*
X97815741Y-79802702D01*
X97815745Y-79802708D01*
X97818324Y-79806916D01*
X97972531Y-79987469D01*
X98153084Y-80141676D01*
X98157292Y-80144255D01*
X98157298Y-80144259D01*
X98242068Y-80196206D01*
X98355537Y-80265740D01*
X98360107Y-80267633D01*
X98360111Y-80267635D01*
X98570333Y-80354711D01*
X98574906Y-80356605D01*
X98611003Y-80365271D01*
X98800976Y-80410880D01*
X98800982Y-80410881D01*
X98805789Y-80412035D01*
X99042500Y-80430665D01*
X99279211Y-80412035D01*
X99284018Y-80410881D01*
X99284024Y-80410880D01*
X99473997Y-80365271D01*
X99510094Y-80356605D01*
X99514667Y-80354711D01*
X99724889Y-80267635D01*
X99724893Y-80267633D01*
X99729463Y-80265740D01*
X99842932Y-80196206D01*
X99927702Y-80144259D01*
X99927708Y-80144255D01*
X99931916Y-80141676D01*
X100112469Y-79987469D01*
X100266676Y-79806916D01*
X100269255Y-79802708D01*
X100269259Y-79802702D01*
X100388154Y-79608683D01*
X100390740Y-79604463D01*
X100449313Y-79463056D01*
X100479711Y-79389667D01*
X100479712Y-79389665D01*
X100481605Y-79385094D01*
X100523910Y-79208882D01*
X100535880Y-79159024D01*
X100535881Y-79159018D01*
X100537035Y-79154211D01*
X100555665Y-78917500D01*
X100537035Y-78680789D01*
X100533576Y-78666379D01*
X100482760Y-78454718D01*
X100481605Y-78449906D01*
X100425074Y-78313426D01*
X100392635Y-78235111D01*
X100392633Y-78235107D01*
X100390740Y-78230537D01*
X100343533Y-78153502D01*
X100269259Y-78032298D01*
X100269255Y-78032292D01*
X100266676Y-78028084D01*
X100112469Y-77847531D01*
X99931916Y-77693324D01*
X99927708Y-77690745D01*
X99927702Y-77690741D01*
X99733683Y-77571846D01*
X99729463Y-77569260D01*
X99724893Y-77567367D01*
X99724889Y-77567365D01*
X99514667Y-77480289D01*
X99514665Y-77480288D01*
X99510094Y-77478395D01*
X99429891Y-77459140D01*
X99284024Y-77424120D01*
X99284018Y-77424119D01*
X99279211Y-77422965D01*
X99042500Y-77404335D01*
X98805789Y-77422965D01*
X98800982Y-77424119D01*
X98800976Y-77424120D01*
X98655109Y-77459140D01*
X98574906Y-77478395D01*
X98570335Y-77480288D01*
X98570333Y-77480289D01*
X98360111Y-77567365D01*
X98360107Y-77567367D01*
X98355537Y-77569260D01*
X98351317Y-77571846D01*
X98157298Y-77690741D01*
X98157292Y-77690745D01*
X98153084Y-77693324D01*
X97972531Y-77847531D01*
X97818324Y-78028084D01*
X97815745Y-78032292D01*
X97815741Y-78032298D01*
X97741467Y-78153502D01*
X97694260Y-78230537D01*
X97692367Y-78235107D01*
X97692365Y-78235111D01*
X97659926Y-78313426D01*
X97603395Y-78449906D01*
X97602240Y-78454718D01*
X97551425Y-78666379D01*
X97547965Y-78680789D01*
X97529335Y-78917500D01*
X87499999Y-78917500D01*
X87499999Y-78734499D01*
X87520001Y-78666379D01*
X87573657Y-78619886D01*
X87625999Y-78608500D01*
X87951857Y-78608500D01*
X87968303Y-78609578D01*
X88000000Y-78613751D01*
X88008188Y-78612673D01*
X88039885Y-78608500D01*
X88150662Y-78593916D01*
X88158850Y-78592838D01*
X88306875Y-78531524D01*
X88370431Y-78482756D01*
X88427434Y-78439016D01*
X88427437Y-78439013D01*
X88433987Y-78433987D01*
X88531524Y-78306876D01*
X88561250Y-78235111D01*
X88589678Y-78166480D01*
X88589679Y-78166477D01*
X88592838Y-78158850D01*
X88597818Y-78121027D01*
X88612673Y-78008188D01*
X88613751Y-78000000D01*
X88609578Y-77968303D01*
X88608500Y-77951857D01*
X88608500Y-75792353D01*
X100282477Y-75792353D01*
X100287758Y-75799407D01*
X100449256Y-75893779D01*
X100458542Y-75898229D01*
X100657501Y-75974203D01*
X100667399Y-75977079D01*
X100876095Y-76019538D01*
X100886323Y-76020757D01*
X101099150Y-76028562D01*
X101109436Y-76028095D01*
X101320685Y-76001034D01*
X101330762Y-75998892D01*
X101534755Y-75937691D01*
X101544342Y-75933933D01*
X101735598Y-75840238D01*
X101744444Y-75834965D01*
X101791747Y-75801223D01*
X101800148Y-75790523D01*
X101793160Y-75777370D01*
X101055312Y-75039522D01*
X101041368Y-75031908D01*
X101039535Y-75032039D01*
X101032920Y-75036290D01*
X100289237Y-75779973D01*
X100282477Y-75792353D01*
X88608500Y-75792353D01*
X88608500Y-75253562D01*
X90070993Y-75253562D01*
X90080289Y-75265577D01*
X90131494Y-75301431D01*
X90140989Y-75306914D01*
X90338447Y-75398990D01*
X90348739Y-75402736D01*
X90559188Y-75459125D01*
X90569981Y-75461028D01*
X90787025Y-75480017D01*
X90797975Y-75480017D01*
X91015019Y-75461028D01*
X91025812Y-75459125D01*
X91236261Y-75402736D01*
X91246553Y-75398990D01*
X91444011Y-75306914D01*
X91453506Y-75301431D01*
X91505548Y-75264991D01*
X91513924Y-75254512D01*
X91506856Y-75241066D01*
X90805312Y-74539522D01*
X90791368Y-74531908D01*
X90789535Y-74532039D01*
X90782920Y-74536290D01*
X90077423Y-75241787D01*
X90070993Y-75253562D01*
X88608500Y-75253562D01*
X88608500Y-74172975D01*
X89479983Y-74172975D01*
X89498972Y-74390019D01*
X89500875Y-74400812D01*
X89557264Y-74611261D01*
X89561010Y-74621553D01*
X89653086Y-74819011D01*
X89658569Y-74828506D01*
X89695009Y-74880548D01*
X89705488Y-74888924D01*
X89718934Y-74881856D01*
X90420478Y-74180312D01*
X90426856Y-74168632D01*
X91156908Y-74168632D01*
X91157039Y-74170465D01*
X91161290Y-74177080D01*
X91866787Y-74882577D01*
X91878562Y-74889007D01*
X91890577Y-74879711D01*
X91926431Y-74828506D01*
X91931914Y-74819011D01*
X92023990Y-74621553D01*
X92027736Y-74611261D01*
X92084125Y-74400812D01*
X92086028Y-74390019D01*
X92105017Y-74172975D01*
X92105017Y-74167500D01*
X94479002Y-74167500D01*
X94498957Y-74395587D01*
X94500381Y-74400900D01*
X94500381Y-74400902D01*
X94537525Y-74539522D01*
X94558216Y-74616743D01*
X94560539Y-74621724D01*
X94560539Y-74621725D01*
X94652651Y-74819262D01*
X94652654Y-74819267D01*
X94654977Y-74824249D01*
X94678060Y-74857215D01*
X94746929Y-74955569D01*
X94786302Y-75011800D01*
X94948200Y-75173698D01*
X94952708Y-75176855D01*
X94952711Y-75176857D01*
X95030889Y-75231598D01*
X95135751Y-75305023D01*
X95140733Y-75307346D01*
X95140738Y-75307349D01*
X95274188Y-75369577D01*
X95343257Y-75401784D01*
X95348565Y-75403206D01*
X95348567Y-75403207D01*
X95559098Y-75459619D01*
X95559100Y-75459619D01*
X95564413Y-75461043D01*
X95792500Y-75480998D01*
X96020587Y-75461043D01*
X96025900Y-75459619D01*
X96025902Y-75459619D01*
X96236433Y-75403207D01*
X96236435Y-75403206D01*
X96241743Y-75401784D01*
X96310812Y-75369577D01*
X96444262Y-75307349D01*
X96444267Y-75307346D01*
X96449249Y-75305023D01*
X96554111Y-75231598D01*
X96632289Y-75176857D01*
X96632292Y-75176855D01*
X96636800Y-75173698D01*
X96798698Y-75011800D01*
X96838072Y-74955569D01*
X96906940Y-74857215D01*
X96930023Y-74824249D01*
X96932346Y-74819267D01*
X96932349Y-74819262D01*
X97024461Y-74621725D01*
X97024461Y-74621724D01*
X97026784Y-74616743D01*
X97047476Y-74539522D01*
X97084619Y-74400902D01*
X97084619Y-74400900D01*
X97086043Y-74395587D01*
X97105998Y-74167500D01*
X97086043Y-73939413D01*
X97078618Y-73911703D01*
X97028207Y-73723567D01*
X97028206Y-73723565D01*
X97026784Y-73718257D01*
X97024461Y-73713275D01*
X96932349Y-73515738D01*
X96932346Y-73515733D01*
X96930023Y-73510751D01*
X96818710Y-73351780D01*
X96801857Y-73327711D01*
X96801855Y-73327708D01*
X96798698Y-73323200D01*
X96636800Y-73161302D01*
X96632292Y-73158145D01*
X96632289Y-73158143D01*
X96506420Y-73070009D01*
X96449249Y-73029977D01*
X96444267Y-73027654D01*
X96444262Y-73027651D01*
X96246725Y-72935539D01*
X96246724Y-72935539D01*
X96241743Y-72933216D01*
X96236435Y-72931794D01*
X96236433Y-72931793D01*
X96183091Y-72917500D01*
X97529335Y-72917500D01*
X97547965Y-73154211D01*
X97549119Y-73159018D01*
X97549120Y-73159024D01*
X97560394Y-73205981D01*
X97603395Y-73385094D01*
X97605288Y-73389665D01*
X97605289Y-73389667D01*
X97664286Y-73532098D01*
X97694260Y-73604463D01*
X97696846Y-73608683D01*
X97815741Y-73802702D01*
X97815745Y-73802708D01*
X97818324Y-73806916D01*
X97972531Y-73987469D01*
X97976287Y-73990677D01*
X97985886Y-73998875D01*
X98153084Y-74141676D01*
X98157292Y-74144255D01*
X98157298Y-74144259D01*
X98286810Y-74223624D01*
X98355537Y-74265740D01*
X98360107Y-74267633D01*
X98360111Y-74267635D01*
X98570333Y-74354711D01*
X98574906Y-74356605D01*
X98653205Y-74375403D01*
X98800976Y-74410880D01*
X98800982Y-74410881D01*
X98805789Y-74412035D01*
X99042500Y-74430665D01*
X99279211Y-74412035D01*
X99284018Y-74410881D01*
X99284024Y-74410880D01*
X99431795Y-74375403D01*
X99510094Y-74356605D01*
X99523123Y-74351208D01*
X99593714Y-74343622D01*
X99657200Y-74375403D01*
X99693425Y-74436463D01*
X99696625Y-74481008D01*
X99680802Y-74629074D01*
X99680550Y-74639363D01*
X99692809Y-74851977D01*
X99694245Y-74862197D01*
X99741065Y-75069946D01*
X99744145Y-75079775D01*
X99824270Y-75277103D01*
X99828913Y-75286294D01*
X99908960Y-75416920D01*
X99919416Y-75426380D01*
X99928194Y-75422596D01*
X100682158Y-74668632D01*
X101406908Y-74668632D01*
X101407039Y-74670465D01*
X101411290Y-74677080D01*
X102152974Y-75418764D01*
X102164984Y-75425323D01*
X102176723Y-75416355D01*
X102207504Y-75373519D01*
X102212815Y-75364680D01*
X102307170Y-75173767D01*
X102310969Y-75164172D01*
X102372876Y-74960415D01*
X102375055Y-74950334D01*
X102403090Y-74737387D01*
X102403609Y-74730712D01*
X102405072Y-74670864D01*
X102404878Y-74664146D01*
X102402416Y-74634195D01*
X103679751Y-74634195D01*
X103680048Y-74639348D01*
X103680048Y-74639351D01*
X103685511Y-74734090D01*
X103692610Y-74857215D01*
X103693747Y-74862261D01*
X103693748Y-74862267D01*
X103713619Y-74950439D01*
X103741722Y-75075139D01*
X103781846Y-75173953D01*
X103814172Y-75253562D01*
X103825766Y-75282116D01*
X103840962Y-75306914D01*
X103935706Y-75461522D01*
X103942487Y-75472588D01*
X104088750Y-75641438D01*
X104260626Y-75784132D01*
X104453500Y-75896838D01*
X104458325Y-75898680D01*
X104458326Y-75898681D01*
X104531112Y-75926475D01*
X104662192Y-75976530D01*
X104667260Y-75977561D01*
X104667263Y-75977562D01*
X104772104Y-75998892D01*
X104881097Y-76021067D01*
X104886272Y-76021257D01*
X104886274Y-76021257D01*
X105099173Y-76029064D01*
X105099177Y-76029064D01*
X105104337Y-76029253D01*
X105109457Y-76028597D01*
X105109459Y-76028597D01*
X105320788Y-76001525D01*
X105320789Y-76001525D01*
X105325916Y-76000868D01*
X105330867Y-75999383D01*
X105330870Y-75999382D01*
X105372329Y-75986944D01*
X105443325Y-75986528D01*
X105497631Y-76018535D01*
X107371348Y-77892253D01*
X107378888Y-77900539D01*
X107383000Y-77907018D01*
X107388777Y-77912443D01*
X107432651Y-77953643D01*
X107435493Y-77956398D01*
X107455230Y-77976135D01*
X107458427Y-77978615D01*
X107467447Y-77986318D01*
X107499679Y-78016586D01*
X107506625Y-78020405D01*
X107506628Y-78020407D01*
X107517434Y-78026348D01*
X107533953Y-78037199D01*
X107549959Y-78049614D01*
X107557228Y-78052759D01*
X107557232Y-78052762D01*
X107590537Y-78067174D01*
X107601187Y-78072391D01*
X107639940Y-78093695D01*
X107647615Y-78095666D01*
X107647616Y-78095666D01*
X107659562Y-78098733D01*
X107678267Y-78105137D01*
X107696855Y-78113181D01*
X107704678Y-78114420D01*
X107704688Y-78114423D01*
X107740524Y-78120099D01*
X107752144Y-78122505D01*
X107787289Y-78131528D01*
X107794970Y-78133500D01*
X107815224Y-78133500D01*
X107834934Y-78135051D01*
X107854943Y-78138220D01*
X107862835Y-78137474D01*
X107898961Y-78134059D01*
X107910819Y-78133500D01*
X109545882Y-78133500D01*
X109614003Y-78153502D01*
X109660496Y-78207158D01*
X109670600Y-78277432D01*
X109662291Y-78307717D01*
X109603395Y-78449906D01*
X109602240Y-78454718D01*
X109551425Y-78666379D01*
X109547965Y-78680789D01*
X109529335Y-78917500D01*
X109547965Y-79154211D01*
X109549119Y-79159018D01*
X109549120Y-79159024D01*
X109561090Y-79208882D01*
X109603395Y-79385094D01*
X109605288Y-79389665D01*
X109605289Y-79389667D01*
X109635688Y-79463056D01*
X109694260Y-79604463D01*
X109696846Y-79608683D01*
X109815741Y-79802702D01*
X109815745Y-79802708D01*
X109818324Y-79806916D01*
X109972531Y-79987469D01*
X110153084Y-80141676D01*
X110157292Y-80144255D01*
X110157298Y-80144259D01*
X110242068Y-80196206D01*
X110355537Y-80265740D01*
X110360107Y-80267633D01*
X110360111Y-80267635D01*
X110570333Y-80354711D01*
X110574906Y-80356605D01*
X110611003Y-80365271D01*
X110800976Y-80410880D01*
X110800982Y-80410881D01*
X110805789Y-80412035D01*
X111042500Y-80430665D01*
X111279211Y-80412035D01*
X111284018Y-80410881D01*
X111284024Y-80410880D01*
X111473997Y-80365271D01*
X111510094Y-80356605D01*
X111514667Y-80354711D01*
X111724889Y-80267635D01*
X111724893Y-80267633D01*
X111729463Y-80265740D01*
X111842932Y-80196206D01*
X111927702Y-80144259D01*
X111927708Y-80144255D01*
X111931916Y-80141676D01*
X112112469Y-79987469D01*
X112266676Y-79806916D01*
X112269255Y-79802708D01*
X112269259Y-79802702D01*
X112388154Y-79608683D01*
X112390740Y-79604463D01*
X112449313Y-79463056D01*
X112479711Y-79389667D01*
X112479712Y-79389665D01*
X112481605Y-79385094D01*
X112523910Y-79208882D01*
X112535880Y-79159024D01*
X112535881Y-79159018D01*
X112537035Y-79154211D01*
X112555665Y-78917500D01*
X112537035Y-78680789D01*
X112533576Y-78666379D01*
X112482760Y-78454718D01*
X112481605Y-78449906D01*
X112425074Y-78313426D01*
X112392635Y-78235111D01*
X112392633Y-78235107D01*
X112390740Y-78230537D01*
X112343533Y-78153502D01*
X112269259Y-78032298D01*
X112269255Y-78032292D01*
X112266676Y-78028084D01*
X112112469Y-77847531D01*
X111931916Y-77693324D01*
X111927708Y-77690745D01*
X111927702Y-77690741D01*
X111733683Y-77571846D01*
X111729463Y-77569260D01*
X111724893Y-77567367D01*
X111724889Y-77567365D01*
X111514667Y-77480289D01*
X111514665Y-77480288D01*
X111510094Y-77478395D01*
X111429891Y-77459140D01*
X111284024Y-77424120D01*
X111284018Y-77424119D01*
X111279211Y-77422965D01*
X111274280Y-77422577D01*
X111274268Y-77422575D01*
X111267751Y-77422062D01*
X111201411Y-77396774D01*
X111159274Y-77339634D01*
X111154718Y-77268784D01*
X111188548Y-77207356D01*
X117892247Y-70503657D01*
X117900537Y-70496113D01*
X117907018Y-70492000D01*
X117953659Y-70442332D01*
X117956413Y-70439491D01*
X117976135Y-70419769D01*
X117978619Y-70416567D01*
X117986317Y-70407555D01*
X118011161Y-70381098D01*
X118016586Y-70375321D01*
X118026347Y-70357566D01*
X118037198Y-70341047D01*
X118049614Y-70325041D01*
X118052764Y-70317762D01*
X118067174Y-70284463D01*
X118072391Y-70273813D01*
X118093695Y-70235060D01*
X118098733Y-70215437D01*
X118105137Y-70196734D01*
X118110033Y-70185420D01*
X118110033Y-70185419D01*
X118113181Y-70178145D01*
X118114420Y-70170322D01*
X118114423Y-70170312D01*
X118120099Y-70134476D01*
X118122505Y-70122856D01*
X118131528Y-70087711D01*
X118131528Y-70087710D01*
X118133500Y-70080030D01*
X118133500Y-70059776D01*
X118135051Y-70040065D01*
X118136980Y-70027886D01*
X118138220Y-70020057D01*
X118134059Y-69976038D01*
X118133500Y-69964181D01*
X118133500Y-68561812D01*
X118153502Y-68493691D01*
X118187229Y-68458599D01*
X118331659Y-68357468D01*
X118331662Y-68357466D01*
X118336170Y-68354309D01*
X118496509Y-68193970D01*
X118626569Y-68008225D01*
X118628892Y-68003243D01*
X118628895Y-68003238D01*
X118720076Y-67807699D01*
X118720077Y-67807698D01*
X118722399Y-67802717D01*
X118776414Y-67601132D01*
X118779663Y-67589005D01*
X118779663Y-67589003D01*
X118781087Y-67583690D01*
X118800850Y-67357800D01*
X118781087Y-67131910D01*
X118764239Y-67069031D01*
X118723822Y-66918193D01*
X118723821Y-66918191D01*
X118722399Y-66912883D01*
X118688233Y-66839613D01*
X118628895Y-66712362D01*
X118628892Y-66712357D01*
X118626569Y-66707375D01*
X118603167Y-66673953D01*
X118499668Y-66526141D01*
X118499666Y-66526138D01*
X118496509Y-66521630D01*
X118336170Y-66361291D01*
X118331662Y-66358134D01*
X118331659Y-66358132D01*
X118154934Y-66234388D01*
X118154932Y-66234387D01*
X118150425Y-66231231D01*
X118145443Y-66228908D01*
X118145438Y-66228905D01*
X117949899Y-66137724D01*
X117949898Y-66137723D01*
X117944917Y-66135401D01*
X117939609Y-66133979D01*
X117939607Y-66133978D01*
X117731205Y-66078137D01*
X117731203Y-66078137D01*
X117725890Y-66076713D01*
X117500000Y-66056950D01*
X117274110Y-66076713D01*
X117268797Y-66078137D01*
X117268795Y-66078137D01*
X117060393Y-66133978D01*
X117060391Y-66133979D01*
X117055083Y-66135401D01*
X117050102Y-66137723D01*
X117050101Y-66137724D01*
X116854562Y-66228905D01*
X116854557Y-66228908D01*
X116849575Y-66231231D01*
X116845068Y-66234387D01*
X116845066Y-66234388D01*
X116668341Y-66358132D01*
X116668338Y-66358134D01*
X116663830Y-66361291D01*
X116503491Y-66521630D01*
X116500334Y-66526138D01*
X116500332Y-66526141D01*
X116396833Y-66673953D01*
X116373431Y-66707375D01*
X116371108Y-66712357D01*
X116371105Y-66712362D01*
X116311767Y-66839613D01*
X116277601Y-66912883D01*
X116276179Y-66918191D01*
X116276178Y-66918193D01*
X116235761Y-67069031D01*
X116218913Y-67131910D01*
X116199150Y-67357800D01*
X116218913Y-67583690D01*
X116220337Y-67589003D01*
X116220337Y-67589005D01*
X116223587Y-67601132D01*
X116277601Y-67802717D01*
X116279923Y-67807698D01*
X116279924Y-67807699D01*
X116371105Y-68003238D01*
X116371108Y-68003243D01*
X116373431Y-68008225D01*
X116503491Y-68193970D01*
X116663830Y-68354309D01*
X116668338Y-68357466D01*
X116668341Y-68357468D01*
X116812771Y-68458599D01*
X116857099Y-68514056D01*
X116866500Y-68561812D01*
X116866500Y-69685406D01*
X116846498Y-69753527D01*
X116829595Y-69774501D01*
X109774500Y-76829595D01*
X109712188Y-76863621D01*
X109685405Y-76866500D01*
X108189594Y-76866500D01*
X108121473Y-76846498D01*
X108100499Y-76829595D01*
X106393718Y-75122813D01*
X106359692Y-75060501D01*
X106362255Y-74997089D01*
X106373365Y-74960522D01*
X106374870Y-74955569D01*
X106404029Y-74734090D01*
X106405656Y-74667500D01*
X106402918Y-74634195D01*
X107679751Y-74634195D01*
X107680048Y-74639348D01*
X107680048Y-74639351D01*
X107685511Y-74734090D01*
X107692610Y-74857215D01*
X107693747Y-74862261D01*
X107693748Y-74862267D01*
X107713619Y-74950439D01*
X107741722Y-75075139D01*
X107781846Y-75173953D01*
X107814172Y-75253562D01*
X107825766Y-75282116D01*
X107840962Y-75306914D01*
X107935706Y-75461522D01*
X107942487Y-75472588D01*
X108088750Y-75641438D01*
X108260626Y-75784132D01*
X108453500Y-75896838D01*
X108458325Y-75898680D01*
X108458326Y-75898681D01*
X108531112Y-75926475D01*
X108662192Y-75976530D01*
X108667260Y-75977561D01*
X108667263Y-75977562D01*
X108772104Y-75998892D01*
X108881097Y-76021067D01*
X108886272Y-76021257D01*
X108886274Y-76021257D01*
X109099173Y-76029064D01*
X109099177Y-76029064D01*
X109104337Y-76029253D01*
X109109457Y-76028597D01*
X109109459Y-76028597D01*
X109320788Y-76001525D01*
X109320789Y-76001525D01*
X109325916Y-76000868D01*
X109330869Y-75999382D01*
X109534929Y-75938161D01*
X109534934Y-75938159D01*
X109539884Y-75936674D01*
X109740494Y-75838396D01*
X109922360Y-75708673D01*
X110080596Y-75550989D01*
X110117595Y-75499500D01*
X110207935Y-75373777D01*
X110210953Y-75369577D01*
X110213374Y-75364680D01*
X110307636Y-75173953D01*
X110307637Y-75173951D01*
X110309930Y-75169311D01*
X110374870Y-74955569D01*
X110404029Y-74734090D01*
X110405656Y-74667500D01*
X110397514Y-74568460D01*
X110390142Y-74478794D01*
X110404495Y-74409263D01*
X110454161Y-74358530D01*
X110523371Y-74342703D01*
X110563934Y-74352060D01*
X110574906Y-74356605D01*
X110653205Y-74375403D01*
X110800976Y-74410880D01*
X110800982Y-74410881D01*
X110805789Y-74412035D01*
X111042500Y-74430665D01*
X111279211Y-74412035D01*
X111284018Y-74410881D01*
X111284024Y-74410880D01*
X111431795Y-74375403D01*
X111510094Y-74356605D01*
X111514667Y-74354711D01*
X111724889Y-74267635D01*
X111724893Y-74267633D01*
X111729463Y-74265740D01*
X111798190Y-74223624D01*
X111927702Y-74144259D01*
X111927708Y-74144255D01*
X111931916Y-74141676D01*
X112099114Y-73998875D01*
X112108713Y-73990677D01*
X112112469Y-73987469D01*
X112266676Y-73806916D01*
X112269255Y-73802708D01*
X112269259Y-73802702D01*
X112388154Y-73608683D01*
X112390740Y-73604463D01*
X112420715Y-73532098D01*
X112479711Y-73389667D01*
X112479712Y-73389665D01*
X112481605Y-73385094D01*
X112524606Y-73205981D01*
X112535880Y-73159024D01*
X112535881Y-73159018D01*
X112537035Y-73154211D01*
X112555665Y-72917500D01*
X112537035Y-72680789D01*
X112481605Y-72449906D01*
X112390740Y-72230537D01*
X112388154Y-72226317D01*
X112269259Y-72032298D01*
X112269255Y-72032292D01*
X112266676Y-72028084D01*
X112112469Y-71847531D01*
X111931916Y-71693324D01*
X111927708Y-71690745D01*
X111927702Y-71690741D01*
X111733683Y-71571846D01*
X111729463Y-71569260D01*
X111724893Y-71567367D01*
X111724889Y-71567365D01*
X111514667Y-71480289D01*
X111514665Y-71480288D01*
X111510094Y-71478395D01*
X111429891Y-71459140D01*
X111284024Y-71424120D01*
X111284018Y-71424119D01*
X111279211Y-71422965D01*
X111042500Y-71404335D01*
X110805789Y-71422965D01*
X110800982Y-71424119D01*
X110800976Y-71424120D01*
X110655109Y-71459140D01*
X110574906Y-71478395D01*
X110570335Y-71480288D01*
X110570333Y-71480289D01*
X110360111Y-71567365D01*
X110360107Y-71567367D01*
X110355537Y-71569260D01*
X110351317Y-71571846D01*
X110157298Y-71690741D01*
X110157292Y-71690745D01*
X110153084Y-71693324D01*
X109972531Y-71847531D01*
X109818324Y-72028084D01*
X109815745Y-72032292D01*
X109815741Y-72032298D01*
X109696846Y-72226317D01*
X109694260Y-72230537D01*
X109603395Y-72449906D01*
X109547965Y-72680789D01*
X109529335Y-72917500D01*
X109547965Y-73154211D01*
X109549121Y-73159024D01*
X109549121Y-73159027D01*
X109559661Y-73202931D01*
X109556113Y-73273839D01*
X109514793Y-73331572D01*
X109448820Y-73357802D01*
X109400799Y-73351826D01*
X109400590Y-73352617D01*
X109395586Y-73351295D01*
X109390712Y-73349569D01*
X109385619Y-73348662D01*
X109385616Y-73348661D01*
X109175873Y-73311300D01*
X109175867Y-73311299D01*
X109170784Y-73310394D01*
X109096952Y-73309492D01*
X108952581Y-73307728D01*
X108952579Y-73307728D01*
X108947411Y-73307665D01*
X108726591Y-73341455D01*
X108514256Y-73410857D01*
X108463615Y-73437219D01*
X108322362Y-73510751D01*
X108316107Y-73514007D01*
X108311974Y-73517110D01*
X108311971Y-73517112D01*
X108141600Y-73645030D01*
X108137465Y-73648135D01*
X108133893Y-73651873D01*
X107989385Y-73803092D01*
X107983129Y-73809638D01*
X107980215Y-73813910D01*
X107980214Y-73813911D01*
X107915011Y-73909495D01*
X107857243Y-73994180D01*
X107836121Y-74039684D01*
X107770844Y-74180312D01*
X107763188Y-74196805D01*
X107703489Y-74412070D01*
X107679751Y-74634195D01*
X106402918Y-74634195D01*
X106387352Y-74444861D01*
X106332931Y-74228202D01*
X106243854Y-74023340D01*
X106170204Y-73909495D01*
X106125322Y-73840117D01*
X106125320Y-73840114D01*
X106122514Y-73835777D01*
X105972170Y-73670551D01*
X105968119Y-73667352D01*
X105968115Y-73667348D01*
X105800914Y-73535300D01*
X105800910Y-73535298D01*
X105796859Y-73532098D01*
X105767678Y-73515989D01*
X105657719Y-73455289D01*
X105601289Y-73424138D01*
X105596420Y-73422414D01*
X105596416Y-73422412D01*
X105395587Y-73351295D01*
X105395583Y-73351294D01*
X105390712Y-73349569D01*
X105385619Y-73348662D01*
X105385616Y-73348661D01*
X105175873Y-73311300D01*
X105175867Y-73311299D01*
X105170784Y-73310394D01*
X105096952Y-73309492D01*
X104952581Y-73307728D01*
X104952579Y-73307728D01*
X104947411Y-73307665D01*
X104726591Y-73341455D01*
X104514256Y-73410857D01*
X104463615Y-73437219D01*
X104322362Y-73510751D01*
X104316107Y-73514007D01*
X104311974Y-73517110D01*
X104311971Y-73517112D01*
X104141600Y-73645030D01*
X104137465Y-73648135D01*
X104133893Y-73651873D01*
X103989385Y-73803092D01*
X103983129Y-73809638D01*
X103980215Y-73813910D01*
X103980214Y-73813911D01*
X103915011Y-73909495D01*
X103857243Y-73994180D01*
X103836121Y-74039684D01*
X103770844Y-74180312D01*
X103763188Y-74196805D01*
X103703489Y-74412070D01*
X103679751Y-74634195D01*
X102402416Y-74634195D01*
X102387281Y-74450104D01*
X102385596Y-74439924D01*
X102333714Y-74233375D01*
X102330394Y-74223624D01*
X102245472Y-74028314D01*
X102240605Y-74019239D01*
X102175563Y-73918697D01*
X102164877Y-73909495D01*
X102155312Y-73913898D01*
X101414522Y-74654688D01*
X101406908Y-74668632D01*
X100682158Y-74668632D01*
X101795889Y-73554901D01*
X101802910Y-73542044D01*
X101796111Y-73532713D01*
X101792054Y-73530018D01*
X101605617Y-73427099D01*
X101596205Y-73422869D01*
X101395459Y-73351780D01*
X101385489Y-73349146D01*
X101175827Y-73311801D01*
X101165573Y-73310831D01*
X100952616Y-73308228D01*
X100942332Y-73308948D01*
X100731821Y-73341161D01*
X100721793Y-73343550D01*
X100686270Y-73355160D01*
X100615306Y-73357311D01*
X100554444Y-73320755D01*
X100523008Y-73257097D01*
X100524606Y-73205981D01*
X100535880Y-73159024D01*
X100535881Y-73159018D01*
X100537035Y-73154211D01*
X100555665Y-72917500D01*
X100537035Y-72680789D01*
X100481605Y-72449906D01*
X100390740Y-72230537D01*
X100388154Y-72226317D01*
X100269259Y-72032298D01*
X100269255Y-72032292D01*
X100266676Y-72028084D01*
X100112469Y-71847531D01*
X99931916Y-71693324D01*
X99927708Y-71690745D01*
X99927702Y-71690741D01*
X99733683Y-71571846D01*
X99729463Y-71569260D01*
X99724893Y-71567367D01*
X99724889Y-71567365D01*
X99514667Y-71480289D01*
X99514665Y-71480288D01*
X99510094Y-71478395D01*
X99429891Y-71459140D01*
X99284024Y-71424120D01*
X99284018Y-71424119D01*
X99279211Y-71422965D01*
X99042500Y-71404335D01*
X98805789Y-71422965D01*
X98800982Y-71424119D01*
X98800976Y-71424120D01*
X98655109Y-71459140D01*
X98574906Y-71478395D01*
X98570335Y-71480288D01*
X98570333Y-71480289D01*
X98360111Y-71567365D01*
X98360107Y-71567367D01*
X98355537Y-71569260D01*
X98351317Y-71571846D01*
X98157298Y-71690741D01*
X98157292Y-71690745D01*
X98153084Y-71693324D01*
X97972531Y-71847531D01*
X97818324Y-72028084D01*
X97815745Y-72032292D01*
X97815741Y-72032298D01*
X97696846Y-72226317D01*
X97694260Y-72230537D01*
X97603395Y-72449906D01*
X97547965Y-72680789D01*
X97529335Y-72917500D01*
X96183091Y-72917500D01*
X96025902Y-72875381D01*
X96025900Y-72875381D01*
X96020587Y-72873957D01*
X95792500Y-72854002D01*
X95564413Y-72873957D01*
X95559100Y-72875381D01*
X95559098Y-72875381D01*
X95348567Y-72931793D01*
X95348565Y-72931794D01*
X95343257Y-72933216D01*
X95338276Y-72935539D01*
X95338275Y-72935539D01*
X95140738Y-73027651D01*
X95140733Y-73027654D01*
X95135751Y-73029977D01*
X95078580Y-73070009D01*
X94952711Y-73158143D01*
X94952708Y-73158145D01*
X94948200Y-73161302D01*
X94786302Y-73323200D01*
X94783145Y-73327708D01*
X94783143Y-73327711D01*
X94766290Y-73351780D01*
X94654977Y-73510751D01*
X94652654Y-73515733D01*
X94652651Y-73515738D01*
X94560539Y-73713275D01*
X94558216Y-73718257D01*
X94556794Y-73723565D01*
X94556793Y-73723567D01*
X94506382Y-73911703D01*
X94498957Y-73939413D01*
X94479002Y-74167500D01*
X92105017Y-74167500D01*
X92105017Y-74162025D01*
X92086028Y-73944981D01*
X92084125Y-73934188D01*
X92027736Y-73723739D01*
X92023990Y-73713447D01*
X91931914Y-73515989D01*
X91926431Y-73506494D01*
X91889991Y-73454452D01*
X91879512Y-73446076D01*
X91866066Y-73453144D01*
X91164522Y-74154688D01*
X91156908Y-74168632D01*
X90426856Y-74168632D01*
X90428092Y-74166368D01*
X90427961Y-74164535D01*
X90423710Y-74157920D01*
X89718213Y-73452423D01*
X89706438Y-73445993D01*
X89694423Y-73455289D01*
X89658569Y-73506494D01*
X89653086Y-73515989D01*
X89561010Y-73713447D01*
X89557264Y-73723739D01*
X89500875Y-73934188D01*
X89498972Y-73944981D01*
X89479983Y-74162025D01*
X89479983Y-74172975D01*
X88608500Y-74172975D01*
X88608500Y-73080488D01*
X90071076Y-73080488D01*
X90078144Y-73093934D01*
X90779688Y-73795478D01*
X90793632Y-73803092D01*
X90795465Y-73802961D01*
X90802080Y-73798710D01*
X91507577Y-73093213D01*
X91514007Y-73081438D01*
X91504711Y-73069423D01*
X91453506Y-73033569D01*
X91444011Y-73028086D01*
X91246553Y-72936010D01*
X91236261Y-72932264D01*
X91025812Y-72875875D01*
X91015019Y-72873972D01*
X90797975Y-72854983D01*
X90787025Y-72854983D01*
X90569981Y-72873972D01*
X90559188Y-72875875D01*
X90348739Y-72932264D01*
X90338447Y-72936010D01*
X90140989Y-73028086D01*
X90131494Y-73033569D01*
X90079452Y-73070009D01*
X90071076Y-73080488D01*
X88608500Y-73080488D01*
X88608500Y-70753562D01*
X99198493Y-70753562D01*
X99207789Y-70765577D01*
X99258994Y-70801431D01*
X99268489Y-70806914D01*
X99465947Y-70898990D01*
X99476239Y-70902736D01*
X99686688Y-70959125D01*
X99697481Y-70961028D01*
X99914525Y-70980017D01*
X99925475Y-70980017D01*
X100142519Y-70961028D01*
X100153312Y-70959125D01*
X100363761Y-70902736D01*
X100374053Y-70898990D01*
X100571511Y-70806914D01*
X100581006Y-70801431D01*
X100633048Y-70764991D01*
X100641424Y-70754512D01*
X100634356Y-70741066D01*
X99932812Y-70039522D01*
X99918868Y-70031908D01*
X99917035Y-70032039D01*
X99910420Y-70036290D01*
X99204923Y-70741787D01*
X99198493Y-70753562D01*
X88608500Y-70753562D01*
X88608500Y-69672975D01*
X98607483Y-69672975D01*
X98626472Y-69890019D01*
X98628375Y-69900812D01*
X98684764Y-70111261D01*
X98688510Y-70121553D01*
X98780586Y-70319011D01*
X98786069Y-70328506D01*
X98822509Y-70380548D01*
X98832988Y-70388924D01*
X98846434Y-70381856D01*
X99547978Y-69680312D01*
X99554356Y-69668632D01*
X100284408Y-69668632D01*
X100284539Y-69670465D01*
X100288790Y-69677080D01*
X100994287Y-70382577D01*
X101006062Y-70389007D01*
X101018077Y-70379711D01*
X101053931Y-70328506D01*
X101059414Y-70319011D01*
X101151490Y-70121553D01*
X101155236Y-70111261D01*
X101211625Y-69900812D01*
X101213528Y-69890019D01*
X101232517Y-69672975D01*
X101232517Y-69662025D01*
X101213528Y-69444981D01*
X101211625Y-69434188D01*
X101155236Y-69223739D01*
X101151490Y-69213447D01*
X101059414Y-69015989D01*
X101053931Y-69006494D01*
X101017491Y-68954452D01*
X101007012Y-68946076D01*
X100993566Y-68953144D01*
X100292022Y-69654688D01*
X100284408Y-69668632D01*
X99554356Y-69668632D01*
X99555592Y-69666368D01*
X99555461Y-69664535D01*
X99551210Y-69657920D01*
X98845713Y-68952423D01*
X98833938Y-68945993D01*
X98821923Y-68955289D01*
X98786069Y-69006494D01*
X98780586Y-69015989D01*
X98688510Y-69213447D01*
X98684764Y-69223739D01*
X98628375Y-69434188D01*
X98626472Y-69444981D01*
X98607483Y-69662025D01*
X98607483Y-69672975D01*
X88608500Y-69672975D01*
X88608500Y-68580488D01*
X99198576Y-68580488D01*
X99205644Y-68593934D01*
X99907188Y-69295478D01*
X99921132Y-69303092D01*
X99922965Y-69302961D01*
X99929580Y-69298710D01*
X100635077Y-68593213D01*
X100641507Y-68581438D01*
X100632211Y-68569423D01*
X100581006Y-68533569D01*
X100571511Y-68528086D01*
X100374053Y-68436010D01*
X100363761Y-68432264D01*
X100153312Y-68375875D01*
X100142519Y-68373972D01*
X99925475Y-68354983D01*
X99914525Y-68354983D01*
X99697481Y-68373972D01*
X99686688Y-68375875D01*
X99476239Y-68432264D01*
X99465947Y-68436010D01*
X99268489Y-68528086D01*
X99258994Y-68533569D01*
X99206952Y-68570009D01*
X99198576Y-68580488D01*
X88608500Y-68580488D01*
X88608500Y-67065634D01*
X90641500Y-67065634D01*
X90648255Y-67127816D01*
X90699385Y-67264205D01*
X90786739Y-67380761D01*
X90903295Y-67468115D01*
X91039684Y-67519245D01*
X91101866Y-67526000D01*
X92898134Y-67526000D01*
X92960316Y-67519245D01*
X93096705Y-67468115D01*
X93213261Y-67380761D01*
X93300615Y-67264205D01*
X93330227Y-67185215D01*
X93344598Y-67146882D01*
X93387240Y-67090118D01*
X93453802Y-67065418D01*
X93523150Y-67080626D01*
X93557817Y-67108614D01*
X93586250Y-67141438D01*
X93758126Y-67284132D01*
X93951000Y-67396838D01*
X94159692Y-67476530D01*
X94164760Y-67477561D01*
X94164763Y-67477562D01*
X94272017Y-67499383D01*
X94378597Y-67521067D01*
X94383772Y-67521257D01*
X94383774Y-67521257D01*
X94596673Y-67529064D01*
X94596677Y-67529064D01*
X94601837Y-67529253D01*
X94606957Y-67528597D01*
X94606959Y-67528597D01*
X94818288Y-67501525D01*
X94818289Y-67501525D01*
X94823416Y-67500868D01*
X94828366Y-67499383D01*
X95032429Y-67438161D01*
X95032434Y-67438159D01*
X95037384Y-67436674D01*
X95237994Y-67338396D01*
X95419860Y-67208673D01*
X95578096Y-67050989D01*
X95708453Y-66869577D01*
X95807430Y-66669311D01*
X95872370Y-66455569D01*
X95901529Y-66234090D01*
X95903156Y-66167500D01*
X95900317Y-66132969D01*
X98587095Y-66132969D01*
X98587392Y-66138122D01*
X98587392Y-66138125D01*
X98593117Y-66237408D01*
X98600427Y-66364197D01*
X98601564Y-66369243D01*
X98601565Y-66369249D01*
X98622135Y-66460523D01*
X98651346Y-66590142D01*
X98653288Y-66594924D01*
X98653289Y-66594928D01*
X98683493Y-66669311D01*
X98738484Y-66804737D01*
X98859501Y-67002219D01*
X99011147Y-67177284D01*
X99189349Y-67325230D01*
X99389322Y-67442084D01*
X99394147Y-67443926D01*
X99394148Y-67443927D01*
X99457490Y-67468115D01*
X99605694Y-67524709D01*
X99610760Y-67525740D01*
X99610761Y-67525740D01*
X99612039Y-67526000D01*
X99832656Y-67570885D01*
X99962089Y-67575631D01*
X100058949Y-67579183D01*
X100058953Y-67579183D01*
X100064113Y-67579372D01*
X100069233Y-67578716D01*
X100069235Y-67578716D01*
X100288719Y-67550599D01*
X100288720Y-67550599D01*
X100293847Y-67549942D01*
X100298798Y-67548457D01*
X100298801Y-67548456D01*
X100369985Y-67527100D01*
X100440980Y-67526684D01*
X100495287Y-67558691D01*
X102996343Y-70059747D01*
X103003887Y-70068037D01*
X103008000Y-70074518D01*
X103013777Y-70079943D01*
X103057667Y-70121158D01*
X103060509Y-70123913D01*
X103080230Y-70143634D01*
X103083425Y-70146112D01*
X103092447Y-70153818D01*
X103124679Y-70184086D01*
X103131628Y-70187906D01*
X103142432Y-70193846D01*
X103158956Y-70204699D01*
X103174959Y-70217113D01*
X103215543Y-70234676D01*
X103226173Y-70239883D01*
X103264940Y-70261195D01*
X103272617Y-70263166D01*
X103272622Y-70263168D01*
X103284558Y-70266232D01*
X103303266Y-70272637D01*
X103321855Y-70280681D01*
X103329680Y-70281920D01*
X103329682Y-70281921D01*
X103365519Y-70287597D01*
X103377140Y-70290004D01*
X103412289Y-70299028D01*
X103419970Y-70301000D01*
X103440231Y-70301000D01*
X103459940Y-70302551D01*
X103479943Y-70305719D01*
X103487835Y-70304973D01*
X103493062Y-70304479D01*
X103523954Y-70301559D01*
X103535811Y-70301000D01*
X108860606Y-70301000D01*
X108928727Y-70321002D01*
X108963819Y-70354729D01*
X109062506Y-70495668D01*
X109073802Y-70511800D01*
X109235700Y-70673698D01*
X109240208Y-70676855D01*
X109240211Y-70676857D01*
X109318389Y-70731598D01*
X109423251Y-70805023D01*
X109428233Y-70807346D01*
X109428238Y-70807349D01*
X109622929Y-70898134D01*
X109630757Y-70901784D01*
X109636065Y-70903206D01*
X109636067Y-70903207D01*
X109846598Y-70959619D01*
X109846600Y-70959619D01*
X109851913Y-70961043D01*
X110080000Y-70980998D01*
X110308087Y-70961043D01*
X110313400Y-70959619D01*
X110313402Y-70959619D01*
X110523933Y-70903207D01*
X110523935Y-70903206D01*
X110529243Y-70901784D01*
X110537071Y-70898134D01*
X110731762Y-70807349D01*
X110731767Y-70807346D01*
X110736749Y-70805023D01*
X110841611Y-70731598D01*
X110919789Y-70676857D01*
X110919792Y-70676855D01*
X110924300Y-70673698D01*
X111086198Y-70511800D01*
X111104108Y-70486223D01*
X111194192Y-70357569D01*
X111217523Y-70324249D01*
X111219846Y-70319267D01*
X111219849Y-70319262D01*
X111311961Y-70121725D01*
X111311961Y-70121724D01*
X111314284Y-70116743D01*
X111329549Y-70059776D01*
X111372119Y-69900902D01*
X111372119Y-69900900D01*
X111373543Y-69895587D01*
X111393498Y-69667500D01*
X111373543Y-69439413D01*
X111372119Y-69434098D01*
X111315707Y-69223567D01*
X111315706Y-69223565D01*
X111314284Y-69218257D01*
X111261604Y-69105283D01*
X111219849Y-69015738D01*
X111219846Y-69015733D01*
X111217523Y-69010751D01*
X111086198Y-68823200D01*
X110924300Y-68661302D01*
X110919792Y-68658145D01*
X110919789Y-68658143D01*
X110793920Y-68570009D01*
X110736749Y-68529977D01*
X110731767Y-68527654D01*
X110731762Y-68527651D01*
X110534225Y-68435539D01*
X110534224Y-68435539D01*
X110529243Y-68433216D01*
X110523935Y-68431794D01*
X110523933Y-68431793D01*
X110313402Y-68375381D01*
X110313400Y-68375381D01*
X110308087Y-68373957D01*
X110080000Y-68354002D01*
X109851913Y-68373957D01*
X109846600Y-68375381D01*
X109846598Y-68375381D01*
X109636067Y-68431793D01*
X109636065Y-68431794D01*
X109630757Y-68433216D01*
X109625776Y-68435539D01*
X109625775Y-68435539D01*
X109428238Y-68527651D01*
X109428233Y-68527654D01*
X109423251Y-68529977D01*
X109366080Y-68570009D01*
X109240211Y-68658143D01*
X109240208Y-68658145D01*
X109235700Y-68661302D01*
X109073802Y-68823200D01*
X109070645Y-68827708D01*
X109070643Y-68827711D01*
X108963819Y-68980271D01*
X108908362Y-69024599D01*
X108860606Y-69034000D01*
X103814595Y-69034000D01*
X103746474Y-69013998D01*
X103725500Y-68997095D01*
X102519500Y-67791095D01*
X102485474Y-67728783D01*
X102490539Y-67657968D01*
X102533086Y-67601132D01*
X102599606Y-67576321D01*
X102608595Y-67576000D01*
X103488134Y-67576000D01*
X103550316Y-67569245D01*
X103686705Y-67518115D01*
X103803261Y-67430761D01*
X103890615Y-67314205D01*
X103941745Y-67177816D01*
X103948500Y-67115634D01*
X103948500Y-65219366D01*
X103941745Y-65157184D01*
X103890615Y-65020795D01*
X103803261Y-64904239D01*
X103686705Y-64816885D01*
X103550316Y-64765755D01*
X103488134Y-64759000D01*
X101591866Y-64759000D01*
X101529684Y-64765755D01*
X101393295Y-64816885D01*
X101276739Y-64904239D01*
X101189385Y-65020795D01*
X101186233Y-65029203D01*
X101186232Y-65029205D01*
X101165538Y-65084406D01*
X101122897Y-65141171D01*
X101056335Y-65165871D01*
X100986986Y-65150664D01*
X100964167Y-65134166D01*
X100963887Y-65133858D01*
X100901270Y-65084406D01*
X100786177Y-64993511D01*
X100786172Y-64993508D01*
X100782123Y-64990310D01*
X100777607Y-64987817D01*
X100777604Y-64987815D01*
X100583879Y-64880873D01*
X100583875Y-64880871D01*
X100579355Y-64878376D01*
X100574486Y-64876652D01*
X100574482Y-64876650D01*
X100365903Y-64802788D01*
X100365899Y-64802787D01*
X100361028Y-64801062D01*
X100355935Y-64800155D01*
X100355932Y-64800154D01*
X100138095Y-64761351D01*
X100138089Y-64761350D01*
X100133006Y-64760445D01*
X100060096Y-64759554D01*
X99906581Y-64757679D01*
X99906579Y-64757679D01*
X99901411Y-64757616D01*
X99672464Y-64792650D01*
X99452314Y-64864606D01*
X99447726Y-64866994D01*
X99447722Y-64866996D01*
X99333153Y-64926637D01*
X99246872Y-64971552D01*
X99242739Y-64974655D01*
X99242736Y-64974657D01*
X99065790Y-65107512D01*
X99061655Y-65110617D01*
X99058083Y-65114355D01*
X98906686Y-65272783D01*
X98901639Y-65278064D01*
X98771119Y-65469399D01*
X98673602Y-65679481D01*
X98611707Y-65902669D01*
X98587095Y-66132969D01*
X95900317Y-66132969D01*
X95884852Y-65944861D01*
X95830431Y-65728202D01*
X95741354Y-65523340D01*
X95620014Y-65335777D01*
X95469670Y-65170551D01*
X95465619Y-65167352D01*
X95465615Y-65167348D01*
X95298414Y-65035300D01*
X95298410Y-65035298D01*
X95294359Y-65032098D01*
X95289119Y-65029205D01*
X95190304Y-64974657D01*
X95098789Y-64924138D01*
X95093920Y-64922414D01*
X95093916Y-64922412D01*
X94893087Y-64851295D01*
X94893083Y-64851294D01*
X94888212Y-64849569D01*
X94883119Y-64848662D01*
X94883116Y-64848661D01*
X94673373Y-64811300D01*
X94673367Y-64811299D01*
X94668284Y-64810394D01*
X94594452Y-64809492D01*
X94450081Y-64807728D01*
X94450079Y-64807728D01*
X94444911Y-64807665D01*
X94224091Y-64841455D01*
X94011756Y-64910857D01*
X93981443Y-64926637D01*
X93889198Y-64974657D01*
X93813607Y-65014007D01*
X93809474Y-65017110D01*
X93809471Y-65017112D01*
X93653980Y-65133858D01*
X93634965Y-65148135D01*
X93570142Y-65215969D01*
X93554283Y-65232564D01*
X93492759Y-65267994D01*
X93421846Y-65264537D01*
X93364060Y-65223291D01*
X93345207Y-65189743D01*
X93303767Y-65079203D01*
X93300615Y-65070795D01*
X93213261Y-64954239D01*
X93096705Y-64866885D01*
X92960316Y-64815755D01*
X92898134Y-64809000D01*
X91101866Y-64809000D01*
X91039684Y-64815755D01*
X90903295Y-64866885D01*
X90786739Y-64954239D01*
X90699385Y-65070795D01*
X90648255Y-65207184D01*
X90641500Y-65269366D01*
X90641500Y-67065634D01*
X88608500Y-67065634D01*
X88608500Y-64267044D01*
X88628502Y-64198923D01*
X88682158Y-64152430D01*
X88752432Y-64142326D01*
X88782718Y-64150635D01*
G37*
%TD.AperFunction*%
%TA.AperFunction,Conductor*%
G36*
X103684526Y-87703502D02*
G01*
X103731019Y-87757158D01*
X103741123Y-87827432D01*
X103711629Y-87892012D01*
X103705500Y-87898595D01*
X103392747Y-88211348D01*
X103384461Y-88218888D01*
X103377982Y-88223000D01*
X103372557Y-88228777D01*
X103331357Y-88272651D01*
X103328602Y-88275493D01*
X103308865Y-88295230D01*
X103306385Y-88298427D01*
X103298682Y-88307447D01*
X103268414Y-88339679D01*
X103264595Y-88346625D01*
X103264593Y-88346628D01*
X103258652Y-88357434D01*
X103247801Y-88373953D01*
X103235386Y-88389959D01*
X103232241Y-88397228D01*
X103232238Y-88397232D01*
X103217826Y-88430537D01*
X103212609Y-88441187D01*
X103191305Y-88479940D01*
X103189334Y-88487615D01*
X103189334Y-88487616D01*
X103186267Y-88499562D01*
X103179863Y-88518266D01*
X103171819Y-88536855D01*
X103170580Y-88544678D01*
X103170577Y-88544688D01*
X103164901Y-88580524D01*
X103162495Y-88592144D01*
X103151500Y-88634970D01*
X103151500Y-88655224D01*
X103149949Y-88674934D01*
X103146780Y-88694943D01*
X103147526Y-88702835D01*
X103150941Y-88738961D01*
X103151500Y-88750819D01*
X103151500Y-91086692D01*
X103131498Y-91154813D01*
X103083683Y-91198453D01*
X103058607Y-91211507D01*
X103054474Y-91214610D01*
X103054471Y-91214612D01*
X102939926Y-91300615D01*
X102879965Y-91345635D01*
X102854541Y-91372240D01*
X102786280Y-91443671D01*
X102725629Y-91507138D01*
X102618204Y-91664618D01*
X102617898Y-91665066D01*
X102562987Y-91710069D01*
X102492462Y-91718240D01*
X102428715Y-91686986D01*
X102408018Y-91662502D01*
X102327426Y-91537926D01*
X102321136Y-91529757D01*
X102177806Y-91372240D01*
X102170273Y-91365215D01*
X102003139Y-91233222D01*
X101994552Y-91227517D01*
X101808117Y-91124599D01*
X101798705Y-91120369D01*
X101597959Y-91049280D01*
X101587988Y-91046646D01*
X101516837Y-91033972D01*
X101503540Y-91035432D01*
X101499000Y-91049989D01*
X101499000Y-93683517D01*
X101503064Y-93697359D01*
X101516478Y-93699393D01*
X101523184Y-93698534D01*
X101533262Y-93696392D01*
X101737255Y-93635191D01*
X101746842Y-93631433D01*
X101938095Y-93537739D01*
X101946945Y-93532464D01*
X102120328Y-93408792D01*
X102128200Y-93402139D01*
X102279052Y-93251812D01*
X102285730Y-93243965D01*
X102413022Y-93066819D01*
X102414279Y-93067722D01*
X102461373Y-93024362D01*
X102531311Y-93012145D01*
X102596751Y-93039678D01*
X102624579Y-93071511D01*
X102684987Y-93170088D01*
X102831250Y-93338938D01*
X103003126Y-93481632D01*
X103196000Y-93594338D01*
X103404692Y-93674030D01*
X103409760Y-93675061D01*
X103409763Y-93675062D01*
X103504862Y-93694410D01*
X103623597Y-93718567D01*
X103628772Y-93718757D01*
X103628774Y-93718757D01*
X103841673Y-93726564D01*
X103841677Y-93726564D01*
X103846837Y-93726753D01*
X103851957Y-93726097D01*
X103851959Y-93726097D01*
X104063288Y-93699025D01*
X104063289Y-93699025D01*
X104068416Y-93698368D01*
X104074056Y-93696676D01*
X104277429Y-93635661D01*
X104277434Y-93635659D01*
X104282384Y-93634174D01*
X104482994Y-93535896D01*
X104664860Y-93406173D01*
X104773091Y-93298319D01*
X104835462Y-93264404D01*
X104906268Y-93269592D01*
X104963030Y-93312238D01*
X104980012Y-93343341D01*
X105024385Y-93461705D01*
X105111739Y-93578261D01*
X105228295Y-93665615D01*
X105364684Y-93716745D01*
X105426866Y-93723500D01*
X107223134Y-93723500D01*
X107285316Y-93716745D01*
X107421705Y-93665615D01*
X107538261Y-93578261D01*
X107625615Y-93461705D01*
X107676745Y-93325316D01*
X107683500Y-93263134D01*
X107683500Y-91466866D01*
X107676745Y-91404684D01*
X107625615Y-91268295D01*
X107538261Y-91151739D01*
X107421705Y-91064385D01*
X107285316Y-91013255D01*
X107223134Y-91006500D01*
X105426866Y-91006500D01*
X105364684Y-91013255D01*
X105228295Y-91064385D01*
X105111739Y-91151739D01*
X105024385Y-91268295D01*
X105021233Y-91276703D01*
X104979919Y-91386907D01*
X104937277Y-91443671D01*
X104870716Y-91468371D01*
X104801367Y-91453163D01*
X104768743Y-91427476D01*
X104718151Y-91371875D01*
X104718142Y-91371866D01*
X104714670Y-91368051D01*
X104710619Y-91364852D01*
X104710615Y-91364848D01*
X104543414Y-91232800D01*
X104543410Y-91232798D01*
X104539359Y-91229598D01*
X104534835Y-91227101D01*
X104534831Y-91227098D01*
X104483608Y-91198822D01*
X104433636Y-91148390D01*
X104418500Y-91088513D01*
X104418500Y-89029594D01*
X104438502Y-88961473D01*
X104455405Y-88940499D01*
X105225499Y-88170405D01*
X105287811Y-88136379D01*
X105314594Y-88133500D01*
X107185406Y-88133500D01*
X107253527Y-88153502D01*
X107274501Y-88170405D01*
X111829595Y-92725500D01*
X111863621Y-92787812D01*
X111866500Y-92814595D01*
X111866500Y-94928207D01*
X111864268Y-94951816D01*
X111862725Y-94959906D01*
X111866251Y-95015951D01*
X111866500Y-95023862D01*
X111866500Y-102185406D01*
X111846498Y-102253527D01*
X111829595Y-102274501D01*
X109774500Y-104329595D01*
X109712188Y-104363621D01*
X109685405Y-104366500D01*
X106727916Y-104366500D01*
X106716733Y-104365973D01*
X106709240Y-104364298D01*
X106701314Y-104364547D01*
X106701313Y-104364547D01*
X106641150Y-104366438D01*
X106637192Y-104366500D01*
X106609293Y-104366500D01*
X106605303Y-104367004D01*
X106593469Y-104367936D01*
X106549260Y-104369326D01*
X106541646Y-104371538D01*
X106541641Y-104371539D01*
X106529808Y-104374977D01*
X106510445Y-104378988D01*
X106490352Y-104381526D01*
X106482985Y-104384443D01*
X106482980Y-104384444D01*
X106449241Y-104397802D01*
X106438014Y-104401646D01*
X106395556Y-104413982D01*
X106388730Y-104418019D01*
X106378121Y-104424293D01*
X106360373Y-104432988D01*
X106341532Y-104440448D01*
X106335116Y-104445110D01*
X106335115Y-104445110D01*
X106305762Y-104466436D01*
X106295842Y-104472952D01*
X106264614Y-104491420D01*
X106264611Y-104491422D01*
X106257787Y-104495458D01*
X106243466Y-104509779D01*
X106228433Y-104522619D01*
X106212042Y-104534528D01*
X106206991Y-104540634D01*
X106183851Y-104568605D01*
X106175861Y-104577384D01*
X106051103Y-104702142D01*
X105988791Y-104736168D01*
X105917976Y-104731103D01*
X105861140Y-104688556D01*
X105842177Y-104651987D01*
X105834527Y-104628444D01*
X105739040Y-104463056D01*
X105722882Y-104445110D01*
X105615675Y-104326045D01*
X105615674Y-104326044D01*
X105611253Y-104321134D01*
X105456752Y-104208882D01*
X105450724Y-104206198D01*
X105450722Y-104206197D01*
X105288319Y-104133891D01*
X105288318Y-104133891D01*
X105282288Y-104131206D01*
X105188887Y-104111353D01*
X105101944Y-104092872D01*
X105101939Y-104092872D01*
X105095487Y-104091500D01*
X104904513Y-104091500D01*
X104898061Y-104092872D01*
X104898056Y-104092872D01*
X104811113Y-104111353D01*
X104717712Y-104131206D01*
X104711682Y-104133891D01*
X104711681Y-104133891D01*
X104549278Y-104206197D01*
X104549276Y-104206198D01*
X104543248Y-104208882D01*
X104388747Y-104321134D01*
X104384326Y-104326044D01*
X104384325Y-104326045D01*
X104277119Y-104445110D01*
X104260960Y-104463056D01*
X104165473Y-104628444D01*
X104106458Y-104810072D01*
X104105768Y-104816635D01*
X104105768Y-104816636D01*
X104103187Y-104841197D01*
X104076175Y-104906855D01*
X104066972Y-104917124D01*
X102837345Y-106146750D01*
X102775033Y-106180776D01*
X102726154Y-106181702D01*
X102513373Y-106143800D01*
X102513367Y-106143799D01*
X102508284Y-106142894D01*
X102434452Y-106141992D01*
X102290081Y-106140228D01*
X102290079Y-106140228D01*
X102284911Y-106140165D01*
X102064091Y-106173955D01*
X101851756Y-106243357D01*
X101653607Y-106346507D01*
X101649474Y-106349610D01*
X101649471Y-106349612D01*
X101569985Y-106409292D01*
X101474965Y-106480635D01*
X101435982Y-106521428D01*
X101357312Y-106603752D01*
X101320629Y-106642138D01*
X101213201Y-106799621D01*
X101158293Y-106844621D01*
X101087768Y-106852792D01*
X101024021Y-106821538D01*
X101003324Y-106797054D01*
X100922822Y-106672617D01*
X100922820Y-106672614D01*
X100920014Y-106668277D01*
X100769670Y-106503051D01*
X100765619Y-106499852D01*
X100765615Y-106499848D01*
X100598414Y-106367800D01*
X100598410Y-106367798D01*
X100594359Y-106364598D01*
X100398789Y-106256638D01*
X100393920Y-106254914D01*
X100393916Y-106254912D01*
X100193087Y-106183795D01*
X100193083Y-106183794D01*
X100188212Y-106182069D01*
X100183119Y-106181162D01*
X100183116Y-106181161D01*
X99973373Y-106143800D01*
X99973367Y-106143799D01*
X99968284Y-106142894D01*
X99894452Y-106141992D01*
X99750081Y-106140228D01*
X99750079Y-106140228D01*
X99744911Y-106140165D01*
X99524091Y-106173955D01*
X99311756Y-106243357D01*
X99113607Y-106346507D01*
X99109474Y-106349610D01*
X99109471Y-106349612D01*
X99029985Y-106409292D01*
X98934965Y-106480635D01*
X98895982Y-106521428D01*
X98817312Y-106603752D01*
X98780629Y-106642138D01*
X98673201Y-106799621D01*
X98618293Y-106844621D01*
X98547768Y-106852792D01*
X98484021Y-106821538D01*
X98463324Y-106797054D01*
X98382822Y-106672617D01*
X98382820Y-106672614D01*
X98380014Y-106668277D01*
X98229670Y-106503051D01*
X98225619Y-106499852D01*
X98225615Y-106499848D01*
X98058414Y-106367800D01*
X98058410Y-106367798D01*
X98054359Y-106364598D01*
X97858789Y-106256638D01*
X97853920Y-106254914D01*
X97853916Y-106254912D01*
X97653087Y-106183795D01*
X97653083Y-106183794D01*
X97648212Y-106182069D01*
X97643119Y-106181162D01*
X97643116Y-106181161D01*
X97433373Y-106143800D01*
X97433367Y-106143799D01*
X97428284Y-106142894D01*
X97354452Y-106141992D01*
X97210081Y-106140228D01*
X97210079Y-106140228D01*
X97204911Y-106140165D01*
X96984091Y-106173955D01*
X96771756Y-106243357D01*
X96573607Y-106346507D01*
X96569474Y-106349610D01*
X96569471Y-106349612D01*
X96489985Y-106409292D01*
X96394965Y-106480635D01*
X96355982Y-106521428D01*
X96277312Y-106603752D01*
X96240629Y-106642138D01*
X96237720Y-106646403D01*
X96237714Y-106646411D01*
X96152556Y-106771249D01*
X96114743Y-106826680D01*
X96020688Y-107029305D01*
X95960989Y-107244570D01*
X95937251Y-107466695D01*
X95937548Y-107471848D01*
X95937548Y-107471851D01*
X95941201Y-107535198D01*
X95950110Y-107689715D01*
X95951247Y-107694761D01*
X95951248Y-107694767D01*
X95994751Y-107887799D01*
X95990215Y-107958650D01*
X95948093Y-108015802D01*
X95881760Y-108041108D01*
X95871834Y-108041500D01*
X94984000Y-108041500D01*
X94915879Y-108021498D01*
X94869386Y-107967842D01*
X94858000Y-107915500D01*
X94858000Y-107772115D01*
X94853525Y-107756876D01*
X94852135Y-107755671D01*
X94844452Y-107754000D01*
X93372000Y-107754000D01*
X93303879Y-107733998D01*
X93257386Y-107680342D01*
X93246000Y-107628000D01*
X93246000Y-107227885D01*
X93754000Y-107227885D01*
X93758475Y-107243124D01*
X93759865Y-107244329D01*
X93767548Y-107246000D01*
X94839884Y-107246000D01*
X94855123Y-107241525D01*
X94856328Y-107240135D01*
X94857999Y-107232452D01*
X94857999Y-106605331D01*
X94857629Y-106598510D01*
X94852105Y-106547648D01*
X94848479Y-106532396D01*
X94803324Y-106411946D01*
X94794786Y-106396351D01*
X94718285Y-106294276D01*
X94705724Y-106281715D01*
X94603649Y-106205214D01*
X94588054Y-106196676D01*
X94467606Y-106151522D01*
X94452351Y-106147895D01*
X94401486Y-106142369D01*
X94394672Y-106142000D01*
X93772115Y-106142000D01*
X93756876Y-106146475D01*
X93755671Y-106147865D01*
X93754000Y-106155548D01*
X93754000Y-107227885D01*
X93246000Y-107227885D01*
X93246000Y-106160116D01*
X93241525Y-106144877D01*
X93240135Y-106143672D01*
X93232452Y-106142001D01*
X92605331Y-106142001D01*
X92598510Y-106142371D01*
X92547648Y-106147895D01*
X92532396Y-106151521D01*
X92411946Y-106196676D01*
X92396351Y-106205214D01*
X92294276Y-106281715D01*
X92281715Y-106294276D01*
X92205214Y-106396351D01*
X92196676Y-106411946D01*
X92155297Y-106522322D01*
X92112655Y-106579087D01*
X92046093Y-106603786D01*
X91976744Y-106588578D01*
X91944121Y-106562891D01*
X91893151Y-106506876D01*
X91893145Y-106506870D01*
X91889670Y-106503051D01*
X91885619Y-106499852D01*
X91885615Y-106499848D01*
X91718414Y-106367800D01*
X91718410Y-106367798D01*
X91714359Y-106364598D01*
X91518789Y-106256638D01*
X91513920Y-106254914D01*
X91513916Y-106254912D01*
X91313087Y-106183795D01*
X91313083Y-106183794D01*
X91308212Y-106182069D01*
X91303119Y-106181162D01*
X91303116Y-106181161D01*
X91093373Y-106143800D01*
X91093367Y-106143799D01*
X91088284Y-106142894D01*
X91014452Y-106141992D01*
X90870081Y-106140228D01*
X90870079Y-106140228D01*
X90864911Y-106140165D01*
X90644091Y-106173955D01*
X90431756Y-106243357D01*
X90233607Y-106346507D01*
X90229474Y-106349610D01*
X90229471Y-106349612D01*
X90149985Y-106409292D01*
X90054965Y-106480635D01*
X90015982Y-106521428D01*
X89937312Y-106603752D01*
X89900629Y-106642138D01*
X89897720Y-106646403D01*
X89897714Y-106646411D01*
X89812556Y-106771249D01*
X89774743Y-106826680D01*
X89680688Y-107029305D01*
X89620989Y-107244570D01*
X89597251Y-107466695D01*
X89597548Y-107471848D01*
X89597548Y-107471851D01*
X89601201Y-107535198D01*
X89610110Y-107689715D01*
X89611247Y-107694761D01*
X89611248Y-107694767D01*
X89625606Y-107758475D01*
X89659222Y-107907639D01*
X89743266Y-108114616D01*
X89859987Y-108305088D01*
X90006250Y-108473938D01*
X90178126Y-108616632D01*
X90371000Y-108729338D01*
X90579692Y-108809030D01*
X90584760Y-108810061D01*
X90584763Y-108810062D01*
X90692003Y-108831880D01*
X90798597Y-108853567D01*
X90803772Y-108853757D01*
X90803774Y-108853757D01*
X91016673Y-108861564D01*
X91016677Y-108861564D01*
X91021837Y-108861753D01*
X91026957Y-108861097D01*
X91026959Y-108861097D01*
X91105512Y-108851034D01*
X91243416Y-108833368D01*
X91289826Y-108819444D01*
X91360821Y-108819026D01*
X91415129Y-108851034D01*
X91631348Y-109067253D01*
X91638888Y-109075539D01*
X91643000Y-109082018D01*
X91648777Y-109087443D01*
X91692651Y-109128643D01*
X91695493Y-109131398D01*
X91715230Y-109151135D01*
X91718427Y-109153615D01*
X91727447Y-109161318D01*
X91759679Y-109191586D01*
X91766625Y-109195405D01*
X91766628Y-109195407D01*
X91777434Y-109201348D01*
X91793953Y-109212199D01*
X91809959Y-109224614D01*
X91817228Y-109227759D01*
X91817232Y-109227762D01*
X91850537Y-109242174D01*
X91861199Y-109247397D01*
X91875185Y-109255086D01*
X91925243Y-109305432D01*
X91940136Y-109374849D01*
X91915135Y-109441297D01*
X91858177Y-109483681D01*
X91814483Y-109491500D01*
X87626000Y-109491500D01*
X87557879Y-109471498D01*
X87511386Y-109417842D01*
X87500000Y-109365500D01*
X87500000Y-103448095D01*
X87520002Y-103379974D01*
X87536905Y-103359000D01*
X90225500Y-100670405D01*
X90287812Y-100636379D01*
X90314595Y-100633500D01*
X99291800Y-100633500D01*
X99359921Y-100653502D01*
X99379147Y-100669843D01*
X99379420Y-100669540D01*
X99384332Y-100673963D01*
X99388747Y-100678866D01*
X99543248Y-100791118D01*
X99549276Y-100793802D01*
X99549278Y-100793803D01*
X99711681Y-100866109D01*
X99717712Y-100868794D01*
X99811112Y-100888647D01*
X99898056Y-100907128D01*
X99898061Y-100907128D01*
X99904513Y-100908500D01*
X100095487Y-100908500D01*
X100101939Y-100907128D01*
X100101944Y-100907128D01*
X100188887Y-100888647D01*
X100282288Y-100868794D01*
X100288319Y-100866109D01*
X100450722Y-100793803D01*
X100450724Y-100793802D01*
X100456752Y-100791118D01*
X100611253Y-100678866D01*
X100643508Y-100643043D01*
X100734621Y-100541852D01*
X100734622Y-100541851D01*
X100739040Y-100536944D01*
X100812896Y-100409022D01*
X100831223Y-100377279D01*
X100831224Y-100377278D01*
X100834527Y-100371556D01*
X100893542Y-100189928D01*
X100897421Y-100153027D01*
X100912814Y-100006565D01*
X100913504Y-100000000D01*
X100893542Y-99810072D01*
X100834527Y-99628444D01*
X100739040Y-99463056D01*
X100611253Y-99321134D01*
X100456752Y-99208882D01*
X100450724Y-99206198D01*
X100450722Y-99206197D01*
X100288319Y-99133891D01*
X100288318Y-99133891D01*
X100282288Y-99131206D01*
X100160331Y-99105283D01*
X100101944Y-99092872D01*
X100101939Y-99092872D01*
X100095487Y-99091500D01*
X99904513Y-99091500D01*
X99898061Y-99092872D01*
X99898056Y-99092872D01*
X99839669Y-99105283D01*
X99717712Y-99131206D01*
X99711682Y-99133891D01*
X99711681Y-99133891D01*
X99549278Y-99206197D01*
X99549276Y-99206198D01*
X99543248Y-99208882D01*
X99388747Y-99321134D01*
X99384332Y-99326037D01*
X99379420Y-99330460D01*
X99378295Y-99329211D01*
X99324986Y-99362051D01*
X99291800Y-99366500D01*
X90563594Y-99366500D01*
X90495473Y-99346498D01*
X90448980Y-99292842D01*
X90438876Y-99222568D01*
X90468370Y-99157988D01*
X90474499Y-99151405D01*
X91012184Y-98613720D01*
X91030454Y-98598604D01*
X91037270Y-98593972D01*
X91074410Y-98551845D01*
X91079829Y-98546075D01*
X91455499Y-98170405D01*
X91517811Y-98136379D01*
X91544594Y-98133500D01*
X100315406Y-98133500D01*
X100383527Y-98153502D01*
X100404501Y-98170405D01*
X103114595Y-100880500D01*
X103148621Y-100942812D01*
X103151500Y-100969595D01*
X103151500Y-101246692D01*
X103131498Y-101314813D01*
X103083683Y-101358453D01*
X103058607Y-101371507D01*
X103054474Y-101374610D01*
X103054471Y-101374612D01*
X102884100Y-101502530D01*
X102879965Y-101505635D01*
X102840525Y-101546907D01*
X102786280Y-101603671D01*
X102725629Y-101667138D01*
X102618201Y-101824621D01*
X102563293Y-101869621D01*
X102492768Y-101877792D01*
X102429021Y-101846538D01*
X102408324Y-101822054D01*
X102327822Y-101697617D01*
X102327820Y-101697614D01*
X102325014Y-101693277D01*
X102174670Y-101528051D01*
X102170619Y-101524852D01*
X102170615Y-101524848D01*
X102003414Y-101392800D01*
X102003410Y-101392798D01*
X101999359Y-101389598D01*
X101994831Y-101387098D01*
X101878988Y-101323150D01*
X101803789Y-101281638D01*
X101798920Y-101279914D01*
X101798916Y-101279912D01*
X101598087Y-101208795D01*
X101598083Y-101208794D01*
X101593212Y-101207069D01*
X101588119Y-101206162D01*
X101588116Y-101206161D01*
X101378373Y-101168800D01*
X101378367Y-101168799D01*
X101373284Y-101167894D01*
X101299452Y-101166992D01*
X101155081Y-101165228D01*
X101155079Y-101165228D01*
X101149911Y-101165165D01*
X100929091Y-101198955D01*
X100716756Y-101268357D01*
X100686443Y-101284137D01*
X100542975Y-101358822D01*
X100518607Y-101371507D01*
X100514474Y-101374610D01*
X100514471Y-101374612D01*
X100344100Y-101502530D01*
X100339965Y-101505635D01*
X100300525Y-101546907D01*
X100246280Y-101603671D01*
X100185629Y-101667138D01*
X100078201Y-101824621D01*
X100023293Y-101869621D01*
X99952768Y-101877792D01*
X99889021Y-101846538D01*
X99868324Y-101822054D01*
X99787822Y-101697617D01*
X99787820Y-101697614D01*
X99785014Y-101693277D01*
X99634670Y-101528051D01*
X99630619Y-101524852D01*
X99630615Y-101524848D01*
X99463414Y-101392800D01*
X99463410Y-101392798D01*
X99459359Y-101389598D01*
X99454831Y-101387098D01*
X99338988Y-101323150D01*
X99263789Y-101281638D01*
X99258920Y-101279914D01*
X99258916Y-101279912D01*
X99058087Y-101208795D01*
X99058083Y-101208794D01*
X99053212Y-101207069D01*
X99048119Y-101206162D01*
X99048116Y-101206161D01*
X98838373Y-101168800D01*
X98838367Y-101168799D01*
X98833284Y-101167894D01*
X98759452Y-101166992D01*
X98615081Y-101165228D01*
X98615079Y-101165228D01*
X98609911Y-101165165D01*
X98389091Y-101198955D01*
X98176756Y-101268357D01*
X98146443Y-101284137D01*
X98002975Y-101358822D01*
X97978607Y-101371507D01*
X97974474Y-101374610D01*
X97974471Y-101374612D01*
X97804100Y-101502530D01*
X97799965Y-101505635D01*
X97760525Y-101546907D01*
X97706280Y-101603671D01*
X97645629Y-101667138D01*
X97538201Y-101824621D01*
X97483293Y-101869621D01*
X97412768Y-101877792D01*
X97349021Y-101846538D01*
X97328324Y-101822054D01*
X97247822Y-101697617D01*
X97247820Y-101697614D01*
X97245014Y-101693277D01*
X97094670Y-101528051D01*
X97090619Y-101524852D01*
X97090615Y-101524848D01*
X96923414Y-101392800D01*
X96923410Y-101392798D01*
X96919359Y-101389598D01*
X96914831Y-101387098D01*
X96798988Y-101323150D01*
X96723789Y-101281638D01*
X96718920Y-101279914D01*
X96718916Y-101279912D01*
X96518087Y-101208795D01*
X96518083Y-101208794D01*
X96513212Y-101207069D01*
X96508119Y-101206162D01*
X96508116Y-101206161D01*
X96298373Y-101168800D01*
X96298367Y-101168799D01*
X96293284Y-101167894D01*
X96219452Y-101166992D01*
X96075081Y-101165228D01*
X96075079Y-101165228D01*
X96069911Y-101165165D01*
X95849091Y-101198955D01*
X95636756Y-101268357D01*
X95606443Y-101284137D01*
X95462975Y-101358822D01*
X95438607Y-101371507D01*
X95434474Y-101374610D01*
X95434471Y-101374612D01*
X95264100Y-101502530D01*
X95259965Y-101505635D01*
X95220525Y-101546907D01*
X95166280Y-101603671D01*
X95105629Y-101667138D01*
X94998201Y-101824621D01*
X94943293Y-101869621D01*
X94872768Y-101877792D01*
X94809021Y-101846538D01*
X94788324Y-101822054D01*
X94707822Y-101697617D01*
X94707820Y-101697614D01*
X94705014Y-101693277D01*
X94554670Y-101528051D01*
X94550619Y-101524852D01*
X94550615Y-101524848D01*
X94383414Y-101392800D01*
X94383410Y-101392798D01*
X94379359Y-101389598D01*
X94374831Y-101387098D01*
X94258988Y-101323150D01*
X94183789Y-101281638D01*
X94178920Y-101279914D01*
X94178916Y-101279912D01*
X93978087Y-101208795D01*
X93978083Y-101208794D01*
X93973212Y-101207069D01*
X93968119Y-101206162D01*
X93968116Y-101206161D01*
X93758373Y-101168800D01*
X93758367Y-101168799D01*
X93753284Y-101167894D01*
X93679452Y-101166992D01*
X93535081Y-101165228D01*
X93535079Y-101165228D01*
X93529911Y-101165165D01*
X93309091Y-101198955D01*
X93096756Y-101268357D01*
X93066443Y-101284137D01*
X92922975Y-101358822D01*
X92898607Y-101371507D01*
X92894474Y-101374610D01*
X92894471Y-101374612D01*
X92724100Y-101502530D01*
X92719965Y-101505635D01*
X92680525Y-101546907D01*
X92626280Y-101603671D01*
X92565629Y-101667138D01*
X92439743Y-101851680D01*
X92345688Y-102054305D01*
X92285989Y-102269570D01*
X92262251Y-102491695D01*
X92262548Y-102496848D01*
X92262548Y-102496851D01*
X92272550Y-102670312D01*
X92275110Y-102714715D01*
X92276247Y-102719761D01*
X92276248Y-102719767D01*
X92298334Y-102817768D01*
X92324222Y-102932639D01*
X92408266Y-103139616D01*
X92445685Y-103200678D01*
X92522291Y-103325688D01*
X92524987Y-103330088D01*
X92671250Y-103498938D01*
X92843126Y-103641632D01*
X93036000Y-103754338D01*
X93244692Y-103834030D01*
X93249760Y-103835061D01*
X93249763Y-103835062D01*
X93357017Y-103856883D01*
X93463597Y-103878567D01*
X93468772Y-103878757D01*
X93468774Y-103878757D01*
X93681673Y-103886564D01*
X93681677Y-103886564D01*
X93686837Y-103886753D01*
X93691957Y-103886097D01*
X93691959Y-103886097D01*
X93903288Y-103859025D01*
X93903289Y-103859025D01*
X93908416Y-103858368D01*
X93913366Y-103856883D01*
X94117429Y-103795661D01*
X94117434Y-103795659D01*
X94122384Y-103794174D01*
X94322994Y-103695896D01*
X94504860Y-103566173D01*
X94663096Y-103408489D01*
X94722594Y-103325689D01*
X94793453Y-103227077D01*
X94794776Y-103228028D01*
X94841645Y-103184857D01*
X94911580Y-103172625D01*
X94977026Y-103200144D01*
X95004875Y-103231994D01*
X95064987Y-103330088D01*
X95211250Y-103498938D01*
X95383126Y-103641632D01*
X95576000Y-103754338D01*
X95784692Y-103834030D01*
X95789760Y-103835061D01*
X95789763Y-103835062D01*
X95897017Y-103856883D01*
X96003597Y-103878567D01*
X96008772Y-103878757D01*
X96008774Y-103878757D01*
X96221673Y-103886564D01*
X96221677Y-103886564D01*
X96226837Y-103886753D01*
X96231957Y-103886097D01*
X96231959Y-103886097D01*
X96443288Y-103859025D01*
X96443289Y-103859025D01*
X96448416Y-103858368D01*
X96453366Y-103856883D01*
X96657429Y-103795661D01*
X96657434Y-103795659D01*
X96662384Y-103794174D01*
X96862994Y-103695896D01*
X97044860Y-103566173D01*
X97203096Y-103408489D01*
X97262594Y-103325689D01*
X97333453Y-103227077D01*
X97334776Y-103228028D01*
X97381645Y-103184857D01*
X97451580Y-103172625D01*
X97517026Y-103200144D01*
X97544875Y-103231994D01*
X97604987Y-103330088D01*
X97751250Y-103498938D01*
X97923126Y-103641632D01*
X98116000Y-103754338D01*
X98324692Y-103834030D01*
X98329760Y-103835061D01*
X98329763Y-103835062D01*
X98437017Y-103856883D01*
X98543597Y-103878567D01*
X98548772Y-103878757D01*
X98548774Y-103878757D01*
X98761673Y-103886564D01*
X98761677Y-103886564D01*
X98766837Y-103886753D01*
X98771957Y-103886097D01*
X98771959Y-103886097D01*
X98983288Y-103859025D01*
X98983289Y-103859025D01*
X98988416Y-103858368D01*
X98993366Y-103856883D01*
X99197429Y-103795661D01*
X99197434Y-103795659D01*
X99202384Y-103794174D01*
X99402994Y-103695896D01*
X99584860Y-103566173D01*
X99743096Y-103408489D01*
X99802594Y-103325689D01*
X99873453Y-103227077D01*
X99874776Y-103228028D01*
X99921645Y-103184857D01*
X99991580Y-103172625D01*
X100057026Y-103200144D01*
X100084875Y-103231994D01*
X100144987Y-103330088D01*
X100291250Y-103498938D01*
X100463126Y-103641632D01*
X100656000Y-103754338D01*
X100864692Y-103834030D01*
X100869760Y-103835061D01*
X100869763Y-103835062D01*
X100977017Y-103856883D01*
X101083597Y-103878567D01*
X101088772Y-103878757D01*
X101088774Y-103878757D01*
X101301673Y-103886564D01*
X101301677Y-103886564D01*
X101306837Y-103886753D01*
X101311957Y-103886097D01*
X101311959Y-103886097D01*
X101523288Y-103859025D01*
X101523289Y-103859025D01*
X101528416Y-103858368D01*
X101533366Y-103856883D01*
X101737429Y-103795661D01*
X101737434Y-103795659D01*
X101742384Y-103794174D01*
X101942994Y-103695896D01*
X102124860Y-103566173D01*
X102283096Y-103408489D01*
X102342594Y-103325689D01*
X102413453Y-103227077D01*
X102414776Y-103228028D01*
X102461645Y-103184857D01*
X102531580Y-103172625D01*
X102597026Y-103200144D01*
X102624875Y-103231994D01*
X102684987Y-103330088D01*
X102831250Y-103498938D01*
X103003126Y-103641632D01*
X103196000Y-103754338D01*
X103404692Y-103834030D01*
X103409760Y-103835061D01*
X103409763Y-103835062D01*
X103517017Y-103856883D01*
X103623597Y-103878567D01*
X103628772Y-103878757D01*
X103628774Y-103878757D01*
X103841673Y-103886564D01*
X103841677Y-103886564D01*
X103846837Y-103886753D01*
X103851957Y-103886097D01*
X103851959Y-103886097D01*
X104063288Y-103859025D01*
X104063289Y-103859025D01*
X104068416Y-103858368D01*
X104073366Y-103856883D01*
X104277429Y-103795661D01*
X104277434Y-103795659D01*
X104282384Y-103794174D01*
X104482994Y-103695896D01*
X104664860Y-103566173D01*
X104773091Y-103458319D01*
X104835462Y-103424404D01*
X104906268Y-103429592D01*
X104963030Y-103472238D01*
X104980012Y-103503341D01*
X105024385Y-103621705D01*
X105111739Y-103738261D01*
X105228295Y-103825615D01*
X105364684Y-103876745D01*
X105426866Y-103883500D01*
X107223134Y-103883500D01*
X107285316Y-103876745D01*
X107421705Y-103825615D01*
X107538261Y-103738261D01*
X107625615Y-103621705D01*
X107676745Y-103485316D01*
X107683500Y-103423134D01*
X107683500Y-101626866D01*
X107676745Y-101564684D01*
X107625615Y-101428295D01*
X107538261Y-101311739D01*
X107421705Y-101224385D01*
X107285316Y-101173255D01*
X107223134Y-101166500D01*
X105426866Y-101166500D01*
X105364684Y-101173255D01*
X105228295Y-101224385D01*
X105111739Y-101311739D01*
X105024385Y-101428295D01*
X105021233Y-101436703D01*
X104979919Y-101546907D01*
X104937277Y-101603671D01*
X104870716Y-101628371D01*
X104801367Y-101613163D01*
X104768743Y-101587476D01*
X104718151Y-101531875D01*
X104718142Y-101531866D01*
X104714670Y-101528051D01*
X104710619Y-101524852D01*
X104710615Y-101524848D01*
X104543414Y-101392800D01*
X104543410Y-101392798D01*
X104539359Y-101389598D01*
X104534835Y-101387101D01*
X104534831Y-101387098D01*
X104483608Y-101358822D01*
X104433636Y-101308390D01*
X104418500Y-101248513D01*
X104418500Y-100733767D01*
X104419027Y-100722584D01*
X104420702Y-100715091D01*
X104419564Y-100678866D01*
X104418562Y-100647001D01*
X104418500Y-100643043D01*
X104418500Y-100615144D01*
X104417996Y-100611153D01*
X104417063Y-100599311D01*
X104415923Y-100563036D01*
X104415674Y-100555111D01*
X104413462Y-100547497D01*
X104413461Y-100547492D01*
X104410023Y-100535659D01*
X104406012Y-100516295D01*
X104404467Y-100504064D01*
X104403474Y-100496203D01*
X104400557Y-100488836D01*
X104400556Y-100488831D01*
X104387198Y-100455092D01*
X104383354Y-100443865D01*
X104373230Y-100409022D01*
X104371018Y-100401407D01*
X104360707Y-100383972D01*
X104352012Y-100366224D01*
X104344552Y-100347383D01*
X104318564Y-100311613D01*
X104312048Y-100301693D01*
X104293580Y-100270465D01*
X104293578Y-100270462D01*
X104289542Y-100263638D01*
X104275221Y-100249317D01*
X104262380Y-100234283D01*
X104255131Y-100224306D01*
X104250472Y-100217893D01*
X104216395Y-100189702D01*
X104207616Y-100181712D01*
X101133652Y-97107747D01*
X101126112Y-97099461D01*
X101122000Y-97092982D01*
X101072348Y-97046356D01*
X101069507Y-97043602D01*
X101049770Y-97023865D01*
X101046573Y-97021385D01*
X101037551Y-97013680D01*
X101021062Y-96998196D01*
X101005321Y-96983414D01*
X100998375Y-96979595D01*
X100998372Y-96979593D01*
X100987566Y-96973652D01*
X100971047Y-96962801D01*
X100965048Y-96958148D01*
X100955041Y-96950386D01*
X100947772Y-96947241D01*
X100947768Y-96947238D01*
X100914463Y-96932826D01*
X100903813Y-96927609D01*
X100865060Y-96906305D01*
X100845437Y-96901267D01*
X100826734Y-96894863D01*
X100815420Y-96889967D01*
X100815419Y-96889967D01*
X100808145Y-96886819D01*
X100800322Y-96885580D01*
X100800312Y-96885577D01*
X100764476Y-96879901D01*
X100752856Y-96877495D01*
X100717711Y-96868472D01*
X100717710Y-96868472D01*
X100710030Y-96866500D01*
X100689776Y-96866500D01*
X100670065Y-96864949D01*
X100667534Y-96864548D01*
X100650057Y-96861780D01*
X100642165Y-96862526D01*
X100606039Y-96865941D01*
X100594181Y-96866500D01*
X91308763Y-96866500D01*
X91297579Y-96865973D01*
X91290091Y-96864299D01*
X91282168Y-96864548D01*
X91222033Y-96866438D01*
X91218075Y-96866500D01*
X91190144Y-96866500D01*
X91186229Y-96866995D01*
X91186225Y-96866995D01*
X91186167Y-96867003D01*
X91186138Y-96867006D01*
X91174296Y-96867939D01*
X91130110Y-96869327D01*
X91112744Y-96874372D01*
X91110658Y-96874978D01*
X91091306Y-96878986D01*
X91084235Y-96879880D01*
X91071203Y-96881526D01*
X91063834Y-96884443D01*
X91063832Y-96884444D01*
X91030097Y-96897800D01*
X91018869Y-96901645D01*
X90976407Y-96913982D01*
X90969585Y-96918016D01*
X90969579Y-96918019D01*
X90958968Y-96924294D01*
X90941218Y-96932990D01*
X90929756Y-96937528D01*
X90929751Y-96937531D01*
X90922383Y-96940448D01*
X90904970Y-96953099D01*
X90886625Y-96966427D01*
X90876707Y-96972943D01*
X90865463Y-96979593D01*
X90838637Y-96995458D01*
X90835363Y-96998732D01*
X90770643Y-97024144D01*
X90701020Y-97010245D01*
X90649964Y-96960911D01*
X90633500Y-96898638D01*
X90633500Y-94333594D01*
X90653502Y-94265473D01*
X90707158Y-94218980D01*
X90777432Y-94208876D01*
X90842012Y-94238370D01*
X90848593Y-94244497D01*
X91532302Y-94928207D01*
X91996348Y-95392253D01*
X92003888Y-95400539D01*
X92008000Y-95407018D01*
X92013777Y-95412443D01*
X92057651Y-95453643D01*
X92060493Y-95456398D01*
X92080230Y-95476135D01*
X92083427Y-95478615D01*
X92092447Y-95486318D01*
X92124679Y-95516586D01*
X92131625Y-95520405D01*
X92131628Y-95520407D01*
X92142434Y-95526348D01*
X92158953Y-95537199D01*
X92174959Y-95549614D01*
X92182228Y-95552759D01*
X92182232Y-95552762D01*
X92215537Y-95567174D01*
X92226187Y-95572391D01*
X92264940Y-95593695D01*
X92272615Y-95595666D01*
X92272616Y-95595666D01*
X92284562Y-95598733D01*
X92303267Y-95605137D01*
X92321855Y-95613181D01*
X92329678Y-95614420D01*
X92329688Y-95614423D01*
X92365524Y-95620099D01*
X92377144Y-95622505D01*
X92408959Y-95630673D01*
X92419970Y-95633500D01*
X92440224Y-95633500D01*
X92459934Y-95635051D01*
X92479943Y-95638220D01*
X92487835Y-95637474D01*
X92506580Y-95635702D01*
X92523962Y-95634059D01*
X92535819Y-95633500D01*
X94291800Y-95633500D01*
X94359921Y-95653502D01*
X94379147Y-95669843D01*
X94379420Y-95669540D01*
X94384332Y-95673963D01*
X94388747Y-95678866D01*
X94543248Y-95791118D01*
X94549276Y-95793802D01*
X94549278Y-95793803D01*
X94711681Y-95866109D01*
X94717712Y-95868794D01*
X94811113Y-95888647D01*
X94898056Y-95907128D01*
X94898061Y-95907128D01*
X94904513Y-95908500D01*
X95095487Y-95908500D01*
X95101939Y-95907128D01*
X95101944Y-95907128D01*
X95188887Y-95888647D01*
X95282288Y-95868794D01*
X95288319Y-95866109D01*
X95450722Y-95793803D01*
X95450724Y-95793802D01*
X95456752Y-95791118D01*
X95611253Y-95678866D01*
X95647851Y-95638220D01*
X95734621Y-95541852D01*
X95734622Y-95541851D01*
X95739040Y-95536944D01*
X95834527Y-95371556D01*
X95893542Y-95189928D01*
X95913504Y-95000000D01*
X95912814Y-94993435D01*
X95894232Y-94816635D01*
X95894232Y-94816633D01*
X95893542Y-94810072D01*
X95834527Y-94628444D01*
X95739040Y-94463056D01*
X95649509Y-94363621D01*
X95615675Y-94326045D01*
X95615674Y-94326044D01*
X95611253Y-94321134D01*
X95456752Y-94208882D01*
X95450724Y-94206198D01*
X95450722Y-94206197D01*
X95288319Y-94133891D01*
X95288318Y-94133891D01*
X95282288Y-94131206D01*
X95188887Y-94111353D01*
X95101944Y-94092872D01*
X95101939Y-94092872D01*
X95095487Y-94091500D01*
X94904513Y-94091500D01*
X94898061Y-94092872D01*
X94898056Y-94092872D01*
X94811112Y-94111353D01*
X94717712Y-94131206D01*
X94711682Y-94133891D01*
X94711681Y-94133891D01*
X94549278Y-94206197D01*
X94549276Y-94206198D01*
X94543248Y-94208882D01*
X94537907Y-94212762D01*
X94537906Y-94212763D01*
X94465357Y-94265473D01*
X94388747Y-94321134D01*
X94384332Y-94326037D01*
X94379420Y-94330460D01*
X94378295Y-94329211D01*
X94324986Y-94362051D01*
X94291800Y-94366500D01*
X92814594Y-94366500D01*
X92746473Y-94346498D01*
X92725499Y-94329595D01*
X91445677Y-93049772D01*
X91411651Y-92987460D01*
X91408772Y-92960677D01*
X91408772Y-92331695D01*
X92262251Y-92331695D01*
X92262548Y-92336848D01*
X92262548Y-92336851D01*
X92269427Y-92456154D01*
X92275110Y-92554715D01*
X92276247Y-92559761D01*
X92276248Y-92559767D01*
X92279028Y-92572101D01*
X92324222Y-92772639D01*
X92382670Y-92916581D01*
X92393134Y-92942349D01*
X92408266Y-92979616D01*
X92445685Y-93040678D01*
X92522291Y-93165688D01*
X92524987Y-93170088D01*
X92671250Y-93338938D01*
X92843126Y-93481632D01*
X93036000Y-93594338D01*
X93244692Y-93674030D01*
X93249760Y-93675061D01*
X93249763Y-93675062D01*
X93344862Y-93694410D01*
X93463597Y-93718567D01*
X93468772Y-93718757D01*
X93468774Y-93718757D01*
X93681673Y-93726564D01*
X93681677Y-93726564D01*
X93686837Y-93726753D01*
X93691957Y-93726097D01*
X93691959Y-93726097D01*
X93903288Y-93699025D01*
X93903289Y-93699025D01*
X93908416Y-93698368D01*
X93914056Y-93696676D01*
X94117429Y-93635661D01*
X94117434Y-93635659D01*
X94122384Y-93634174D01*
X94322994Y-93535896D01*
X94504860Y-93406173D01*
X94663096Y-93248489D01*
X94722594Y-93165689D01*
X94793453Y-93067077D01*
X94794776Y-93068028D01*
X94841645Y-93024857D01*
X94911580Y-93012625D01*
X94977026Y-93040144D01*
X95004875Y-93071994D01*
X95064987Y-93170088D01*
X95211250Y-93338938D01*
X95383126Y-93481632D01*
X95576000Y-93594338D01*
X95784692Y-93674030D01*
X95789760Y-93675061D01*
X95789763Y-93675062D01*
X95884862Y-93694410D01*
X96003597Y-93718567D01*
X96008772Y-93718757D01*
X96008774Y-93718757D01*
X96221673Y-93726564D01*
X96221677Y-93726564D01*
X96226837Y-93726753D01*
X96231957Y-93726097D01*
X96231959Y-93726097D01*
X96443288Y-93699025D01*
X96443289Y-93699025D01*
X96448416Y-93698368D01*
X96454056Y-93696676D01*
X96657429Y-93635661D01*
X96657434Y-93635659D01*
X96662384Y-93634174D01*
X96862994Y-93535896D01*
X97044860Y-93406173D01*
X97203096Y-93248489D01*
X97262594Y-93165689D01*
X97333453Y-93067077D01*
X97334776Y-93068028D01*
X97381645Y-93024857D01*
X97451580Y-93012625D01*
X97517026Y-93040144D01*
X97544875Y-93071994D01*
X97604987Y-93170088D01*
X97751250Y-93338938D01*
X97923126Y-93481632D01*
X98116000Y-93594338D01*
X98324692Y-93674030D01*
X98329760Y-93675061D01*
X98329763Y-93675062D01*
X98424862Y-93694410D01*
X98543597Y-93718567D01*
X98548772Y-93718757D01*
X98548774Y-93718757D01*
X98761673Y-93726564D01*
X98761677Y-93726564D01*
X98766837Y-93726753D01*
X98771957Y-93726097D01*
X98771959Y-93726097D01*
X98983288Y-93699025D01*
X98983289Y-93699025D01*
X98988416Y-93698368D01*
X98994056Y-93696676D01*
X99197429Y-93635661D01*
X99197434Y-93635659D01*
X99202384Y-93634174D01*
X99402994Y-93535896D01*
X99584860Y-93406173D01*
X99743096Y-93248489D01*
X99802594Y-93165689D01*
X99873453Y-93067077D01*
X99874640Y-93067930D01*
X99921960Y-93024362D01*
X99991897Y-93012145D01*
X100057338Y-93039678D01*
X100085166Y-93071511D01*
X100142694Y-93165388D01*
X100148777Y-93173699D01*
X100288213Y-93334667D01*
X100295580Y-93341883D01*
X100459434Y-93477916D01*
X100467881Y-93483831D01*
X100651756Y-93591279D01*
X100661042Y-93595729D01*
X100860001Y-93671703D01*
X100869899Y-93674579D01*
X100973250Y-93695606D01*
X100987299Y-93694410D01*
X100991000Y-93684065D01*
X100991000Y-91048102D01*
X100987082Y-91034758D01*
X100972806Y-91032771D01*
X100934324Y-91038660D01*
X100924288Y-91041051D01*
X100721868Y-91107212D01*
X100712359Y-91111209D01*
X100523463Y-91209542D01*
X100514738Y-91215036D01*
X100344433Y-91342905D01*
X100336726Y-91349748D01*
X100189590Y-91503717D01*
X100183109Y-91511722D01*
X100078498Y-91665074D01*
X100023587Y-91710076D01*
X99953062Y-91718247D01*
X99889315Y-91686993D01*
X99868618Y-91662509D01*
X99787822Y-91537617D01*
X99787820Y-91537614D01*
X99785014Y-91533277D01*
X99634670Y-91368051D01*
X99630619Y-91364852D01*
X99630615Y-91364848D01*
X99463414Y-91232800D01*
X99463410Y-91232798D01*
X99459359Y-91229598D01*
X99454831Y-91227098D01*
X99338988Y-91163150D01*
X99263789Y-91121638D01*
X99258920Y-91119914D01*
X99258916Y-91119912D01*
X99058087Y-91048795D01*
X99058083Y-91048794D01*
X99053212Y-91047069D01*
X99048119Y-91046162D01*
X99048116Y-91046161D01*
X98838373Y-91008800D01*
X98838367Y-91008799D01*
X98833284Y-91007894D01*
X98759452Y-91006992D01*
X98615081Y-91005228D01*
X98615079Y-91005228D01*
X98609911Y-91005165D01*
X98389091Y-91038955D01*
X98176756Y-91108357D01*
X98103757Y-91146358D01*
X98002975Y-91198822D01*
X97978607Y-91211507D01*
X97974474Y-91214610D01*
X97974471Y-91214612D01*
X97859926Y-91300615D01*
X97799965Y-91345635D01*
X97774541Y-91372240D01*
X97706280Y-91443671D01*
X97645629Y-91507138D01*
X97538201Y-91664621D01*
X97483293Y-91709621D01*
X97412768Y-91717792D01*
X97349021Y-91686538D01*
X97328324Y-91662054D01*
X97247822Y-91537617D01*
X97247820Y-91537614D01*
X97245014Y-91533277D01*
X97094670Y-91368051D01*
X97090619Y-91364852D01*
X97090615Y-91364848D01*
X96923414Y-91232800D01*
X96923410Y-91232798D01*
X96919359Y-91229598D01*
X96914831Y-91227098D01*
X96798988Y-91163150D01*
X96723789Y-91121638D01*
X96718920Y-91119914D01*
X96718916Y-91119912D01*
X96518087Y-91048795D01*
X96518083Y-91048794D01*
X96513212Y-91047069D01*
X96508119Y-91046162D01*
X96508116Y-91046161D01*
X96298373Y-91008800D01*
X96298367Y-91008799D01*
X96293284Y-91007894D01*
X96219452Y-91006992D01*
X96075081Y-91005228D01*
X96075079Y-91005228D01*
X96069911Y-91005165D01*
X95849091Y-91038955D01*
X95636756Y-91108357D01*
X95563757Y-91146358D01*
X95462975Y-91198822D01*
X95438607Y-91211507D01*
X95434474Y-91214610D01*
X95434471Y-91214612D01*
X95319926Y-91300615D01*
X95259965Y-91345635D01*
X95234541Y-91372240D01*
X95166280Y-91443671D01*
X95105629Y-91507138D01*
X94998201Y-91664621D01*
X94943293Y-91709621D01*
X94872768Y-91717792D01*
X94809021Y-91686538D01*
X94788324Y-91662054D01*
X94707822Y-91537617D01*
X94707820Y-91537614D01*
X94705014Y-91533277D01*
X94554670Y-91368051D01*
X94550619Y-91364852D01*
X94550615Y-91364848D01*
X94383414Y-91232800D01*
X94383410Y-91232798D01*
X94379359Y-91229598D01*
X94374831Y-91227098D01*
X94258988Y-91163150D01*
X94183789Y-91121638D01*
X94178920Y-91119914D01*
X94178916Y-91119912D01*
X93978087Y-91048795D01*
X93978083Y-91048794D01*
X93973212Y-91047069D01*
X93968119Y-91046162D01*
X93968116Y-91046161D01*
X93758373Y-91008800D01*
X93758367Y-91008799D01*
X93753284Y-91007894D01*
X93679452Y-91006992D01*
X93535081Y-91005228D01*
X93535079Y-91005228D01*
X93529911Y-91005165D01*
X93309091Y-91038955D01*
X93096756Y-91108357D01*
X93023757Y-91146358D01*
X92922975Y-91198822D01*
X92898607Y-91211507D01*
X92894474Y-91214610D01*
X92894471Y-91214612D01*
X92779926Y-91300615D01*
X92719965Y-91345635D01*
X92694541Y-91372240D01*
X92626280Y-91443671D01*
X92565629Y-91507138D01*
X92439743Y-91691680D01*
X92345688Y-91894305D01*
X92285989Y-92109570D01*
X92262251Y-92331695D01*
X91408772Y-92331695D01*
X91408772Y-91089867D01*
X91428774Y-91021746D01*
X91445677Y-91000772D01*
X92911895Y-89534554D01*
X92974207Y-89500528D01*
X93000990Y-89497649D01*
X99193480Y-89497649D01*
X99204663Y-89498176D01*
X99212156Y-89499851D01*
X99220082Y-89499602D01*
X99220083Y-89499602D01*
X99280233Y-89497711D01*
X99284192Y-89497649D01*
X99312103Y-89497649D01*
X99316038Y-89497152D01*
X99316103Y-89497144D01*
X99327940Y-89496211D01*
X99360198Y-89495197D01*
X99364217Y-89495071D01*
X99372136Y-89494822D01*
X99391590Y-89489170D01*
X99410947Y-89485162D01*
X99423177Y-89483617D01*
X99423178Y-89483617D01*
X99431044Y-89482623D01*
X99438415Y-89479704D01*
X99438417Y-89479704D01*
X99472159Y-89466345D01*
X99483389Y-89462500D01*
X99518230Y-89452378D01*
X99518231Y-89452378D01*
X99525840Y-89450167D01*
X99532659Y-89446134D01*
X99532664Y-89446132D01*
X99543275Y-89439856D01*
X99561023Y-89431161D01*
X99579864Y-89423701D01*
X99615634Y-89397713D01*
X99625554Y-89391197D01*
X99656782Y-89372729D01*
X99656785Y-89372727D01*
X99663609Y-89368691D01*
X99677930Y-89354370D01*
X99692964Y-89341529D01*
X99702941Y-89334280D01*
X99709354Y-89329621D01*
X99737545Y-89295544D01*
X99745535Y-89286765D01*
X101311896Y-87720405D01*
X101374208Y-87686379D01*
X101400991Y-87683500D01*
X103616405Y-87683500D01*
X103684526Y-87703502D01*
G37*
%TD.AperFunction*%
%TD*%
%TA.AperFunction,Conductor*%
%TO.N,VCC*%
G36*
X84942121Y-80020002D02*
G01*
X84988614Y-80073658D01*
X85000000Y-80126000D01*
X85000000Y-85991044D01*
X84979998Y-86059165D01*
X84926342Y-86105658D01*
X84884982Y-86116565D01*
X84858533Y-86118879D01*
X84777394Y-86125977D01*
X84777389Y-86125978D01*
X84771913Y-86126457D01*
X84766600Y-86127881D01*
X84766598Y-86127881D01*
X84556067Y-86184293D01*
X84556065Y-86184294D01*
X84550757Y-86185716D01*
X84545776Y-86188039D01*
X84545775Y-86188039D01*
X84348238Y-86280151D01*
X84348233Y-86280154D01*
X84343251Y-86282477D01*
X84238389Y-86355902D01*
X84160211Y-86410643D01*
X84160208Y-86410645D01*
X84155700Y-86413802D01*
X83993802Y-86575700D01*
X83862477Y-86763251D01*
X83860154Y-86768233D01*
X83860151Y-86768238D01*
X83784781Y-86929871D01*
X83765716Y-86970757D01*
X83764294Y-86976065D01*
X83764293Y-86976067D01*
X83719767Y-87142240D01*
X83706457Y-87191913D01*
X83686502Y-87420000D01*
X83706457Y-87648087D01*
X83707881Y-87653400D01*
X83707881Y-87653402D01*
X83745732Y-87794661D01*
X83765716Y-87869243D01*
X83768039Y-87874224D01*
X83768039Y-87874225D01*
X83860151Y-88071762D01*
X83860154Y-88071767D01*
X83862477Y-88076749D01*
X83993802Y-88264300D01*
X84155700Y-88426198D01*
X84160208Y-88429355D01*
X84160211Y-88429357D01*
X84238389Y-88484098D01*
X84343251Y-88557523D01*
X84348233Y-88559846D01*
X84348238Y-88559849D01*
X84422184Y-88594330D01*
X84550757Y-88654284D01*
X84556065Y-88655706D01*
X84556067Y-88655707D01*
X84766598Y-88712119D01*
X84766600Y-88712119D01*
X84771913Y-88713543D01*
X84777389Y-88714022D01*
X84777394Y-88714023D01*
X84858533Y-88721121D01*
X84884982Y-88723435D01*
X84951100Y-88749298D01*
X84992739Y-88806802D01*
X85000000Y-88848956D01*
X85000000Y-96151044D01*
X84979998Y-96219165D01*
X84926342Y-96265658D01*
X84884982Y-96276565D01*
X84858533Y-96278879D01*
X84777394Y-96285977D01*
X84777389Y-96285978D01*
X84771913Y-96286457D01*
X84766600Y-96287881D01*
X84766598Y-96287881D01*
X84556067Y-96344293D01*
X84556065Y-96344294D01*
X84550757Y-96345716D01*
X84545776Y-96348039D01*
X84545775Y-96348039D01*
X84348238Y-96440151D01*
X84348233Y-96440154D01*
X84343251Y-96442477D01*
X84286080Y-96482509D01*
X84160211Y-96570643D01*
X84160208Y-96570645D01*
X84155700Y-96573802D01*
X83993802Y-96735700D01*
X83862477Y-96923251D01*
X83860154Y-96928233D01*
X83860151Y-96928238D01*
X83860034Y-96928489D01*
X83765716Y-97130757D01*
X83764294Y-97136065D01*
X83764293Y-97136067D01*
X83707881Y-97346598D01*
X83706457Y-97351913D01*
X83686502Y-97580000D01*
X83706457Y-97808087D01*
X83707881Y-97813400D01*
X83707881Y-97813402D01*
X83758184Y-98001132D01*
X83765716Y-98029243D01*
X83768039Y-98034224D01*
X83768039Y-98034225D01*
X83860151Y-98231762D01*
X83860154Y-98231767D01*
X83862477Y-98236749D01*
X83993802Y-98424300D01*
X84155700Y-98586198D01*
X84160208Y-98589355D01*
X84160211Y-98589357D01*
X84312771Y-98696181D01*
X84357099Y-98751638D01*
X84366500Y-98799394D01*
X84366500Y-101797476D01*
X84346498Y-101865597D01*
X84334142Y-101881779D01*
X84260960Y-101963056D01*
X84165473Y-102128444D01*
X84106458Y-102310072D01*
X84105768Y-102316633D01*
X84105768Y-102316635D01*
X84087186Y-102493435D01*
X84086496Y-102500000D01*
X84106458Y-102689928D01*
X84165473Y-102871556D01*
X84260960Y-103036944D01*
X84388747Y-103178866D01*
X84423740Y-103204290D01*
X84467094Y-103260512D01*
X84473169Y-103331249D01*
X84438774Y-103395321D01*
X82067747Y-105766348D01*
X82059461Y-105773888D01*
X82052982Y-105778000D01*
X82047557Y-105783777D01*
X82006357Y-105827651D01*
X82003602Y-105830493D01*
X81983865Y-105850230D01*
X81981385Y-105853427D01*
X81973682Y-105862447D01*
X81943414Y-105894679D01*
X81939595Y-105901625D01*
X81939593Y-105901628D01*
X81933652Y-105912434D01*
X81922801Y-105928953D01*
X81910386Y-105944959D01*
X81907241Y-105952228D01*
X81907238Y-105952232D01*
X81892826Y-105985537D01*
X81887609Y-105996187D01*
X81866305Y-106034940D01*
X81864334Y-106042615D01*
X81864334Y-106042616D01*
X81861267Y-106054562D01*
X81854863Y-106073266D01*
X81846819Y-106091855D01*
X81845580Y-106099678D01*
X81845577Y-106099688D01*
X81839901Y-106135524D01*
X81837495Y-106147144D01*
X81828472Y-106182289D01*
X81826500Y-106189970D01*
X81826500Y-106210224D01*
X81824949Y-106229932D01*
X81822970Y-106242429D01*
X81792560Y-106306582D01*
X81756701Y-106334484D01*
X81738203Y-106344113D01*
X81738189Y-106344122D01*
X81733607Y-106346507D01*
X81554965Y-106480635D01*
X81529541Y-106507240D01*
X81461280Y-106578671D01*
X81400629Y-106642138D01*
X81274743Y-106826680D01*
X81180688Y-107029305D01*
X81120989Y-107244570D01*
X81097251Y-107466695D01*
X81110110Y-107689715D01*
X81111247Y-107694761D01*
X81111248Y-107694767D01*
X81124597Y-107754000D01*
X81159222Y-107907639D01*
X81243266Y-108114616D01*
X81359987Y-108305088D01*
X81506250Y-108473938D01*
X81678126Y-108616632D01*
X81871000Y-108729338D01*
X82079692Y-108809030D01*
X82084760Y-108810061D01*
X82084763Y-108810062D01*
X82179862Y-108829410D01*
X82298597Y-108853567D01*
X82303772Y-108853757D01*
X82303774Y-108853757D01*
X82516673Y-108861564D01*
X82516677Y-108861564D01*
X82521837Y-108861753D01*
X82526957Y-108861097D01*
X82526959Y-108861097D01*
X82738288Y-108834025D01*
X82738289Y-108834025D01*
X82743416Y-108833368D01*
X82748366Y-108831883D01*
X82952429Y-108770661D01*
X82952434Y-108770659D01*
X82957384Y-108769174D01*
X83157994Y-108670896D01*
X83339860Y-108541173D01*
X83448091Y-108433319D01*
X83510462Y-108399404D01*
X83581268Y-108404592D01*
X83638030Y-108447238D01*
X83655012Y-108478341D01*
X83677055Y-108537139D01*
X83699385Y-108596705D01*
X83786739Y-108713261D01*
X83903295Y-108800615D01*
X84039684Y-108851745D01*
X84101866Y-108858500D01*
X84874000Y-108858500D01*
X84942121Y-108878502D01*
X84988614Y-108932158D01*
X85000000Y-108984500D01*
X85000000Y-109365500D01*
X84979998Y-109433621D01*
X84926342Y-109480114D01*
X84874000Y-109491500D01*
X48731771Y-109491500D01*
X48663650Y-109471498D01*
X48617157Y-109417842D01*
X48607053Y-109347568D01*
X48636547Y-109282988D01*
X48659320Y-109262413D01*
X48830023Y-109142441D01*
X48908403Y-109069606D01*
X49037479Y-108949661D01*
X49037481Y-108949658D01*
X49040622Y-108946740D01*
X49222713Y-108724268D01*
X49372927Y-108479142D01*
X49376927Y-108470031D01*
X49408487Y-108398134D01*
X66141500Y-108398134D01*
X66148255Y-108460316D01*
X66199385Y-108596705D01*
X66286739Y-108713261D01*
X66403295Y-108800615D01*
X66539684Y-108851745D01*
X66601866Y-108858500D01*
X68398134Y-108858500D01*
X68460316Y-108851745D01*
X68596705Y-108800615D01*
X68713261Y-108713261D01*
X68800615Y-108596705D01*
X68822945Y-108537139D01*
X68844798Y-108478848D01*
X68887440Y-108422084D01*
X68954001Y-108397384D01*
X69023350Y-108412592D01*
X69058017Y-108440580D01*
X69083218Y-108469673D01*
X69090580Y-108476883D01*
X69254434Y-108612916D01*
X69262881Y-108618831D01*
X69446756Y-108726279D01*
X69456042Y-108730729D01*
X69655001Y-108806703D01*
X69664899Y-108809579D01*
X69768250Y-108830606D01*
X69782299Y-108829410D01*
X69786000Y-108819065D01*
X69786000Y-108818517D01*
X70294000Y-108818517D01*
X70298064Y-108832359D01*
X70311478Y-108834393D01*
X70318184Y-108833534D01*
X70328262Y-108831392D01*
X70532255Y-108770191D01*
X70541842Y-108766433D01*
X70733095Y-108672739D01*
X70741945Y-108667464D01*
X70915328Y-108543792D01*
X70923200Y-108537139D01*
X71074052Y-108386812D01*
X71080730Y-108378965D01*
X71205003Y-108206020D01*
X71210313Y-108197183D01*
X71304670Y-108006267D01*
X71308469Y-107996672D01*
X71370377Y-107792910D01*
X71372555Y-107782837D01*
X71373986Y-107771962D01*
X71371775Y-107757778D01*
X71358617Y-107754000D01*
X70312115Y-107754000D01*
X70296876Y-107758475D01*
X70295671Y-107759865D01*
X70294000Y-107767548D01*
X70294000Y-108818517D01*
X69786000Y-108818517D01*
X69786000Y-107466695D01*
X73597251Y-107466695D01*
X73610110Y-107689715D01*
X73611247Y-107694761D01*
X73611248Y-107694767D01*
X73624597Y-107754000D01*
X73659222Y-107907639D01*
X73743266Y-108114616D01*
X73859987Y-108305088D01*
X74006250Y-108473938D01*
X74178126Y-108616632D01*
X74371000Y-108729338D01*
X74579692Y-108809030D01*
X74584760Y-108810061D01*
X74584763Y-108810062D01*
X74679862Y-108829410D01*
X74798597Y-108853567D01*
X74803772Y-108853757D01*
X74803774Y-108853757D01*
X75016673Y-108861564D01*
X75016677Y-108861564D01*
X75021837Y-108861753D01*
X75026957Y-108861097D01*
X75026959Y-108861097D01*
X75238288Y-108834025D01*
X75238289Y-108834025D01*
X75243416Y-108833368D01*
X75248366Y-108831883D01*
X75452429Y-108770661D01*
X75452434Y-108770659D01*
X75457384Y-108769174D01*
X75657994Y-108670896D01*
X75839860Y-108541173D01*
X75948091Y-108433319D01*
X76010462Y-108399404D01*
X76081268Y-108404592D01*
X76138030Y-108447238D01*
X76155012Y-108478341D01*
X76177055Y-108537139D01*
X76199385Y-108596705D01*
X76286739Y-108713261D01*
X76403295Y-108800615D01*
X76539684Y-108851745D01*
X76601866Y-108858500D01*
X78398134Y-108858500D01*
X78460316Y-108851745D01*
X78596705Y-108800615D01*
X78713261Y-108713261D01*
X78800615Y-108596705D01*
X78851745Y-108460316D01*
X78858500Y-108398134D01*
X78858500Y-106601866D01*
X78851745Y-106539684D01*
X78800615Y-106403295D01*
X78713261Y-106286739D01*
X78596705Y-106199385D01*
X78460316Y-106148255D01*
X78398134Y-106141500D01*
X76601866Y-106141500D01*
X76539684Y-106148255D01*
X76403295Y-106199385D01*
X76286739Y-106286739D01*
X76199385Y-106403295D01*
X76196233Y-106411703D01*
X76154919Y-106521907D01*
X76112277Y-106578671D01*
X76045716Y-106603371D01*
X75976367Y-106588163D01*
X75943743Y-106562476D01*
X75893151Y-106506875D01*
X75893142Y-106506866D01*
X75889670Y-106503051D01*
X75885616Y-106499849D01*
X75885615Y-106499848D01*
X75718414Y-106367800D01*
X75718410Y-106367798D01*
X75714359Y-106364598D01*
X75687216Y-106349614D01*
X75659807Y-106334484D01*
X75518789Y-106256638D01*
X75513920Y-106254914D01*
X75513916Y-106254912D01*
X75313087Y-106183795D01*
X75313083Y-106183794D01*
X75308212Y-106182069D01*
X75303119Y-106181162D01*
X75303116Y-106181161D01*
X75093373Y-106143800D01*
X75093367Y-106143799D01*
X75088284Y-106142894D01*
X75014452Y-106141992D01*
X74870081Y-106140228D01*
X74870079Y-106140228D01*
X74864911Y-106140165D01*
X74644091Y-106173955D01*
X74431756Y-106243357D01*
X74233607Y-106346507D01*
X74229474Y-106349610D01*
X74229471Y-106349612D01*
X74142116Y-106415200D01*
X74054965Y-106480635D01*
X74029541Y-106507240D01*
X73961280Y-106578671D01*
X73900629Y-106642138D01*
X73774743Y-106826680D01*
X73680688Y-107029305D01*
X73620989Y-107244570D01*
X73597251Y-107466695D01*
X69786000Y-107466695D01*
X69786000Y-107227885D01*
X70294000Y-107227885D01*
X70298475Y-107243124D01*
X70299865Y-107244329D01*
X70307548Y-107246000D01*
X71358344Y-107246000D01*
X71371875Y-107242027D01*
X71373180Y-107232947D01*
X71331214Y-107065875D01*
X71327894Y-107056124D01*
X71242972Y-106860814D01*
X71238105Y-106851739D01*
X71122426Y-106672926D01*
X71116136Y-106664757D01*
X70972806Y-106507240D01*
X70965273Y-106500215D01*
X70798139Y-106368222D01*
X70789552Y-106362517D01*
X70603117Y-106259599D01*
X70593705Y-106255369D01*
X70392959Y-106184280D01*
X70382988Y-106181646D01*
X70311837Y-106168972D01*
X70298540Y-106170432D01*
X70294000Y-106184989D01*
X70294000Y-107227885D01*
X69786000Y-107227885D01*
X69786000Y-106183102D01*
X69782082Y-106169758D01*
X69767806Y-106167771D01*
X69729324Y-106173660D01*
X69719288Y-106176051D01*
X69516868Y-106242212D01*
X69507359Y-106246209D01*
X69318463Y-106344542D01*
X69309738Y-106350036D01*
X69139433Y-106477905D01*
X69131726Y-106484748D01*
X69054478Y-106565584D01*
X68992954Y-106601014D01*
X68922042Y-106597557D01*
X68864255Y-106556311D01*
X68845402Y-106522763D01*
X68803767Y-106411703D01*
X68800615Y-106403295D01*
X68713261Y-106286739D01*
X68596705Y-106199385D01*
X68460316Y-106148255D01*
X68398134Y-106141500D01*
X66601866Y-106141500D01*
X66539684Y-106148255D01*
X66403295Y-106199385D01*
X66286739Y-106286739D01*
X66199385Y-106403295D01*
X66148255Y-106539684D01*
X66141500Y-106601866D01*
X66141500Y-108398134D01*
X49408487Y-108398134D01*
X49486757Y-108219830D01*
X49488483Y-108215898D01*
X49491507Y-108205284D01*
X49566068Y-107943534D01*
X49567244Y-107939406D01*
X49607751Y-107654784D01*
X49608710Y-107471851D01*
X49609235Y-107371583D01*
X49609235Y-107371576D01*
X49609257Y-107367297D01*
X49571732Y-107082266D01*
X49495871Y-106804964D01*
X49428242Y-106646411D01*
X49384763Y-106544476D01*
X49384761Y-106544472D01*
X49383077Y-106540524D01*
X49279704Y-106367800D01*
X49237643Y-106297521D01*
X49237640Y-106297517D01*
X49235439Y-106293839D01*
X49055687Y-106069472D01*
X48899353Y-105921117D01*
X48850258Y-105874527D01*
X48850255Y-105874525D01*
X48847149Y-105871577D01*
X48613683Y-105703814D01*
X48591843Y-105692250D01*
X48568654Y-105679972D01*
X48359608Y-105569288D01*
X48224617Y-105519888D01*
X48093658Y-105471964D01*
X48093656Y-105471963D01*
X48089627Y-105470489D01*
X47808736Y-105409245D01*
X47616114Y-105394086D01*
X47549773Y-105368801D01*
X47507633Y-105311663D01*
X47500000Y-105268474D01*
X47500000Y-103000000D01*
X58686502Y-103000000D01*
X58706457Y-103228087D01*
X58707881Y-103233400D01*
X58707881Y-103233402D01*
X58751268Y-103395321D01*
X58765716Y-103449243D01*
X58768039Y-103454224D01*
X58768039Y-103454225D01*
X58860151Y-103651762D01*
X58860154Y-103651767D01*
X58862477Y-103656749D01*
X58993802Y-103844300D01*
X59155700Y-104006198D01*
X59160208Y-104009355D01*
X59160211Y-104009357D01*
X59238389Y-104064098D01*
X59343251Y-104137523D01*
X59348233Y-104139846D01*
X59348238Y-104139849D01*
X59545775Y-104231961D01*
X59550757Y-104234284D01*
X59556065Y-104235706D01*
X59556067Y-104235707D01*
X59766598Y-104292119D01*
X59766600Y-104292119D01*
X59771913Y-104293543D01*
X60000000Y-104313498D01*
X60228087Y-104293543D01*
X60233400Y-104292119D01*
X60233402Y-104292119D01*
X60443933Y-104235707D01*
X60443935Y-104235706D01*
X60449243Y-104234284D01*
X60454225Y-104231961D01*
X60651762Y-104139849D01*
X60651767Y-104139846D01*
X60656749Y-104137523D01*
X60761611Y-104064098D01*
X60839789Y-104009357D01*
X60839792Y-104009355D01*
X60844300Y-104006198D01*
X61006198Y-103844300D01*
X61137523Y-103656749D01*
X61139846Y-103651767D01*
X61139849Y-103651762D01*
X61231961Y-103454225D01*
X61231961Y-103454224D01*
X61234284Y-103449243D01*
X61248733Y-103395321D01*
X61292119Y-103233402D01*
X61292119Y-103233400D01*
X61293543Y-103228087D01*
X61313498Y-103000000D01*
X68686502Y-103000000D01*
X68706457Y-103228087D01*
X68707881Y-103233400D01*
X68707881Y-103233402D01*
X68751268Y-103395321D01*
X68765716Y-103449243D01*
X68768039Y-103454224D01*
X68768039Y-103454225D01*
X68860151Y-103651762D01*
X68860154Y-103651767D01*
X68862477Y-103656749D01*
X68993802Y-103844300D01*
X69155700Y-104006198D01*
X69160208Y-104009355D01*
X69160211Y-104009357D01*
X69238389Y-104064098D01*
X69343251Y-104137523D01*
X69348233Y-104139846D01*
X69348238Y-104139849D01*
X69545775Y-104231961D01*
X69550757Y-104234284D01*
X69556065Y-104235706D01*
X69556067Y-104235707D01*
X69766598Y-104292119D01*
X69766600Y-104292119D01*
X69771913Y-104293543D01*
X70000000Y-104313498D01*
X70228087Y-104293543D01*
X70233400Y-104292119D01*
X70233402Y-104292119D01*
X70443933Y-104235707D01*
X70443935Y-104235706D01*
X70449243Y-104234284D01*
X70454225Y-104231961D01*
X70651762Y-104139849D01*
X70651767Y-104139846D01*
X70656749Y-104137523D01*
X70761611Y-104064098D01*
X70839789Y-104009357D01*
X70839792Y-104009355D01*
X70844300Y-104006198D01*
X71006198Y-103844300D01*
X71137523Y-103656749D01*
X71139846Y-103651767D01*
X71139849Y-103651762D01*
X71231961Y-103454225D01*
X71231961Y-103454224D01*
X71234284Y-103449243D01*
X71248733Y-103395321D01*
X71292119Y-103233402D01*
X71292119Y-103233400D01*
X71293543Y-103228087D01*
X71313498Y-103000000D01*
X71293543Y-102771913D01*
X71271575Y-102689928D01*
X71235707Y-102556067D01*
X71235706Y-102556065D01*
X71234284Y-102550757D01*
X71210616Y-102500000D01*
X71139849Y-102348238D01*
X71139846Y-102348233D01*
X71137523Y-102343251D01*
X71006198Y-102155700D01*
X70844300Y-101993802D01*
X70839792Y-101990645D01*
X70839789Y-101990643D01*
X70684326Y-101881787D01*
X70656749Y-101862477D01*
X70651767Y-101860154D01*
X70651762Y-101860151D01*
X70454225Y-101768039D01*
X70454224Y-101768039D01*
X70449243Y-101765716D01*
X70443935Y-101764294D01*
X70443933Y-101764293D01*
X70233402Y-101707881D01*
X70233400Y-101707881D01*
X70228087Y-101706457D01*
X70000000Y-101686502D01*
X69771913Y-101706457D01*
X69766600Y-101707881D01*
X69766598Y-101707881D01*
X69556067Y-101764293D01*
X69556065Y-101764294D01*
X69550757Y-101765716D01*
X69545776Y-101768039D01*
X69545775Y-101768039D01*
X69348238Y-101860151D01*
X69348233Y-101860154D01*
X69343251Y-101862477D01*
X69315674Y-101881787D01*
X69160211Y-101990643D01*
X69160208Y-101990645D01*
X69155700Y-101993802D01*
X68993802Y-102155700D01*
X68862477Y-102343251D01*
X68860154Y-102348233D01*
X68860151Y-102348238D01*
X68789384Y-102500000D01*
X68765716Y-102550757D01*
X68764294Y-102556065D01*
X68764293Y-102556067D01*
X68728425Y-102689928D01*
X68706457Y-102771913D01*
X68686502Y-103000000D01*
X61313498Y-103000000D01*
X61293543Y-102771913D01*
X61271575Y-102689928D01*
X61235707Y-102556067D01*
X61235706Y-102556065D01*
X61234284Y-102550757D01*
X61210616Y-102500000D01*
X61139849Y-102348238D01*
X61139846Y-102348233D01*
X61137523Y-102343251D01*
X61006198Y-102155700D01*
X60844300Y-101993802D01*
X60839792Y-101990645D01*
X60839789Y-101990643D01*
X60684326Y-101881787D01*
X60656749Y-101862477D01*
X60651767Y-101860154D01*
X60651762Y-101860151D01*
X60454225Y-101768039D01*
X60454224Y-101768039D01*
X60449243Y-101765716D01*
X60443935Y-101764294D01*
X60443933Y-101764293D01*
X60233402Y-101707881D01*
X60233400Y-101707881D01*
X60228087Y-101706457D01*
X60000000Y-101686502D01*
X59771913Y-101706457D01*
X59766600Y-101707881D01*
X59766598Y-101707881D01*
X59556067Y-101764293D01*
X59556065Y-101764294D01*
X59550757Y-101765716D01*
X59545776Y-101768039D01*
X59545775Y-101768039D01*
X59348238Y-101860151D01*
X59348233Y-101860154D01*
X59343251Y-101862477D01*
X59315674Y-101881787D01*
X59160211Y-101990643D01*
X59160208Y-101990645D01*
X59155700Y-101993802D01*
X58993802Y-102155700D01*
X58862477Y-102343251D01*
X58860154Y-102348233D01*
X58860151Y-102348238D01*
X58789384Y-102500000D01*
X58765716Y-102550757D01*
X58764294Y-102556065D01*
X58764293Y-102556067D01*
X58728425Y-102689928D01*
X58706457Y-102771913D01*
X58686502Y-103000000D01*
X47500000Y-103000000D01*
X47500000Y-99086062D01*
X59278493Y-99086062D01*
X59287789Y-99098077D01*
X59338994Y-99133931D01*
X59348489Y-99139414D01*
X59545947Y-99231490D01*
X59556239Y-99235236D01*
X59766688Y-99291625D01*
X59777481Y-99293528D01*
X59994525Y-99312517D01*
X60005475Y-99312517D01*
X60222519Y-99293528D01*
X60233312Y-99291625D01*
X60443761Y-99235236D01*
X60454053Y-99231490D01*
X60651511Y-99139414D01*
X60661006Y-99133931D01*
X60713048Y-99097491D01*
X60721424Y-99087012D01*
X60720925Y-99086062D01*
X69278493Y-99086062D01*
X69287789Y-99098077D01*
X69338994Y-99133931D01*
X69348489Y-99139414D01*
X69545947Y-99231490D01*
X69556239Y-99235236D01*
X69766688Y-99291625D01*
X69777481Y-99293528D01*
X69994525Y-99312517D01*
X70005475Y-99312517D01*
X70222519Y-99293528D01*
X70233312Y-99291625D01*
X70443761Y-99235236D01*
X70454053Y-99231490D01*
X70651511Y-99139414D01*
X70661006Y-99133931D01*
X70713048Y-99097491D01*
X70721424Y-99087012D01*
X70714356Y-99073566D01*
X70012812Y-98372022D01*
X69998868Y-98364408D01*
X69997035Y-98364539D01*
X69990420Y-98368790D01*
X69284923Y-99074287D01*
X69278493Y-99086062D01*
X60720925Y-99086062D01*
X60714356Y-99073566D01*
X60012812Y-98372022D01*
X59998868Y-98364408D01*
X59997035Y-98364539D01*
X59990420Y-98368790D01*
X59284923Y-99074287D01*
X59278493Y-99086062D01*
X47500000Y-99086062D01*
X47500000Y-98005475D01*
X58687483Y-98005475D01*
X58706472Y-98222519D01*
X58708375Y-98233312D01*
X58764764Y-98443761D01*
X58768510Y-98454053D01*
X58860586Y-98651511D01*
X58866069Y-98661006D01*
X58902509Y-98713048D01*
X58912988Y-98721424D01*
X58926434Y-98714356D01*
X59627978Y-98012812D01*
X59634356Y-98001132D01*
X60364408Y-98001132D01*
X60364539Y-98002965D01*
X60368790Y-98009580D01*
X61074287Y-98715077D01*
X61086062Y-98721507D01*
X61098077Y-98712211D01*
X61133931Y-98661006D01*
X61139414Y-98651511D01*
X61231490Y-98454053D01*
X61235236Y-98443761D01*
X61291625Y-98233312D01*
X61293528Y-98222519D01*
X61312517Y-98005475D01*
X68687483Y-98005475D01*
X68706472Y-98222519D01*
X68708375Y-98233312D01*
X68764764Y-98443761D01*
X68768510Y-98454053D01*
X68860586Y-98651511D01*
X68866069Y-98661006D01*
X68902509Y-98713048D01*
X68912988Y-98721424D01*
X68926434Y-98714356D01*
X69627978Y-98012812D01*
X69634356Y-98001132D01*
X70364408Y-98001132D01*
X70364539Y-98002965D01*
X70368790Y-98009580D01*
X71074287Y-98715077D01*
X71086062Y-98721507D01*
X71098077Y-98712211D01*
X71130391Y-98666062D01*
X79278493Y-98666062D01*
X79287789Y-98678077D01*
X79338994Y-98713931D01*
X79348489Y-98719414D01*
X79545947Y-98811490D01*
X79556239Y-98815236D01*
X79766688Y-98871625D01*
X79777481Y-98873528D01*
X79994525Y-98892517D01*
X80005475Y-98892517D01*
X80222519Y-98873528D01*
X80233312Y-98871625D01*
X80443761Y-98815236D01*
X80454053Y-98811490D01*
X80651511Y-98719414D01*
X80661006Y-98713931D01*
X80713048Y-98677491D01*
X80721424Y-98667012D01*
X80714356Y-98653566D01*
X80012812Y-97952022D01*
X79998868Y-97944408D01*
X79997035Y-97944539D01*
X79990420Y-97948790D01*
X79284923Y-98654287D01*
X79278493Y-98666062D01*
X71130391Y-98666062D01*
X71133931Y-98661006D01*
X71139414Y-98651511D01*
X71231490Y-98454053D01*
X71235236Y-98443761D01*
X71291625Y-98233312D01*
X71293528Y-98222519D01*
X71312517Y-98005475D01*
X71312517Y-97994525D01*
X71293528Y-97777481D01*
X71291625Y-97766688D01*
X71243070Y-97585475D01*
X78687483Y-97585475D01*
X78706472Y-97802519D01*
X78708375Y-97813312D01*
X78764764Y-98023761D01*
X78768510Y-98034053D01*
X78860586Y-98231511D01*
X78866069Y-98241006D01*
X78902509Y-98293048D01*
X78912988Y-98301424D01*
X78926434Y-98294356D01*
X79627978Y-97592812D01*
X79634356Y-97581132D01*
X80364408Y-97581132D01*
X80364539Y-97582965D01*
X80368790Y-97589580D01*
X81074287Y-98295077D01*
X81086062Y-98301507D01*
X81098077Y-98292211D01*
X81133931Y-98241006D01*
X81139414Y-98231511D01*
X81231490Y-98034053D01*
X81235236Y-98023761D01*
X81291625Y-97813312D01*
X81293528Y-97802519D01*
X81312517Y-97585475D01*
X81312517Y-97574525D01*
X81293528Y-97357481D01*
X81291625Y-97346688D01*
X81235236Y-97136239D01*
X81231490Y-97125947D01*
X81139414Y-96928489D01*
X81133931Y-96918994D01*
X81097491Y-96866952D01*
X81087012Y-96858576D01*
X81073566Y-96865644D01*
X80372022Y-97567188D01*
X80364408Y-97581132D01*
X79634356Y-97581132D01*
X79635592Y-97578868D01*
X79635461Y-97577035D01*
X79631210Y-97570420D01*
X78925713Y-96864923D01*
X78913938Y-96858493D01*
X78901923Y-96867789D01*
X78866069Y-96918994D01*
X78860586Y-96928489D01*
X78768510Y-97125947D01*
X78764764Y-97136239D01*
X78708375Y-97346688D01*
X78706472Y-97357481D01*
X78687483Y-97574525D01*
X78687483Y-97585475D01*
X71243070Y-97585475D01*
X71235236Y-97556239D01*
X71231490Y-97545947D01*
X71139414Y-97348489D01*
X71133931Y-97338994D01*
X71097491Y-97286952D01*
X71087012Y-97278576D01*
X71073566Y-97285644D01*
X70372022Y-97987188D01*
X70364408Y-98001132D01*
X69634356Y-98001132D01*
X69635592Y-97998868D01*
X69635461Y-97997035D01*
X69631210Y-97990420D01*
X68925713Y-97284923D01*
X68913938Y-97278493D01*
X68901923Y-97287789D01*
X68866069Y-97338994D01*
X68860586Y-97348489D01*
X68768510Y-97545947D01*
X68764764Y-97556239D01*
X68708375Y-97766688D01*
X68706472Y-97777481D01*
X68687483Y-97994525D01*
X68687483Y-98005475D01*
X61312517Y-98005475D01*
X61312517Y-97994525D01*
X61293528Y-97777481D01*
X61291625Y-97766688D01*
X61235236Y-97556239D01*
X61231490Y-97545947D01*
X61139414Y-97348489D01*
X61133931Y-97338994D01*
X61097491Y-97286952D01*
X61087012Y-97278576D01*
X61073566Y-97285644D01*
X60372022Y-97987188D01*
X60364408Y-98001132D01*
X59634356Y-98001132D01*
X59635592Y-97998868D01*
X59635461Y-97997035D01*
X59631210Y-97990420D01*
X58925713Y-97284923D01*
X58913938Y-97278493D01*
X58901923Y-97287789D01*
X58866069Y-97338994D01*
X58860586Y-97348489D01*
X58768510Y-97545947D01*
X58764764Y-97556239D01*
X58708375Y-97766688D01*
X58706472Y-97777481D01*
X58687483Y-97994525D01*
X58687483Y-98005475D01*
X47500000Y-98005475D01*
X47500000Y-96912988D01*
X59278576Y-96912988D01*
X59285644Y-96926434D01*
X59987188Y-97627978D01*
X60001132Y-97635592D01*
X60002965Y-97635461D01*
X60009580Y-97631210D01*
X60715077Y-96925713D01*
X60721507Y-96913938D01*
X60720772Y-96912988D01*
X69278576Y-96912988D01*
X69285644Y-96926434D01*
X69987188Y-97627978D01*
X70001132Y-97635592D01*
X70002965Y-97635461D01*
X70009580Y-97631210D01*
X70715077Y-96925713D01*
X70721507Y-96913938D01*
X70712211Y-96901923D01*
X70661006Y-96866069D01*
X70651511Y-96860586D01*
X70454053Y-96768510D01*
X70443761Y-96764764D01*
X70233312Y-96708375D01*
X70222519Y-96706472D01*
X70005475Y-96687483D01*
X69994525Y-96687483D01*
X69777481Y-96706472D01*
X69766688Y-96708375D01*
X69556239Y-96764764D01*
X69545947Y-96768510D01*
X69348489Y-96860586D01*
X69338994Y-96866069D01*
X69286952Y-96902509D01*
X69278576Y-96912988D01*
X60720772Y-96912988D01*
X60712211Y-96901923D01*
X60661006Y-96866069D01*
X60651511Y-96860586D01*
X60454053Y-96768510D01*
X60443761Y-96764764D01*
X60233312Y-96708375D01*
X60222519Y-96706472D01*
X60005475Y-96687483D01*
X59994525Y-96687483D01*
X59777481Y-96706472D01*
X59766688Y-96708375D01*
X59556239Y-96764764D01*
X59545947Y-96768510D01*
X59348489Y-96860586D01*
X59338994Y-96866069D01*
X59286952Y-96902509D01*
X59278576Y-96912988D01*
X47500000Y-96912988D01*
X47500000Y-96492988D01*
X79278576Y-96492988D01*
X79285644Y-96506434D01*
X79987188Y-97207978D01*
X80001132Y-97215592D01*
X80002965Y-97215461D01*
X80009580Y-97211210D01*
X80715077Y-96505713D01*
X80721507Y-96493938D01*
X80712211Y-96481923D01*
X80661006Y-96446069D01*
X80651511Y-96440586D01*
X80454053Y-96348510D01*
X80443761Y-96344764D01*
X80233312Y-96288375D01*
X80222519Y-96286472D01*
X80005475Y-96267483D01*
X79994525Y-96267483D01*
X79777481Y-96286472D01*
X79766688Y-96288375D01*
X79556239Y-96344764D01*
X79545947Y-96348510D01*
X79348489Y-96440586D01*
X79338994Y-96446069D01*
X79286952Y-96482509D01*
X79278576Y-96492988D01*
X47500000Y-96492988D01*
X47500000Y-94380634D01*
X50491500Y-94380634D01*
X50498255Y-94442816D01*
X50549385Y-94579205D01*
X50636739Y-94695761D01*
X50753295Y-94783115D01*
X50889684Y-94834245D01*
X50951866Y-94841000D01*
X54048134Y-94841000D01*
X54110316Y-94834245D01*
X54246705Y-94783115D01*
X54363261Y-94695761D01*
X54448146Y-94582500D01*
X57444335Y-94582500D01*
X57462965Y-94819211D01*
X57518395Y-95050094D01*
X57609260Y-95269463D01*
X57611846Y-95273683D01*
X57730741Y-95467702D01*
X57730745Y-95467708D01*
X57733324Y-95471916D01*
X57887531Y-95652469D01*
X58068084Y-95806676D01*
X58072292Y-95809255D01*
X58072298Y-95809259D01*
X58266317Y-95928154D01*
X58270537Y-95930740D01*
X58275107Y-95932633D01*
X58275111Y-95932635D01*
X58485333Y-96019711D01*
X58489906Y-96021605D01*
X58570109Y-96040860D01*
X58715976Y-96075880D01*
X58715982Y-96075881D01*
X58720789Y-96077035D01*
X58957500Y-96095665D01*
X59194211Y-96077035D01*
X59199018Y-96075881D01*
X59199024Y-96075880D01*
X59344891Y-96040860D01*
X59425094Y-96021605D01*
X59429667Y-96019711D01*
X59639889Y-95932635D01*
X59639893Y-95932633D01*
X59644463Y-95930740D01*
X59648683Y-95928154D01*
X59842702Y-95809259D01*
X59842708Y-95809255D01*
X59846916Y-95806676D01*
X60027469Y-95652469D01*
X60181676Y-95471916D01*
X60184255Y-95467708D01*
X60184259Y-95467702D01*
X60303154Y-95273683D01*
X60305740Y-95269463D01*
X60396605Y-95050094D01*
X60452035Y-94819211D01*
X60470665Y-94582500D01*
X60452035Y-94345789D01*
X60440222Y-94296585D01*
X60443769Y-94225678D01*
X60485089Y-94167943D01*
X60551062Y-94141713D01*
X60587861Y-94143701D01*
X60791018Y-94185034D01*
X60791022Y-94185034D01*
X60796097Y-94186067D01*
X60801272Y-94186257D01*
X60801274Y-94186257D01*
X61014173Y-94194064D01*
X61014177Y-94194064D01*
X61019337Y-94194253D01*
X61024457Y-94193597D01*
X61024459Y-94193597D01*
X61235788Y-94166525D01*
X61235789Y-94166525D01*
X61240916Y-94165868D01*
X61247509Y-94163890D01*
X61449929Y-94103161D01*
X61449934Y-94103159D01*
X61454884Y-94101674D01*
X61655494Y-94003396D01*
X61837360Y-93873673D01*
X61995596Y-93715989D01*
X62055094Y-93633189D01*
X62122935Y-93538777D01*
X62125953Y-93534577D01*
X62134993Y-93516287D01*
X62222636Y-93338953D01*
X62222637Y-93338951D01*
X62224930Y-93334311D01*
X62282359Y-93145291D01*
X62288365Y-93125523D01*
X62288365Y-93125521D01*
X62289870Y-93120569D01*
X62319029Y-92899090D01*
X62320656Y-92832500D01*
X62302352Y-92609861D01*
X62247931Y-92393202D01*
X62158854Y-92188340D01*
X62037514Y-92000777D01*
X61887170Y-91835551D01*
X61883119Y-91832352D01*
X61883115Y-91832348D01*
X61715914Y-91700300D01*
X61715910Y-91700298D01*
X61711859Y-91697098D01*
X61707331Y-91694598D01*
X61591488Y-91630650D01*
X61516289Y-91589138D01*
X61511420Y-91587414D01*
X61511416Y-91587412D01*
X61310587Y-91516295D01*
X61310583Y-91516294D01*
X61305712Y-91514569D01*
X61300619Y-91513662D01*
X61300616Y-91513661D01*
X61090873Y-91476300D01*
X61090867Y-91476299D01*
X61085784Y-91475394D01*
X61011952Y-91474492D01*
X60867581Y-91472728D01*
X60867579Y-91472728D01*
X60862411Y-91472665D01*
X60641591Y-91506455D01*
X60429256Y-91575857D01*
X60352353Y-91615890D01*
X60255475Y-91666322D01*
X60231107Y-91679007D01*
X60226974Y-91682110D01*
X60226971Y-91682112D01*
X60056600Y-91810030D01*
X60052465Y-91813135D01*
X59898129Y-91974638D01*
X59772243Y-92159180D01*
X59678188Y-92361805D01*
X59618489Y-92577070D01*
X59594751Y-92799195D01*
X59595048Y-92804348D01*
X59595048Y-92804351D01*
X59607610Y-93022215D01*
X59605390Y-93022343D01*
X59596400Y-93083324D01*
X59549717Y-93136814D01*
X59481525Y-93156573D01*
X59433755Y-93146982D01*
X59429673Y-93145291D01*
X59429665Y-93145289D01*
X59425094Y-93143395D01*
X59308649Y-93115439D01*
X59199024Y-93089120D01*
X59199018Y-93089119D01*
X59194211Y-93087965D01*
X58957500Y-93069335D01*
X58720789Y-93087965D01*
X58715982Y-93089119D01*
X58715976Y-93089120D01*
X58606351Y-93115439D01*
X58489906Y-93143395D01*
X58485335Y-93145288D01*
X58485333Y-93145289D01*
X58275111Y-93232365D01*
X58275107Y-93232367D01*
X58270537Y-93234260D01*
X58266317Y-93236846D01*
X58072298Y-93355741D01*
X58072292Y-93355745D01*
X58068084Y-93358324D01*
X57887531Y-93512531D01*
X57733324Y-93693084D01*
X57730745Y-93697292D01*
X57730741Y-93697298D01*
X57624891Y-93870029D01*
X57609260Y-93895537D01*
X57607367Y-93900107D01*
X57607365Y-93900111D01*
X57524820Y-94099395D01*
X57518395Y-94114906D01*
X57511482Y-94143701D01*
X57474778Y-94296586D01*
X57462965Y-94345789D01*
X57444335Y-94582500D01*
X54448146Y-94582500D01*
X54450615Y-94579205D01*
X54501745Y-94442816D01*
X54508500Y-94380634D01*
X54508500Y-91284366D01*
X54501745Y-91222184D01*
X54450615Y-91085795D01*
X54363261Y-90969239D01*
X54246705Y-90881885D01*
X54110316Y-90830755D01*
X54048134Y-90824000D01*
X50951866Y-90824000D01*
X50889684Y-90830755D01*
X50753295Y-90881885D01*
X50636739Y-90969239D01*
X50549385Y-91085795D01*
X50498255Y-91222184D01*
X50491500Y-91284366D01*
X50491500Y-94380634D01*
X47500000Y-94380634D01*
X47500000Y-87731418D01*
X50486917Y-87731418D01*
X50502682Y-88004820D01*
X50503507Y-88009025D01*
X50503508Y-88009033D01*
X50514127Y-88063157D01*
X50555405Y-88273553D01*
X50556792Y-88277603D01*
X50556793Y-88277608D01*
X50577605Y-88338395D01*
X50644112Y-88532644D01*
X50646039Y-88536475D01*
X50745131Y-88733498D01*
X50767160Y-88777299D01*
X50769586Y-88780828D01*
X50769589Y-88780834D01*
X50919843Y-88999453D01*
X50922274Y-89002990D01*
X50925161Y-89006163D01*
X50925162Y-89006164D01*
X50963665Y-89048478D01*
X51106582Y-89205543D01*
X51316675Y-89381207D01*
X51320316Y-89383491D01*
X51545024Y-89524451D01*
X51545028Y-89524453D01*
X51548664Y-89526734D01*
X51616544Y-89557383D01*
X51794345Y-89637664D01*
X51794349Y-89637666D01*
X51798257Y-89639430D01*
X51829596Y-89648713D01*
X52056723Y-89715991D01*
X52056727Y-89715992D01*
X52060836Y-89717209D01*
X52065070Y-89717857D01*
X52065075Y-89717858D01*
X52327298Y-89757983D01*
X52327300Y-89757983D01*
X52331540Y-89758632D01*
X52470912Y-89760822D01*
X52601071Y-89762867D01*
X52601077Y-89762867D01*
X52605362Y-89762934D01*
X52877235Y-89730034D01*
X53142127Y-89660541D01*
X53146087Y-89658901D01*
X53146092Y-89658899D01*
X53278163Y-89604193D01*
X53395136Y-89555741D01*
X53631582Y-89417573D01*
X53847089Y-89248594D01*
X53888809Y-89205543D01*
X54034686Y-89055009D01*
X54037669Y-89051931D01*
X54040202Y-89048483D01*
X54040206Y-89048478D01*
X54197257Y-88834678D01*
X54199795Y-88831223D01*
X54227154Y-88780834D01*
X54328418Y-88594330D01*
X54328419Y-88594328D01*
X54330468Y-88590554D01*
X54333511Y-88582500D01*
X57444335Y-88582500D01*
X57462965Y-88819211D01*
X57464119Y-88824018D01*
X57464120Y-88824024D01*
X57466678Y-88834678D01*
X57518395Y-89050094D01*
X57520288Y-89054665D01*
X57520289Y-89054667D01*
X57600616Y-89248594D01*
X57609260Y-89269463D01*
X57611846Y-89273683D01*
X57730741Y-89467702D01*
X57730745Y-89467708D01*
X57733324Y-89471916D01*
X57887531Y-89652469D01*
X57891287Y-89655677D01*
X57896982Y-89660541D01*
X58068084Y-89806676D01*
X58072292Y-89809255D01*
X58072298Y-89809259D01*
X58164134Y-89865536D01*
X58270537Y-89930740D01*
X58275107Y-89932633D01*
X58275111Y-89932635D01*
X58485333Y-90019711D01*
X58489906Y-90021605D01*
X58550982Y-90036268D01*
X58715976Y-90075880D01*
X58715982Y-90075881D01*
X58720789Y-90077035D01*
X58957500Y-90095665D01*
X59194211Y-90077035D01*
X59199018Y-90075881D01*
X59199024Y-90075880D01*
X59364018Y-90036268D01*
X59425094Y-90021605D01*
X59429667Y-90019711D01*
X59639889Y-89932635D01*
X59639893Y-89932633D01*
X59644463Y-89930740D01*
X59750866Y-89865536D01*
X59842702Y-89809259D01*
X59842708Y-89809255D01*
X59846916Y-89806676D01*
X60018018Y-89660541D01*
X60023713Y-89655677D01*
X60027469Y-89652469D01*
X60181676Y-89471916D01*
X60184255Y-89467708D01*
X60184259Y-89467702D01*
X60303154Y-89273683D01*
X60305740Y-89269463D01*
X60314385Y-89248594D01*
X60394711Y-89054667D01*
X60394712Y-89054665D01*
X60396605Y-89050094D01*
X60448322Y-88834678D01*
X60450880Y-88824024D01*
X60450881Y-88824018D01*
X60452035Y-88819211D01*
X60470665Y-88582500D01*
X60452035Y-88345789D01*
X60449296Y-88334377D01*
X60397760Y-88119718D01*
X60396605Y-88114906D01*
X60380800Y-88076749D01*
X60307635Y-87900111D01*
X60307633Y-87900107D01*
X60305740Y-87895537D01*
X60219609Y-87754984D01*
X60184259Y-87697298D01*
X60184255Y-87697292D01*
X60181676Y-87693084D01*
X60027469Y-87512531D01*
X59846916Y-87358324D01*
X59842708Y-87355745D01*
X59842702Y-87355741D01*
X59648683Y-87236846D01*
X59644463Y-87234260D01*
X59639893Y-87232367D01*
X59639889Y-87232365D01*
X59429667Y-87145289D01*
X59429665Y-87145288D01*
X59425094Y-87143395D01*
X59344891Y-87124140D01*
X59199024Y-87089120D01*
X59199018Y-87089119D01*
X59194211Y-87087965D01*
X58957500Y-87069335D01*
X58720789Y-87087965D01*
X58715982Y-87089119D01*
X58715976Y-87089120D01*
X58570109Y-87124140D01*
X58489906Y-87143395D01*
X58485335Y-87145288D01*
X58485333Y-87145289D01*
X58275111Y-87232365D01*
X58275107Y-87232367D01*
X58270537Y-87234260D01*
X58266317Y-87236846D01*
X58072298Y-87355741D01*
X58072292Y-87355745D01*
X58068084Y-87358324D01*
X57887531Y-87512531D01*
X57733324Y-87693084D01*
X57730745Y-87697292D01*
X57730741Y-87697298D01*
X57695391Y-87754984D01*
X57609260Y-87895537D01*
X57607367Y-87900107D01*
X57607365Y-87900111D01*
X57534200Y-88076749D01*
X57518395Y-88114906D01*
X57517240Y-88119718D01*
X57465705Y-88334377D01*
X57462965Y-88345789D01*
X57444335Y-88582500D01*
X54333511Y-88582500D01*
X54394045Y-88422301D01*
X54425751Y-88338395D01*
X54425752Y-88338391D01*
X54427269Y-88334377D01*
X54485241Y-88081257D01*
X54487449Y-88071617D01*
X54487450Y-88071613D01*
X54488407Y-88067433D01*
X54512751Y-87794661D01*
X54513193Y-87752500D01*
X54508886Y-87689325D01*
X54494859Y-87483555D01*
X54494858Y-87483549D01*
X54494567Y-87479278D01*
X54468984Y-87355741D01*
X54439901Y-87215309D01*
X54439032Y-87211112D01*
X54347617Y-86952965D01*
X54345655Y-86949163D01*
X54345649Y-86949150D01*
X54338030Y-86934390D01*
X54324560Y-86864683D01*
X54350915Y-86798759D01*
X54360900Y-86787504D01*
X55478000Y-85670405D01*
X55540312Y-85636379D01*
X55567095Y-85633500D01*
X59685406Y-85633500D01*
X59753527Y-85653502D01*
X59774501Y-85670405D01*
X64287095Y-90183000D01*
X64321121Y-90245312D01*
X64324000Y-90272095D01*
X64324000Y-91554192D01*
X64303998Y-91622313D01*
X64256183Y-91665953D01*
X64231107Y-91679007D01*
X64226974Y-91682110D01*
X64226971Y-91682112D01*
X64056600Y-91810030D01*
X64052465Y-91813135D01*
X63898129Y-91974638D01*
X63772243Y-92159180D01*
X63678188Y-92361805D01*
X63618489Y-92577070D01*
X63594751Y-92799195D01*
X63595048Y-92804348D01*
X63595048Y-92804351D01*
X63600511Y-92899090D01*
X63607610Y-93022215D01*
X63608747Y-93027261D01*
X63608748Y-93027267D01*
X63622688Y-93089120D01*
X63656722Y-93240139D01*
X63740766Y-93447116D01*
X63857487Y-93637588D01*
X64003750Y-93806438D01*
X64175626Y-93949132D01*
X64368500Y-94061838D01*
X64577192Y-94141530D01*
X64582260Y-94142561D01*
X64582263Y-94142562D01*
X64687094Y-94163890D01*
X64796097Y-94186067D01*
X64801272Y-94186257D01*
X64801274Y-94186257D01*
X65014173Y-94194064D01*
X65014177Y-94194064D01*
X65019337Y-94194253D01*
X65024457Y-94193597D01*
X65024459Y-94193597D01*
X65235788Y-94166525D01*
X65235789Y-94166525D01*
X65240916Y-94165868D01*
X65247509Y-94163890D01*
X65449929Y-94103161D01*
X65449934Y-94103159D01*
X65454884Y-94101674D01*
X65655494Y-94003396D01*
X65720044Y-93957353D01*
X68197477Y-93957353D01*
X68202758Y-93964407D01*
X68364256Y-94058779D01*
X68373542Y-94063229D01*
X68572501Y-94139203D01*
X68582399Y-94142079D01*
X68791095Y-94184538D01*
X68801323Y-94185757D01*
X69014150Y-94193562D01*
X69024436Y-94193095D01*
X69235685Y-94166034D01*
X69245773Y-94163890D01*
X69317003Y-94142519D01*
X69387998Y-94142101D01*
X69447949Y-94180133D01*
X69477821Y-94244540D01*
X69475730Y-94292618D01*
X69474778Y-94296586D01*
X69462965Y-94345789D01*
X69444335Y-94582500D01*
X69462965Y-94819211D01*
X69518395Y-95050094D01*
X69609260Y-95269463D01*
X69611846Y-95273683D01*
X69730741Y-95467702D01*
X69730745Y-95467708D01*
X69733324Y-95471916D01*
X69887531Y-95652469D01*
X70068084Y-95806676D01*
X70072292Y-95809255D01*
X70072298Y-95809259D01*
X70266317Y-95928154D01*
X70270537Y-95930740D01*
X70275107Y-95932633D01*
X70275111Y-95932635D01*
X70485333Y-96019711D01*
X70489906Y-96021605D01*
X70570109Y-96040860D01*
X70715976Y-96075880D01*
X70715982Y-96075881D01*
X70720789Y-96077035D01*
X70957500Y-96095665D01*
X71194211Y-96077035D01*
X71199018Y-96075881D01*
X71199024Y-96075880D01*
X71344891Y-96040860D01*
X71425094Y-96021605D01*
X71429667Y-96019711D01*
X71639889Y-95932635D01*
X71639893Y-95932633D01*
X71644463Y-95930740D01*
X71648683Y-95928154D01*
X71842702Y-95809259D01*
X71842708Y-95809255D01*
X71846916Y-95806676D01*
X72027469Y-95652469D01*
X72181676Y-95471916D01*
X72184255Y-95467708D01*
X72184259Y-95467702D01*
X72303154Y-95273683D01*
X72305740Y-95269463D01*
X72396605Y-95050094D01*
X72452035Y-94819211D01*
X72470665Y-94582500D01*
X72452035Y-94345789D01*
X72440223Y-94296586D01*
X72403518Y-94143701D01*
X72396605Y-94114906D01*
X72390180Y-94099395D01*
X72307635Y-93900111D01*
X72307633Y-93900107D01*
X72305740Y-93895537D01*
X72290109Y-93870029D01*
X72184259Y-93697298D01*
X72184255Y-93697292D01*
X72181676Y-93693084D01*
X72027469Y-93512531D01*
X71846916Y-93358324D01*
X71842708Y-93355745D01*
X71842702Y-93355741D01*
X71648683Y-93236846D01*
X71644463Y-93234260D01*
X71639893Y-93232367D01*
X71639889Y-93232365D01*
X71429667Y-93145289D01*
X71429665Y-93145288D01*
X71425094Y-93143395D01*
X71308649Y-93115439D01*
X71199024Y-93089120D01*
X71199018Y-93089119D01*
X71194211Y-93087965D01*
X70957500Y-93069335D01*
X70720789Y-93087965D01*
X70715982Y-93089119D01*
X70715976Y-93089120D01*
X70606351Y-93115439D01*
X70489906Y-93143395D01*
X70485335Y-93145289D01*
X70485327Y-93145291D01*
X70476245Y-93149053D01*
X70405655Y-93156642D01*
X70342168Y-93124862D01*
X70305942Y-93063803D01*
X70303106Y-93016198D01*
X70318090Y-92902387D01*
X70318609Y-92895712D01*
X70320072Y-92835864D01*
X70319878Y-92829146D01*
X70302281Y-92615104D01*
X70300596Y-92604924D01*
X70248714Y-92398375D01*
X70245394Y-92388624D01*
X70160472Y-92193314D01*
X70155605Y-92184239D01*
X70090563Y-92083697D01*
X70079877Y-92074495D01*
X70070312Y-92078898D01*
X68204237Y-93944973D01*
X68197477Y-93957353D01*
X65720044Y-93957353D01*
X65837360Y-93873673D01*
X65995596Y-93715989D01*
X66055094Y-93633189D01*
X66122935Y-93538777D01*
X66125953Y-93534577D01*
X66134993Y-93516287D01*
X66222636Y-93338953D01*
X66222637Y-93338951D01*
X66224930Y-93334311D01*
X66282359Y-93145291D01*
X66288365Y-93125523D01*
X66288365Y-93125521D01*
X66289870Y-93120569D01*
X66319029Y-92899090D01*
X66320656Y-92832500D01*
X66318343Y-92804363D01*
X67595550Y-92804363D01*
X67607809Y-93016977D01*
X67609245Y-93027197D01*
X67656065Y-93234946D01*
X67659145Y-93244775D01*
X67739270Y-93442103D01*
X67743913Y-93451294D01*
X67823960Y-93581920D01*
X67834416Y-93591380D01*
X67843194Y-93587596D01*
X68585478Y-92845312D01*
X68593092Y-92831368D01*
X68592961Y-92829535D01*
X68588710Y-92822920D01*
X67847349Y-92081559D01*
X67835813Y-92075259D01*
X67823531Y-92084882D01*
X67775589Y-92155162D01*
X67770504Y-92164113D01*
X67680838Y-92357283D01*
X67677275Y-92366970D01*
X67620364Y-92572181D01*
X67618433Y-92582300D01*
X67595802Y-92794074D01*
X67595550Y-92804363D01*
X66318343Y-92804363D01*
X66302352Y-92609861D01*
X66247931Y-92393202D01*
X66158854Y-92188340D01*
X66037514Y-92000777D01*
X65887170Y-91835551D01*
X65883119Y-91832352D01*
X65883115Y-91832348D01*
X65726838Y-91708927D01*
X68198723Y-91708927D01*
X68205468Y-91721258D01*
X68944688Y-92460478D01*
X68958632Y-92468092D01*
X68960465Y-92467961D01*
X68967080Y-92463710D01*
X69710889Y-91719901D01*
X69717910Y-91707044D01*
X69711111Y-91697713D01*
X69707054Y-91695018D01*
X69520617Y-91592099D01*
X69511205Y-91587869D01*
X69310459Y-91516780D01*
X69300489Y-91514146D01*
X69090827Y-91476801D01*
X69080573Y-91475831D01*
X68867616Y-91473228D01*
X68857332Y-91473948D01*
X68646821Y-91506161D01*
X68636793Y-91508550D01*
X68434368Y-91574712D01*
X68424859Y-91578709D01*
X68235966Y-91677040D01*
X68227234Y-91682539D01*
X68207177Y-91697599D01*
X68198723Y-91708927D01*
X65726838Y-91708927D01*
X65715914Y-91700300D01*
X65715910Y-91700298D01*
X65711859Y-91697098D01*
X65707335Y-91694601D01*
X65707331Y-91694598D01*
X65656108Y-91666322D01*
X65606136Y-91615890D01*
X65591000Y-91556013D01*
X65591000Y-90036268D01*
X65591527Y-90025085D01*
X65593202Y-90017592D01*
X65591062Y-89949501D01*
X65591000Y-89945544D01*
X65591000Y-89917644D01*
X65590496Y-89913653D01*
X65589563Y-89901811D01*
X65588423Y-89865536D01*
X65588174Y-89857611D01*
X65585962Y-89849997D01*
X65585961Y-89849992D01*
X65582523Y-89838159D01*
X65578512Y-89818795D01*
X65576967Y-89806564D01*
X65575974Y-89798703D01*
X65573057Y-89791336D01*
X65573056Y-89791331D01*
X65559698Y-89757592D01*
X65555854Y-89746365D01*
X65551109Y-89730034D01*
X65543518Y-89703907D01*
X65533207Y-89686472D01*
X65524512Y-89668724D01*
X65517052Y-89649883D01*
X65491064Y-89614113D01*
X65484548Y-89604193D01*
X65466080Y-89572965D01*
X65466078Y-89572962D01*
X65462042Y-89566138D01*
X65447721Y-89551817D01*
X65434880Y-89536783D01*
X65427631Y-89526806D01*
X65422972Y-89520393D01*
X65388895Y-89492202D01*
X65380116Y-89484212D01*
X64478404Y-88582500D01*
X69444335Y-88582500D01*
X69462965Y-88819211D01*
X69464119Y-88824018D01*
X69464120Y-88824024D01*
X69466678Y-88834678D01*
X69518395Y-89050094D01*
X69520288Y-89054665D01*
X69520289Y-89054667D01*
X69600616Y-89248594D01*
X69609260Y-89269463D01*
X69611846Y-89273683D01*
X69730741Y-89467702D01*
X69730745Y-89467708D01*
X69733324Y-89471916D01*
X69887531Y-89652469D01*
X69891287Y-89655677D01*
X69896982Y-89660541D01*
X70068084Y-89806676D01*
X70072292Y-89809255D01*
X70072298Y-89809259D01*
X70164134Y-89865536D01*
X70270537Y-89930740D01*
X70275107Y-89932633D01*
X70275111Y-89932635D01*
X70485333Y-90019711D01*
X70489906Y-90021605D01*
X70550982Y-90036268D01*
X70715976Y-90075880D01*
X70715982Y-90075881D01*
X70720789Y-90077035D01*
X70957500Y-90095665D01*
X71194211Y-90077035D01*
X71199018Y-90075881D01*
X71199024Y-90075880D01*
X71364018Y-90036268D01*
X71425094Y-90021605D01*
X71429667Y-90019711D01*
X71639889Y-89932635D01*
X71639893Y-89932633D01*
X71644463Y-89930740D01*
X71750866Y-89865536D01*
X71842702Y-89809259D01*
X71842708Y-89809255D01*
X71846916Y-89806676D01*
X72018018Y-89660541D01*
X72023713Y-89655677D01*
X72027469Y-89652469D01*
X72181676Y-89471916D01*
X72184255Y-89467708D01*
X72184259Y-89467702D01*
X72303154Y-89273683D01*
X72305740Y-89269463D01*
X72314385Y-89248594D01*
X72394711Y-89054667D01*
X72394712Y-89054665D01*
X72396605Y-89050094D01*
X72448322Y-88834678D01*
X72450880Y-88824024D01*
X72450881Y-88824018D01*
X72452035Y-88819211D01*
X72470665Y-88582500D01*
X72452035Y-88345789D01*
X72449296Y-88334377D01*
X72397760Y-88119718D01*
X72396605Y-88114906D01*
X72380800Y-88076749D01*
X72307635Y-87900111D01*
X72307633Y-87900107D01*
X72305740Y-87895537D01*
X72219609Y-87754984D01*
X72184259Y-87697298D01*
X72184255Y-87697292D01*
X72181676Y-87693084D01*
X72027469Y-87512531D01*
X71846916Y-87358324D01*
X71842708Y-87355745D01*
X71842702Y-87355741D01*
X71648683Y-87236846D01*
X71644463Y-87234260D01*
X71639893Y-87232367D01*
X71639889Y-87232365D01*
X71429667Y-87145289D01*
X71429665Y-87145288D01*
X71425094Y-87143395D01*
X71344891Y-87124140D01*
X71199024Y-87089120D01*
X71199018Y-87089119D01*
X71194211Y-87087965D01*
X70957500Y-87069335D01*
X70720789Y-87087965D01*
X70715982Y-87089119D01*
X70715976Y-87089120D01*
X70570109Y-87124140D01*
X70489906Y-87143395D01*
X70485335Y-87145288D01*
X70485333Y-87145289D01*
X70275111Y-87232365D01*
X70275107Y-87232367D01*
X70270537Y-87234260D01*
X70266317Y-87236846D01*
X70072298Y-87355741D01*
X70072292Y-87355745D01*
X70068084Y-87358324D01*
X69887531Y-87512531D01*
X69733324Y-87693084D01*
X69730745Y-87697292D01*
X69730741Y-87697298D01*
X69695391Y-87754984D01*
X69609260Y-87895537D01*
X69607367Y-87900107D01*
X69607365Y-87900111D01*
X69534200Y-88076749D01*
X69518395Y-88114906D01*
X69517240Y-88119718D01*
X69465705Y-88334377D01*
X69462965Y-88345789D01*
X69444335Y-88582500D01*
X64478404Y-88582500D01*
X60503652Y-84607747D01*
X60496112Y-84599461D01*
X60492000Y-84592982D01*
X60442348Y-84546356D01*
X60439507Y-84543602D01*
X60419770Y-84523865D01*
X60416573Y-84521385D01*
X60407551Y-84513680D01*
X60394122Y-84501069D01*
X60375321Y-84483414D01*
X60368375Y-84479595D01*
X60368372Y-84479593D01*
X60357566Y-84473652D01*
X60341047Y-84462801D01*
X60340583Y-84462441D01*
X60325041Y-84450386D01*
X60317772Y-84447241D01*
X60317768Y-84447238D01*
X60284463Y-84432826D01*
X60273813Y-84427609D01*
X60235060Y-84406305D01*
X60215437Y-84401267D01*
X60196734Y-84394863D01*
X60185420Y-84389967D01*
X60185419Y-84389967D01*
X60178145Y-84386819D01*
X60170322Y-84385580D01*
X60170312Y-84385577D01*
X60134476Y-84379901D01*
X60122856Y-84377495D01*
X60087711Y-84368472D01*
X60087710Y-84368472D01*
X60080030Y-84366500D01*
X60059776Y-84366500D01*
X60040065Y-84364949D01*
X60027886Y-84363020D01*
X60020057Y-84361780D01*
X59990786Y-84364547D01*
X59976039Y-84365941D01*
X59964181Y-84366500D01*
X55331267Y-84366500D01*
X55320084Y-84365973D01*
X55312591Y-84364298D01*
X55304665Y-84364547D01*
X55304664Y-84364547D01*
X55244501Y-84366438D01*
X55240543Y-84366500D01*
X55212644Y-84366500D01*
X55208654Y-84367004D01*
X55196820Y-84367936D01*
X55152611Y-84369326D01*
X55144997Y-84371538D01*
X55144992Y-84371539D01*
X55133159Y-84374977D01*
X55113796Y-84378988D01*
X55093703Y-84381526D01*
X55086336Y-84384443D01*
X55086331Y-84384444D01*
X55052592Y-84397802D01*
X55041365Y-84401646D01*
X54998907Y-84413982D01*
X54992081Y-84418019D01*
X54981472Y-84424293D01*
X54963724Y-84432988D01*
X54944883Y-84440448D01*
X54938467Y-84445110D01*
X54938466Y-84445110D01*
X54909113Y-84466436D01*
X54899193Y-84472952D01*
X54867965Y-84491420D01*
X54867962Y-84491422D01*
X54861138Y-84495458D01*
X54846817Y-84509779D01*
X54831784Y-84522619D01*
X54815393Y-84534528D01*
X54806717Y-84545016D01*
X54787202Y-84568605D01*
X54779212Y-84577384D01*
X53462664Y-85893932D01*
X53400352Y-85927958D01*
X53322924Y-85920210D01*
X53185878Y-85860051D01*
X53185872Y-85860049D01*
X53181945Y-85858325D01*
X52918566Y-85783300D01*
X52914324Y-85782696D01*
X52914318Y-85782695D01*
X52713834Y-85754162D01*
X52647443Y-85744713D01*
X52503589Y-85743960D01*
X52377877Y-85743302D01*
X52377871Y-85743302D01*
X52373591Y-85743280D01*
X52369347Y-85743839D01*
X52369343Y-85743839D01*
X52250302Y-85759511D01*
X52102078Y-85779025D01*
X52097938Y-85780158D01*
X52097936Y-85780158D01*
X52025008Y-85800109D01*
X51837928Y-85851288D01*
X51833980Y-85852972D01*
X51589982Y-85957046D01*
X51589978Y-85957048D01*
X51586030Y-85958732D01*
X51467414Y-86029722D01*
X51354725Y-86097164D01*
X51354721Y-86097167D01*
X51351043Y-86099368D01*
X51137318Y-86270594D01*
X51123046Y-86285634D01*
X50997721Y-86417699D01*
X50948808Y-86469242D01*
X50789002Y-86691636D01*
X50660857Y-86933661D01*
X50659385Y-86937684D01*
X50659383Y-86937688D01*
X50589570Y-87128459D01*
X50566743Y-87190837D01*
X50508404Y-87458407D01*
X50486917Y-87731418D01*
X47500000Y-87731418D01*
X47500000Y-83448134D01*
X48591500Y-83448134D01*
X48598255Y-83510316D01*
X48649385Y-83646705D01*
X48736739Y-83763261D01*
X48853295Y-83850615D01*
X48989684Y-83901745D01*
X49051866Y-83908500D01*
X50948134Y-83908500D01*
X51010316Y-83901745D01*
X51146705Y-83850615D01*
X51263261Y-83763261D01*
X51350615Y-83646705D01*
X51375180Y-83581178D01*
X51417822Y-83524414D01*
X51484383Y-83499714D01*
X51553732Y-83514921D01*
X51573647Y-83528464D01*
X51638724Y-83582492D01*
X51729349Y-83657730D01*
X51929322Y-83774584D01*
X52145694Y-83857209D01*
X52150760Y-83858240D01*
X52150761Y-83858240D01*
X52203846Y-83869040D01*
X52372656Y-83903385D01*
X52502089Y-83908131D01*
X52598949Y-83911683D01*
X52598953Y-83911683D01*
X52604113Y-83911872D01*
X52609233Y-83911216D01*
X52609235Y-83911216D01*
X52683166Y-83901745D01*
X52833847Y-83882442D01*
X52838795Y-83880957D01*
X52838802Y-83880956D01*
X53050747Y-83817369D01*
X53055690Y-83815886D01*
X53136236Y-83776427D01*
X53259049Y-83716262D01*
X53259052Y-83716260D01*
X53263684Y-83713991D01*
X53452243Y-83579494D01*
X53616303Y-83416005D01*
X53751458Y-83227917D01*
X53763440Y-83203672D01*
X53811553Y-83151466D01*
X53876397Y-83133500D01*
X74765406Y-83133500D01*
X74833527Y-83153502D01*
X74854501Y-83170405D01*
X78690848Y-87006752D01*
X78724874Y-87069064D01*
X78723459Y-87128459D01*
X78707882Y-87186591D01*
X78707881Y-87186598D01*
X78706457Y-87191913D01*
X78686502Y-87420000D01*
X78706457Y-87648087D01*
X78707881Y-87653400D01*
X78707881Y-87653402D01*
X78745732Y-87794661D01*
X78765716Y-87869243D01*
X78768039Y-87874224D01*
X78768039Y-87874225D01*
X78860151Y-88071762D01*
X78860154Y-88071767D01*
X78862477Y-88076749D01*
X78993802Y-88264300D01*
X79155700Y-88426198D01*
X79160208Y-88429355D01*
X79160211Y-88429357D01*
X79238389Y-88484098D01*
X79343251Y-88557523D01*
X79348233Y-88559846D01*
X79348238Y-88559849D01*
X79422184Y-88594330D01*
X79550757Y-88654284D01*
X79556065Y-88655706D01*
X79556067Y-88655707D01*
X79766598Y-88712119D01*
X79766600Y-88712119D01*
X79771913Y-88713543D01*
X80000000Y-88733498D01*
X80228087Y-88713543D01*
X80233400Y-88712119D01*
X80233402Y-88712119D01*
X80443933Y-88655707D01*
X80443935Y-88655706D01*
X80449243Y-88654284D01*
X80577816Y-88594330D01*
X80651762Y-88559849D01*
X80651767Y-88559846D01*
X80656749Y-88557523D01*
X80761611Y-88484098D01*
X80839789Y-88429357D01*
X80839792Y-88429355D01*
X80844300Y-88426198D01*
X81006198Y-88264300D01*
X81137523Y-88076749D01*
X81139846Y-88071767D01*
X81139849Y-88071762D01*
X81231961Y-87874225D01*
X81231961Y-87874224D01*
X81234284Y-87869243D01*
X81254269Y-87794661D01*
X81292119Y-87653402D01*
X81292119Y-87653400D01*
X81293543Y-87648087D01*
X81313498Y-87420000D01*
X81293543Y-87191913D01*
X81280233Y-87142240D01*
X81235707Y-86976067D01*
X81235706Y-86976065D01*
X81234284Y-86970757D01*
X81215219Y-86929871D01*
X81139849Y-86768238D01*
X81139846Y-86768233D01*
X81137523Y-86763251D01*
X81006198Y-86575700D01*
X80844300Y-86413802D01*
X80839792Y-86410645D01*
X80839789Y-86410643D01*
X80761611Y-86355902D01*
X80656749Y-86282477D01*
X80651767Y-86280154D01*
X80651762Y-86280151D01*
X80454225Y-86188039D01*
X80454224Y-86188039D01*
X80449243Y-86185716D01*
X80443935Y-86184294D01*
X80443933Y-86184293D01*
X80233402Y-86127881D01*
X80233400Y-86127881D01*
X80228087Y-86126457D01*
X80000000Y-86106502D01*
X79771913Y-86126457D01*
X79766602Y-86127880D01*
X79766591Y-86127882D01*
X79708459Y-86143459D01*
X79637483Y-86141770D01*
X79586752Y-86110848D01*
X75583652Y-82107747D01*
X75576112Y-82099461D01*
X75572000Y-82092982D01*
X75522348Y-82046356D01*
X75519507Y-82043602D01*
X75499770Y-82023865D01*
X75496573Y-82021385D01*
X75487551Y-82013680D01*
X75461100Y-81988841D01*
X75455321Y-81983414D01*
X75448375Y-81979595D01*
X75448372Y-81979593D01*
X75437566Y-81973652D01*
X75421047Y-81962801D01*
X75420583Y-81962441D01*
X75405041Y-81950386D01*
X75397772Y-81947241D01*
X75397768Y-81947238D01*
X75364463Y-81932826D01*
X75353813Y-81927609D01*
X75315060Y-81906305D01*
X75295437Y-81901267D01*
X75276734Y-81894863D01*
X75265420Y-81889967D01*
X75265419Y-81889967D01*
X75258145Y-81886819D01*
X75250322Y-81885580D01*
X75250312Y-81885577D01*
X75214476Y-81879901D01*
X75202856Y-81877495D01*
X75167711Y-81868472D01*
X75167710Y-81868472D01*
X75160030Y-81866500D01*
X75139776Y-81866500D01*
X75120065Y-81864949D01*
X75107886Y-81863020D01*
X75100057Y-81861780D01*
X75092165Y-81862526D01*
X75056039Y-81865941D01*
X75044181Y-81866500D01*
X53876359Y-81866500D01*
X53808238Y-81846498D01*
X53770567Y-81808940D01*
X53662574Y-81642009D01*
X53659764Y-81637665D01*
X53503887Y-81466358D01*
X53499836Y-81463159D01*
X53499832Y-81463155D01*
X53326177Y-81326011D01*
X53326172Y-81326008D01*
X53322123Y-81322810D01*
X53317607Y-81320317D01*
X53317604Y-81320315D01*
X53123879Y-81213373D01*
X53123875Y-81213371D01*
X53119355Y-81210876D01*
X53114486Y-81209152D01*
X53114482Y-81209150D01*
X52905903Y-81135288D01*
X52905899Y-81135287D01*
X52901028Y-81133562D01*
X52895935Y-81132655D01*
X52895932Y-81132654D01*
X52678095Y-81093851D01*
X52678089Y-81093850D01*
X52673006Y-81092945D01*
X52600096Y-81092054D01*
X52446581Y-81090179D01*
X52446579Y-81090179D01*
X52441411Y-81090116D01*
X52212464Y-81125150D01*
X51992314Y-81197106D01*
X51987726Y-81199494D01*
X51987722Y-81199496D01*
X51791461Y-81301663D01*
X51786872Y-81304052D01*
X51782739Y-81307155D01*
X51782736Y-81307157D01*
X51710088Y-81361703D01*
X51601655Y-81443117D01*
X51584170Y-81461414D01*
X51522646Y-81496844D01*
X51451733Y-81493387D01*
X51393947Y-81452141D01*
X51375094Y-81418592D01*
X51353768Y-81361705D01*
X51353767Y-81361703D01*
X51350615Y-81353295D01*
X51263261Y-81236739D01*
X51146705Y-81149385D01*
X51010316Y-81098255D01*
X50948134Y-81091500D01*
X49051866Y-81091500D01*
X48989684Y-81098255D01*
X48853295Y-81149385D01*
X48736739Y-81236739D01*
X48649385Y-81353295D01*
X48598255Y-81489684D01*
X48591500Y-81551866D01*
X48591500Y-83448134D01*
X47500000Y-83448134D01*
X47500000Y-80126000D01*
X47520002Y-80057879D01*
X47573658Y-80011386D01*
X47626000Y-80000000D01*
X84874000Y-80000000D01*
X84942121Y-80020002D01*
G37*
%TD.AperFunction*%
%TD*%
M02*
