%TF.GenerationSoftware,KiCad,Pcbnew,(6.0.7)*%
%TF.CreationDate,2025-03-19T21:33:16-07:00*%
%TF.ProjectId,PCB_v1,5043425f-7631-42e6-9b69-6361645f7063,rev?*%
%TF.SameCoordinates,Original*%
%TF.FileFunction,Legend,Top*%
%TF.FilePolarity,Positive*%
%FSLAX46Y46*%
G04 Gerber Fmt 4.6, Leading zero omitted, Abs format (unit mm)*
G04 Created by KiCad (PCBNEW (6.0.7)) date 2025-03-19 21:33:16*
%MOMM*%
%LPD*%
G01*
G04 APERTURE LIST*
%ADD10C,0.150000*%
%ADD11C,0.100000*%
%ADD12C,0.152400*%
%ADD13C,0.120000*%
G04 APERTURE END LIST*
D10*
X108190476Y-92952380D02*
X108190476Y-91952380D01*
X108571428Y-91952380D01*
X108666666Y-92000000D01*
X108714285Y-92047619D01*
X108761904Y-92142857D01*
X108761904Y-92285714D01*
X108714285Y-92380952D01*
X108666666Y-92428571D01*
X108571428Y-92476190D01*
X108190476Y-92476190D01*
X109190476Y-92952380D02*
X109190476Y-92285714D01*
X109190476Y-91952380D02*
X109142857Y-92000000D01*
X109190476Y-92047619D01*
X109238095Y-92000000D01*
X109190476Y-91952380D01*
X109190476Y-92047619D01*
X109666666Y-92285714D02*
X109666666Y-92952380D01*
X109666666Y-92380952D02*
X109714285Y-92333333D01*
X109809523Y-92285714D01*
X109952380Y-92285714D01*
X110047619Y-92333333D01*
X110095238Y-92428571D01*
X110095238Y-92952380D01*
X111857142Y-92952380D02*
X111285714Y-92952380D01*
X111571428Y-92952380D02*
X111571428Y-91952380D01*
X111476190Y-92095238D01*
X111380952Y-92190476D01*
X111285714Y-92238095D01*
X108190476Y-102952380D02*
X108190476Y-101952380D01*
X108571428Y-101952380D01*
X108666666Y-102000000D01*
X108714285Y-102047619D01*
X108761904Y-102142857D01*
X108761904Y-102285714D01*
X108714285Y-102380952D01*
X108666666Y-102428571D01*
X108571428Y-102476190D01*
X108190476Y-102476190D01*
X109190476Y-102952380D02*
X109190476Y-102285714D01*
X109190476Y-101952380D02*
X109142857Y-102000000D01*
X109190476Y-102047619D01*
X109238095Y-102000000D01*
X109190476Y-101952380D01*
X109190476Y-102047619D01*
X109666666Y-102285714D02*
X109666666Y-102952380D01*
X109666666Y-102380952D02*
X109714285Y-102333333D01*
X109809523Y-102285714D01*
X109952380Y-102285714D01*
X110047619Y-102333333D01*
X110095238Y-102428571D01*
X110095238Y-102952380D01*
X111857142Y-102952380D02*
X111285714Y-102952380D01*
X111571428Y-102952380D02*
X111571428Y-101952380D01*
X111476190Y-102095238D01*
X111380952Y-102190476D01*
X111285714Y-102238095D01*
X102309523Y-100452380D02*
X102309523Y-99452380D01*
X102309523Y-99928571D02*
X102880952Y-99928571D01*
X102880952Y-100452380D02*
X102880952Y-99452380D01*
X103214285Y-99452380D02*
X103547619Y-100452380D01*
X103880952Y-99452380D01*
X104928571Y-100404761D02*
X105071428Y-100452380D01*
X105309523Y-100452380D01*
X105404761Y-100404761D01*
X105452380Y-100357142D01*
X105500000Y-100261904D01*
X105500000Y-100166666D01*
X105452380Y-100071428D01*
X105404761Y-100023809D01*
X105309523Y-99976190D01*
X105119047Y-99928571D01*
X105023809Y-99880952D01*
X104976190Y-99833333D01*
X104928571Y-99738095D01*
X104928571Y-99642857D01*
X104976190Y-99547619D01*
X105023809Y-99500000D01*
X105119047Y-99452380D01*
X105357142Y-99452380D01*
X105500000Y-99500000D01*
X105928571Y-100452380D02*
X105928571Y-99785714D01*
X105928571Y-99452380D02*
X105880952Y-99500000D01*
X105928571Y-99547619D01*
X105976190Y-99500000D01*
X105928571Y-99452380D01*
X105928571Y-99547619D01*
X106833333Y-100452380D02*
X106833333Y-99452380D01*
X106833333Y-100404761D02*
X106738095Y-100452380D01*
X106547619Y-100452380D01*
X106452380Y-100404761D01*
X106404761Y-100357142D01*
X106357142Y-100261904D01*
X106357142Y-99976190D01*
X106404761Y-99880952D01*
X106452380Y-99833333D01*
X106547619Y-99785714D01*
X106738095Y-99785714D01*
X106833333Y-99833333D01*
X107690476Y-100404761D02*
X107595238Y-100452380D01*
X107404761Y-100452380D01*
X107309523Y-100404761D01*
X107261904Y-100309523D01*
X107261904Y-99928571D01*
X107309523Y-99833333D01*
X107404761Y-99785714D01*
X107595238Y-99785714D01*
X107690476Y-99833333D01*
X107738095Y-99928571D01*
X107738095Y-100023809D01*
X107261904Y-100119047D01*
X102904761Y-95452380D02*
X102428571Y-95452380D01*
X102428571Y-94452380D01*
X103095238Y-94452380D02*
X103428571Y-95452380D01*
X103761904Y-94452380D01*
X104809523Y-95404761D02*
X104952380Y-95452380D01*
X105190476Y-95452380D01*
X105285714Y-95404761D01*
X105333333Y-95357142D01*
X105380952Y-95261904D01*
X105380952Y-95166666D01*
X105333333Y-95071428D01*
X105285714Y-95023809D01*
X105190476Y-94976190D01*
X105000000Y-94928571D01*
X104904761Y-94880952D01*
X104857142Y-94833333D01*
X104809523Y-94738095D01*
X104809523Y-94642857D01*
X104857142Y-94547619D01*
X104904761Y-94500000D01*
X105000000Y-94452380D01*
X105238095Y-94452380D01*
X105380952Y-94500000D01*
X105809523Y-95452380D02*
X105809523Y-94785714D01*
X105809523Y-94452380D02*
X105761904Y-94500000D01*
X105809523Y-94547619D01*
X105857142Y-94500000D01*
X105809523Y-94452380D01*
X105809523Y-94547619D01*
X106714285Y-95452380D02*
X106714285Y-94452380D01*
X106714285Y-95404761D02*
X106619047Y-95452380D01*
X106428571Y-95452380D01*
X106333333Y-95404761D01*
X106285714Y-95357142D01*
X106238095Y-95261904D01*
X106238095Y-94976190D01*
X106285714Y-94880952D01*
X106333333Y-94833333D01*
X106428571Y-94785714D01*
X106619047Y-94785714D01*
X106714285Y-94833333D01*
X107571428Y-95404761D02*
X107476190Y-95452380D01*
X107285714Y-95452380D01*
X107190476Y-95404761D01*
X107142857Y-95309523D01*
X107142857Y-94928571D01*
X107190476Y-94833333D01*
X107285714Y-94785714D01*
X107476190Y-94785714D01*
X107571428Y-94833333D01*
X107619047Y-94928571D01*
X107619047Y-95023809D01*
X107142857Y-95119047D01*
D11*
X95035714Y-105800000D02*
X95035714Y-105495238D01*
X95226190Y-105647619D02*
X94845238Y-105647619D01*
X94726190Y-105342857D02*
X94726190Y-105095238D01*
X94916666Y-105228571D01*
X94916666Y-105171428D01*
X94940476Y-105133333D01*
X94964285Y-105114285D01*
X95011904Y-105095238D01*
X95130952Y-105095238D01*
X95178571Y-105114285D01*
X95202380Y-105133333D01*
X95226190Y-105171428D01*
X95226190Y-105285714D01*
X95202380Y-105323809D01*
X95178571Y-105342857D01*
X95178571Y-104923809D02*
X95202380Y-104904761D01*
X95226190Y-104923809D01*
X95202380Y-104942857D01*
X95178571Y-104923809D01*
X95226190Y-104923809D01*
X94726190Y-104771428D02*
X94726190Y-104523809D01*
X94916666Y-104657142D01*
X94916666Y-104600000D01*
X94940476Y-104561904D01*
X94964285Y-104542857D01*
X95011904Y-104523809D01*
X95130952Y-104523809D01*
X95178571Y-104542857D01*
X95202380Y-104561904D01*
X95226190Y-104600000D01*
X95226190Y-104714285D01*
X95202380Y-104752380D01*
X95178571Y-104771428D01*
X94726190Y-104409523D02*
X95226190Y-104276190D01*
X94726190Y-104142857D01*
X92226190Y-105738095D02*
X92226190Y-105452380D01*
X92726190Y-105595238D02*
X92226190Y-105595238D01*
X92726190Y-105285714D02*
X92226190Y-105285714D01*
X92726190Y-105071428D02*
X92464285Y-105071428D01*
X92416666Y-105095238D01*
X92392857Y-105142857D01*
X92392857Y-105214285D01*
X92416666Y-105261904D01*
X92440476Y-105285714D01*
X92702380Y-104642857D02*
X92726190Y-104690476D01*
X92726190Y-104785714D01*
X92702380Y-104833333D01*
X92654761Y-104857142D01*
X92464285Y-104857142D01*
X92416666Y-104833333D01*
X92392857Y-104785714D01*
X92392857Y-104690476D01*
X92416666Y-104642857D01*
X92464285Y-104619047D01*
X92511904Y-104619047D01*
X92559523Y-104857142D01*
X92726190Y-104404761D02*
X92392857Y-104404761D01*
X92488095Y-104404761D02*
X92440476Y-104380952D01*
X92416666Y-104357142D01*
X92392857Y-104309523D01*
X92392857Y-104261904D01*
X83309523Y-105202380D02*
X83380952Y-105226190D01*
X83500000Y-105226190D01*
X83547619Y-105202380D01*
X83571428Y-105178571D01*
X83595238Y-105130952D01*
X83595238Y-105083333D01*
X83571428Y-105035714D01*
X83547619Y-105011904D01*
X83500000Y-104988095D01*
X83404761Y-104964285D01*
X83357142Y-104940476D01*
X83333333Y-104916666D01*
X83309523Y-104869047D01*
X83309523Y-104821428D01*
X83333333Y-104773809D01*
X83357142Y-104750000D01*
X83404761Y-104726190D01*
X83523809Y-104726190D01*
X83595238Y-104750000D01*
X83738095Y-104892857D02*
X83928571Y-104892857D01*
X83809523Y-104726190D02*
X83809523Y-105154761D01*
X83833333Y-105202380D01*
X83880952Y-105226190D01*
X83928571Y-105226190D01*
X84285714Y-105202380D02*
X84238095Y-105226190D01*
X84142857Y-105226190D01*
X84095238Y-105202380D01*
X84071428Y-105154761D01*
X84071428Y-104964285D01*
X84095238Y-104916666D01*
X84142857Y-104892857D01*
X84238095Y-104892857D01*
X84285714Y-104916666D01*
X84309523Y-104964285D01*
X84309523Y-105011904D01*
X84071428Y-105059523D01*
X84523809Y-104892857D02*
X84523809Y-105392857D01*
X84523809Y-104916666D02*
X84571428Y-104892857D01*
X84666666Y-104892857D01*
X84714285Y-104916666D01*
X84738095Y-104940476D01*
X84761904Y-104988095D01*
X84761904Y-105130952D01*
X84738095Y-105178571D01*
X84714285Y-105202380D01*
X84666666Y-105226190D01*
X84571428Y-105226190D01*
X84523809Y-105202380D01*
X84976190Y-104892857D02*
X84976190Y-105392857D01*
X84976190Y-104916666D02*
X85023809Y-104892857D01*
X85119047Y-104892857D01*
X85166666Y-104916666D01*
X85190476Y-104940476D01*
X85214285Y-104988095D01*
X85214285Y-105130952D01*
X85190476Y-105178571D01*
X85166666Y-105202380D01*
X85119047Y-105226190D01*
X85023809Y-105226190D01*
X84976190Y-105202380D01*
X85619047Y-105202380D02*
X85571428Y-105226190D01*
X85476190Y-105226190D01*
X85428571Y-105202380D01*
X85404761Y-105154761D01*
X85404761Y-104964285D01*
X85428571Y-104916666D01*
X85476190Y-104892857D01*
X85571428Y-104892857D01*
X85619047Y-104916666D01*
X85642857Y-104964285D01*
X85642857Y-105011904D01*
X85404761Y-105059523D01*
X85857142Y-105226190D02*
X85857142Y-104892857D01*
X85857142Y-104988095D02*
X85880952Y-104940476D01*
X85904761Y-104916666D01*
X85952380Y-104892857D01*
X86000000Y-104892857D01*
X86142857Y-105202380D02*
X86214285Y-105226190D01*
X86333333Y-105226190D01*
X86380952Y-105202380D01*
X86404761Y-105178571D01*
X86428571Y-105130952D01*
X86428571Y-105083333D01*
X86404761Y-105035714D01*
X86380952Y-105011904D01*
X86333333Y-104988095D01*
X86238095Y-104964285D01*
X86190476Y-104940476D01*
X86166666Y-104916666D01*
X86142857Y-104869047D01*
X86142857Y-104821428D01*
X86166666Y-104773809D01*
X86190476Y-104750000D01*
X86238095Y-104726190D01*
X86357142Y-104726190D01*
X86428571Y-104750000D01*
X86642857Y-105226190D02*
X86642857Y-104892857D01*
X86642857Y-104726190D02*
X86619047Y-104750000D01*
X86642857Y-104773809D01*
X86666666Y-104750000D01*
X86642857Y-104726190D01*
X86642857Y-104773809D01*
X87095238Y-104892857D02*
X87095238Y-105297619D01*
X87071428Y-105345238D01*
X87047619Y-105369047D01*
X87000000Y-105392857D01*
X86928571Y-105392857D01*
X86880952Y-105369047D01*
X87095238Y-105202380D02*
X87047619Y-105226190D01*
X86952380Y-105226190D01*
X86904761Y-105202380D01*
X86880952Y-105178571D01*
X86857142Y-105130952D01*
X86857142Y-104988095D01*
X86880952Y-104940476D01*
X86904761Y-104916666D01*
X86952380Y-104892857D01*
X87047619Y-104892857D01*
X87095238Y-104916666D01*
X87333333Y-104892857D02*
X87333333Y-105226190D01*
X87333333Y-104940476D02*
X87357142Y-104916666D01*
X87404761Y-104892857D01*
X87476190Y-104892857D01*
X87523809Y-104916666D01*
X87547619Y-104964285D01*
X87547619Y-105226190D01*
X88000000Y-105226190D02*
X88000000Y-104964285D01*
X87976190Y-104916666D01*
X87928571Y-104892857D01*
X87833333Y-104892857D01*
X87785714Y-104916666D01*
X88000000Y-105202380D02*
X87952380Y-105226190D01*
X87833333Y-105226190D01*
X87785714Y-105202380D01*
X87761904Y-105154761D01*
X87761904Y-105107142D01*
X87785714Y-105059523D01*
X87833333Y-105035714D01*
X87952380Y-105035714D01*
X88000000Y-105011904D01*
X88309523Y-105226190D02*
X88261904Y-105202380D01*
X88238095Y-105154761D01*
X88238095Y-104726190D01*
X88476190Y-105202380D02*
X88523809Y-105226190D01*
X88619047Y-105226190D01*
X88666666Y-105202380D01*
X88690476Y-105154761D01*
X88690476Y-105130952D01*
X88666666Y-105083333D01*
X88619047Y-105059523D01*
X88547619Y-105059523D01*
X88500000Y-105035714D01*
X88476190Y-104988095D01*
X88476190Y-104964285D01*
X88500000Y-104916666D01*
X88547619Y-104892857D01*
X88619047Y-104892857D01*
X88666666Y-104916666D01*
X75966666Y-105202380D02*
X76038095Y-105226190D01*
X76157142Y-105226190D01*
X76204761Y-105202380D01*
X76228571Y-105178571D01*
X76252380Y-105130952D01*
X76252380Y-105083333D01*
X76228571Y-105035714D01*
X76204761Y-105011904D01*
X76157142Y-104988095D01*
X76061904Y-104964285D01*
X76014285Y-104940476D01*
X75990476Y-104916666D01*
X75966666Y-104869047D01*
X75966666Y-104821428D01*
X75990476Y-104773809D01*
X76014285Y-104750000D01*
X76061904Y-104726190D01*
X76180952Y-104726190D01*
X76252380Y-104750000D01*
X76395238Y-104892857D02*
X76585714Y-104892857D01*
X76466666Y-104726190D02*
X76466666Y-105154761D01*
X76490476Y-105202380D01*
X76538095Y-105226190D01*
X76585714Y-105226190D01*
X76942857Y-105202380D02*
X76895238Y-105226190D01*
X76800000Y-105226190D01*
X76752380Y-105202380D01*
X76728571Y-105154761D01*
X76728571Y-104964285D01*
X76752380Y-104916666D01*
X76800000Y-104892857D01*
X76895238Y-104892857D01*
X76942857Y-104916666D01*
X76966666Y-104964285D01*
X76966666Y-105011904D01*
X76728571Y-105059523D01*
X77180952Y-104892857D02*
X77180952Y-105392857D01*
X77180952Y-104916666D02*
X77228571Y-104892857D01*
X77323809Y-104892857D01*
X77371428Y-104916666D01*
X77395238Y-104940476D01*
X77419047Y-104988095D01*
X77419047Y-105130952D01*
X77395238Y-105178571D01*
X77371428Y-105202380D01*
X77323809Y-105226190D01*
X77228571Y-105226190D01*
X77180952Y-105202380D01*
X77633333Y-104892857D02*
X77633333Y-105392857D01*
X77633333Y-104916666D02*
X77680952Y-104892857D01*
X77776190Y-104892857D01*
X77823809Y-104916666D01*
X77847619Y-104940476D01*
X77871428Y-104988095D01*
X77871428Y-105130952D01*
X77847619Y-105178571D01*
X77823809Y-105202380D01*
X77776190Y-105226190D01*
X77680952Y-105226190D01*
X77633333Y-105202380D01*
X78276190Y-105202380D02*
X78228571Y-105226190D01*
X78133333Y-105226190D01*
X78085714Y-105202380D01*
X78061904Y-105154761D01*
X78061904Y-104964285D01*
X78085714Y-104916666D01*
X78133333Y-104892857D01*
X78228571Y-104892857D01*
X78276190Y-104916666D01*
X78300000Y-104964285D01*
X78300000Y-105011904D01*
X78061904Y-105059523D01*
X78514285Y-105226190D02*
X78514285Y-104892857D01*
X78514285Y-104988095D02*
X78538095Y-104940476D01*
X78561904Y-104916666D01*
X78609523Y-104892857D01*
X78657142Y-104892857D01*
X79085714Y-104750000D02*
X79038095Y-104726190D01*
X78966666Y-104726190D01*
X78895238Y-104750000D01*
X78847619Y-104797619D01*
X78823809Y-104845238D01*
X78800000Y-104940476D01*
X78800000Y-105011904D01*
X78823809Y-105107142D01*
X78847619Y-105154761D01*
X78895238Y-105202380D01*
X78966666Y-105226190D01*
X79014285Y-105226190D01*
X79085714Y-105202380D01*
X79109523Y-105178571D01*
X79109523Y-105011904D01*
X79014285Y-105011904D01*
X79323809Y-105226190D02*
X79323809Y-104892857D01*
X79323809Y-104988095D02*
X79347619Y-104940476D01*
X79371428Y-104916666D01*
X79419047Y-104892857D01*
X79466666Y-104892857D01*
X79704761Y-105226190D02*
X79657142Y-105202380D01*
X79633333Y-105178571D01*
X79609523Y-105130952D01*
X79609523Y-104988095D01*
X79633333Y-104940476D01*
X79657142Y-104916666D01*
X79704761Y-104892857D01*
X79776190Y-104892857D01*
X79823809Y-104916666D01*
X79847619Y-104940476D01*
X79871428Y-104988095D01*
X79871428Y-105130952D01*
X79847619Y-105178571D01*
X79823809Y-105202380D01*
X79776190Y-105226190D01*
X79704761Y-105226190D01*
X80300000Y-104892857D02*
X80300000Y-105226190D01*
X80085714Y-104892857D02*
X80085714Y-105154761D01*
X80109523Y-105202380D01*
X80157142Y-105226190D01*
X80228571Y-105226190D01*
X80276190Y-105202380D01*
X80300000Y-105178571D01*
X80538095Y-104892857D02*
X80538095Y-105226190D01*
X80538095Y-104940476D02*
X80561904Y-104916666D01*
X80609523Y-104892857D01*
X80680952Y-104892857D01*
X80728571Y-104916666D01*
X80752380Y-104964285D01*
X80752380Y-105226190D01*
X81204761Y-105226190D02*
X81204761Y-104726190D01*
X81204761Y-105202380D02*
X81157142Y-105226190D01*
X81061904Y-105226190D01*
X81014285Y-105202380D01*
X80990476Y-105178571D01*
X80966666Y-105130952D01*
X80966666Y-104988095D01*
X80990476Y-104940476D01*
X81014285Y-104916666D01*
X81061904Y-104892857D01*
X81157142Y-104892857D01*
X81204761Y-104916666D01*
X81419047Y-105202380D02*
X81466666Y-105226190D01*
X81561904Y-105226190D01*
X81609523Y-105202380D01*
X81633333Y-105154761D01*
X81633333Y-105130952D01*
X81609523Y-105083333D01*
X81561904Y-105059523D01*
X81490476Y-105059523D01*
X81442857Y-105035714D01*
X81419047Y-104988095D01*
X81419047Y-104964285D01*
X81442857Y-104916666D01*
X81490476Y-104892857D01*
X81561904Y-104892857D01*
X81609523Y-104916666D01*
X72226190Y-105866666D02*
X72726190Y-105700000D01*
X72226190Y-105533333D01*
X72678571Y-105080952D02*
X72702380Y-105104761D01*
X72726190Y-105176190D01*
X72726190Y-105223809D01*
X72702380Y-105295238D01*
X72654761Y-105342857D01*
X72607142Y-105366666D01*
X72511904Y-105390476D01*
X72440476Y-105390476D01*
X72345238Y-105366666D01*
X72297619Y-105342857D01*
X72250000Y-105295238D01*
X72226190Y-105223809D01*
X72226190Y-105176190D01*
X72250000Y-105104761D01*
X72273809Y-105080952D01*
X72678571Y-104580952D02*
X72702380Y-104604761D01*
X72726190Y-104676190D01*
X72726190Y-104723809D01*
X72702380Y-104795238D01*
X72654761Y-104842857D01*
X72607142Y-104866666D01*
X72511904Y-104890476D01*
X72440476Y-104890476D01*
X72345238Y-104866666D01*
X72297619Y-104842857D01*
X72250000Y-104795238D01*
X72226190Y-104723809D01*
X72226190Y-104676190D01*
X72250000Y-104604761D01*
X72273809Y-104580952D01*
X69750000Y-105580952D02*
X69726190Y-105628571D01*
X69726190Y-105700000D01*
X69750000Y-105771428D01*
X69797619Y-105819047D01*
X69845238Y-105842857D01*
X69940476Y-105866666D01*
X70011904Y-105866666D01*
X70107142Y-105842857D01*
X70154761Y-105819047D01*
X70202380Y-105771428D01*
X70226190Y-105700000D01*
X70226190Y-105652380D01*
X70202380Y-105580952D01*
X70178571Y-105557142D01*
X70011904Y-105557142D01*
X70011904Y-105652380D01*
X70226190Y-105342857D02*
X69726190Y-105342857D01*
X70226190Y-105057142D01*
X69726190Y-105057142D01*
X70226190Y-104819047D02*
X69726190Y-104819047D01*
X69726190Y-104700000D01*
X69750000Y-104628571D01*
X69797619Y-104580952D01*
X69845238Y-104557142D01*
X69940476Y-104533333D01*
X70011904Y-104533333D01*
X70107142Y-104557142D01*
X70154761Y-104580952D01*
X70202380Y-104628571D01*
X70226190Y-104700000D01*
X70226190Y-104819047D01*
X110035714Y-106000000D02*
X110035714Y-105619047D01*
X110226190Y-105809523D02*
X109845238Y-105809523D01*
X109726190Y-105428571D02*
X109726190Y-105119047D01*
X109916666Y-105285714D01*
X109916666Y-105214285D01*
X109940476Y-105166666D01*
X109964285Y-105142857D01*
X110011904Y-105119047D01*
X110130952Y-105119047D01*
X110178571Y-105142857D01*
X110202380Y-105166666D01*
X110226190Y-105214285D01*
X110226190Y-105357142D01*
X110202380Y-105404761D01*
X110178571Y-105428571D01*
X110178571Y-104904761D02*
X110202380Y-104880952D01*
X110226190Y-104904761D01*
X110202380Y-104928571D01*
X110178571Y-104904761D01*
X110226190Y-104904761D01*
X109726190Y-104714285D02*
X109726190Y-104404761D01*
X109916666Y-104571428D01*
X109916666Y-104500000D01*
X109940476Y-104452380D01*
X109964285Y-104428571D01*
X110011904Y-104404761D01*
X110130952Y-104404761D01*
X110178571Y-104428571D01*
X110202380Y-104452380D01*
X110226190Y-104500000D01*
X110226190Y-104642857D01*
X110202380Y-104690476D01*
X110178571Y-104714285D01*
X109726190Y-104261904D02*
X110226190Y-104095238D01*
X109726190Y-103928571D01*
X107226190Y-105738095D02*
X107226190Y-105452380D01*
X107726190Y-105595238D02*
X107226190Y-105595238D01*
X107726190Y-105285714D02*
X107226190Y-105285714D01*
X107726190Y-105071428D02*
X107464285Y-105071428D01*
X107416666Y-105095238D01*
X107392857Y-105142857D01*
X107392857Y-105214285D01*
X107416666Y-105261904D01*
X107440476Y-105285714D01*
X107702380Y-104642857D02*
X107726190Y-104690476D01*
X107726190Y-104785714D01*
X107702380Y-104833333D01*
X107654761Y-104857142D01*
X107464285Y-104857142D01*
X107416666Y-104833333D01*
X107392857Y-104785714D01*
X107392857Y-104690476D01*
X107416666Y-104642857D01*
X107464285Y-104619047D01*
X107511904Y-104619047D01*
X107559523Y-104857142D01*
X107726190Y-104404761D02*
X107392857Y-104404761D01*
X107488095Y-104404761D02*
X107440476Y-104380952D01*
X107416666Y-104357142D01*
X107392857Y-104309523D01*
X107392857Y-104261904D01*
X105226190Y-105595238D02*
X104726190Y-105595238D01*
X104726190Y-105404761D01*
X104750000Y-105357142D01*
X104773809Y-105333333D01*
X104821428Y-105309523D01*
X104892857Y-105309523D01*
X104940476Y-105333333D01*
X104964285Y-105357142D01*
X104988095Y-105404761D01*
X104988095Y-105595238D01*
X104726190Y-105095238D02*
X105130952Y-105095238D01*
X105178571Y-105071428D01*
X105202380Y-105047619D01*
X105226190Y-105000000D01*
X105226190Y-104904761D01*
X105202380Y-104857142D01*
X105178571Y-104833333D01*
X105130952Y-104809523D01*
X104726190Y-104809523D01*
X105226190Y-104333333D02*
X105226190Y-104571428D01*
X104726190Y-104571428D01*
X102726190Y-105500000D02*
X102226190Y-105500000D01*
X102226190Y-105380952D01*
X102250000Y-105309523D01*
X102297619Y-105261904D01*
X102345238Y-105238095D01*
X102440476Y-105214285D01*
X102511904Y-105214285D01*
X102607142Y-105238095D01*
X102654761Y-105261904D01*
X102702380Y-105309523D01*
X102726190Y-105380952D01*
X102726190Y-105500000D01*
X102726190Y-105000000D02*
X102226190Y-105000000D01*
X102726190Y-104476190D02*
X102488095Y-104642857D01*
X102726190Y-104761904D02*
X102226190Y-104761904D01*
X102226190Y-104571428D01*
X102250000Y-104523809D01*
X102273809Y-104500000D01*
X102321428Y-104476190D01*
X102392857Y-104476190D01*
X102440476Y-104500000D01*
X102464285Y-104523809D01*
X102488095Y-104571428D01*
X102488095Y-104761904D01*
X99750000Y-105380952D02*
X99726190Y-105428571D01*
X99726190Y-105500000D01*
X99750000Y-105571428D01*
X99797619Y-105619047D01*
X99845238Y-105642857D01*
X99940476Y-105666666D01*
X100011904Y-105666666D01*
X100107142Y-105642857D01*
X100154761Y-105619047D01*
X100202380Y-105571428D01*
X100226190Y-105500000D01*
X100226190Y-105452380D01*
X100202380Y-105380952D01*
X100178571Y-105357142D01*
X100011904Y-105357142D01*
X100011904Y-105452380D01*
X100226190Y-105142857D02*
X99726190Y-105142857D01*
X100226190Y-104857142D01*
X99726190Y-104857142D01*
X100226190Y-104619047D02*
X99726190Y-104619047D01*
X99726190Y-104500000D01*
X99750000Y-104428571D01*
X99797619Y-104380952D01*
X99845238Y-104357142D01*
X99940476Y-104333333D01*
X100011904Y-104333333D01*
X100107142Y-104357142D01*
X100154761Y-104380952D01*
X100202380Y-104428571D01*
X100226190Y-104500000D01*
X100226190Y-104619047D01*
D10*
X126923809Y-70452380D02*
X126923809Y-69452380D01*
X127304761Y-69452380D01*
X127400000Y-69500000D01*
X127447619Y-69547619D01*
X127495238Y-69642857D01*
X127495238Y-69785714D01*
X127447619Y-69880952D01*
X127400000Y-69928571D01*
X127304761Y-69976190D01*
X126923809Y-69976190D01*
X127923809Y-69452380D02*
X127923809Y-70261904D01*
X127971428Y-70357142D01*
X128019047Y-70404761D01*
X128114285Y-70452380D01*
X128304761Y-70452380D01*
X128400000Y-70404761D01*
X128447619Y-70357142D01*
X128495238Y-70261904D01*
X128495238Y-69452380D01*
X129447619Y-70452380D02*
X128971428Y-70452380D01*
X128971428Y-69452380D01*
X129542857Y-70547619D02*
X130304761Y-70547619D01*
X131019047Y-69452380D02*
X130542857Y-69452380D01*
X130495238Y-69928571D01*
X130542857Y-69880952D01*
X130638095Y-69833333D01*
X130876190Y-69833333D01*
X130971428Y-69880952D01*
X131019047Y-69928571D01*
X131066666Y-70023809D01*
X131066666Y-70261904D01*
X131019047Y-70357142D01*
X130971428Y-70404761D01*
X130876190Y-70452380D01*
X130638095Y-70452380D01*
X130542857Y-70404761D01*
X130495238Y-70357142D01*
X131352380Y-69452380D02*
X131685714Y-70452380D01*
X132019047Y-69452380D01*
X126964285Y-75452380D02*
X126964285Y-74452380D01*
X127202380Y-74452380D01*
X127345238Y-74500000D01*
X127440476Y-74595238D01*
X127488095Y-74690476D01*
X127535714Y-74880952D01*
X127535714Y-75023809D01*
X127488095Y-75214285D01*
X127440476Y-75309523D01*
X127345238Y-75404761D01*
X127202380Y-75452380D01*
X126964285Y-75452380D01*
X127964285Y-75452380D02*
X127964285Y-74452380D01*
X129011904Y-75452380D02*
X128678571Y-74976190D01*
X128440476Y-75452380D02*
X128440476Y-74452380D01*
X128821428Y-74452380D01*
X128916666Y-74500000D01*
X128964285Y-74547619D01*
X129011904Y-74642857D01*
X129011904Y-74785714D01*
X128964285Y-74880952D01*
X128916666Y-74928571D01*
X128821428Y-74976190D01*
X128440476Y-74976190D01*
X129202380Y-75547619D02*
X129964285Y-75547619D01*
X130678571Y-74452380D02*
X130202380Y-74452380D01*
X130154761Y-74928571D01*
X130202380Y-74880952D01*
X130297619Y-74833333D01*
X130535714Y-74833333D01*
X130630952Y-74880952D01*
X130678571Y-74928571D01*
X130726190Y-75023809D01*
X130726190Y-75261904D01*
X130678571Y-75357142D01*
X130630952Y-75404761D01*
X130535714Y-75452380D01*
X130297619Y-75452380D01*
X130202380Y-75404761D01*
X130154761Y-75357142D01*
X131011904Y-74452380D02*
X131345238Y-75452380D01*
X131678571Y-74452380D01*
X126959523Y-80452380D02*
X126959523Y-79452380D01*
X127340476Y-79452380D01*
X127435714Y-79500000D01*
X127483333Y-79547619D01*
X127530952Y-79642857D01*
X127530952Y-79785714D01*
X127483333Y-79880952D01*
X127435714Y-79928571D01*
X127340476Y-79976190D01*
X126959523Y-79976190D01*
X127959523Y-79452380D02*
X127959523Y-80261904D01*
X128007142Y-80357142D01*
X128054761Y-80404761D01*
X128150000Y-80452380D01*
X128340476Y-80452380D01*
X128435714Y-80404761D01*
X128483333Y-80357142D01*
X128530952Y-80261904D01*
X128530952Y-79452380D01*
X129483333Y-80452380D02*
X129007142Y-80452380D01*
X129007142Y-79452380D01*
X129578571Y-80547619D02*
X130340476Y-80547619D01*
X130483333Y-79452380D02*
X131102380Y-79452380D01*
X130769047Y-79833333D01*
X130911904Y-79833333D01*
X131007142Y-79880952D01*
X131054761Y-79928571D01*
X131102380Y-80023809D01*
X131102380Y-80261904D01*
X131054761Y-80357142D01*
X131007142Y-80404761D01*
X130911904Y-80452380D01*
X130626190Y-80452380D01*
X130530952Y-80404761D01*
X130483333Y-80357142D01*
X131530952Y-80357142D02*
X131578571Y-80404761D01*
X131530952Y-80452380D01*
X131483333Y-80404761D01*
X131530952Y-80357142D01*
X131530952Y-80452380D01*
X131911904Y-79452380D02*
X132530952Y-79452380D01*
X132197619Y-79833333D01*
X132340476Y-79833333D01*
X132435714Y-79880952D01*
X132483333Y-79928571D01*
X132530952Y-80023809D01*
X132530952Y-80261904D01*
X132483333Y-80357142D01*
X132435714Y-80404761D01*
X132340476Y-80452380D01*
X132054761Y-80452380D01*
X131959523Y-80404761D01*
X131911904Y-80357142D01*
X132816666Y-79452380D02*
X133150000Y-80452380D01*
X133483333Y-79452380D01*
X127000000Y-85452380D02*
X127000000Y-84452380D01*
X127238095Y-84452380D01*
X127380952Y-84500000D01*
X127476190Y-84595238D01*
X127523809Y-84690476D01*
X127571428Y-84880952D01*
X127571428Y-85023809D01*
X127523809Y-85214285D01*
X127476190Y-85309523D01*
X127380952Y-85404761D01*
X127238095Y-85452380D01*
X127000000Y-85452380D01*
X128000000Y-85452380D02*
X128000000Y-84452380D01*
X129047619Y-85452380D02*
X128714285Y-84976190D01*
X128476190Y-85452380D02*
X128476190Y-84452380D01*
X128857142Y-84452380D01*
X128952380Y-84500000D01*
X129000000Y-84547619D01*
X129047619Y-84642857D01*
X129047619Y-84785714D01*
X129000000Y-84880952D01*
X128952380Y-84928571D01*
X128857142Y-84976190D01*
X128476190Y-84976190D01*
X129238095Y-85547619D02*
X130000000Y-85547619D01*
X130142857Y-84452380D02*
X130761904Y-84452380D01*
X130428571Y-84833333D01*
X130571428Y-84833333D01*
X130666666Y-84880952D01*
X130714285Y-84928571D01*
X130761904Y-85023809D01*
X130761904Y-85261904D01*
X130714285Y-85357142D01*
X130666666Y-85404761D01*
X130571428Y-85452380D01*
X130285714Y-85452380D01*
X130190476Y-85404761D01*
X130142857Y-85357142D01*
X131190476Y-85357142D02*
X131238095Y-85404761D01*
X131190476Y-85452380D01*
X131142857Y-85404761D01*
X131190476Y-85357142D01*
X131190476Y-85452380D01*
X131571428Y-84452380D02*
X132190476Y-84452380D01*
X131857142Y-84833333D01*
X132000000Y-84833333D01*
X132095238Y-84880952D01*
X132142857Y-84928571D01*
X132190476Y-85023809D01*
X132190476Y-85261904D01*
X132142857Y-85357142D01*
X132095238Y-85404761D01*
X132000000Y-85452380D01*
X131714285Y-85452380D01*
X131619047Y-85404761D01*
X131571428Y-85357142D01*
X132476190Y-84452380D02*
X132809523Y-85452380D01*
X133142857Y-84452380D01*
X127166666Y-89452380D02*
X127500000Y-90452380D01*
X127833333Y-89452380D01*
X128738095Y-90357142D02*
X128690476Y-90404761D01*
X128547619Y-90452380D01*
X128452380Y-90452380D01*
X128309523Y-90404761D01*
X128214285Y-90309523D01*
X128166666Y-90214285D01*
X128119047Y-90023809D01*
X128119047Y-89880952D01*
X128166666Y-89690476D01*
X128214285Y-89595238D01*
X128309523Y-89500000D01*
X128452380Y-89452380D01*
X128547619Y-89452380D01*
X128690476Y-89500000D01*
X128738095Y-89547619D01*
X129738095Y-90357142D02*
X129690476Y-90404761D01*
X129547619Y-90452380D01*
X129452380Y-90452380D01*
X129309523Y-90404761D01*
X129214285Y-90309523D01*
X129166666Y-90214285D01*
X129119047Y-90023809D01*
X129119047Y-89880952D01*
X129166666Y-89690476D01*
X129214285Y-89595238D01*
X129309523Y-89500000D01*
X129452380Y-89452380D01*
X129547619Y-89452380D01*
X129690476Y-89500000D01*
X129738095Y-89547619D01*
X126800000Y-95071428D02*
X127561904Y-95071428D01*
X127180952Y-95452380D02*
X127180952Y-94690476D01*
X127942857Y-94452380D02*
X128561904Y-94452380D01*
X128228571Y-94833333D01*
X128371428Y-94833333D01*
X128466666Y-94880952D01*
X128514285Y-94928571D01*
X128561904Y-95023809D01*
X128561904Y-95261904D01*
X128514285Y-95357142D01*
X128466666Y-95404761D01*
X128371428Y-95452380D01*
X128085714Y-95452380D01*
X127990476Y-95404761D01*
X127942857Y-95357142D01*
X128990476Y-95357142D02*
X129038095Y-95404761D01*
X128990476Y-95452380D01*
X128942857Y-95404761D01*
X128990476Y-95357142D01*
X128990476Y-95452380D01*
X129371428Y-94452380D02*
X129990476Y-94452380D01*
X129657142Y-94833333D01*
X129800000Y-94833333D01*
X129895238Y-94880952D01*
X129942857Y-94928571D01*
X129990476Y-95023809D01*
X129990476Y-95261904D01*
X129942857Y-95357142D01*
X129895238Y-95404761D01*
X129800000Y-95452380D01*
X129514285Y-95452380D01*
X129419047Y-95404761D01*
X129371428Y-95357142D01*
X130276190Y-94452380D02*
X130609523Y-95452380D01*
X130942857Y-94452380D01*
X127738095Y-99500000D02*
X127642857Y-99452380D01*
X127500000Y-99452380D01*
X127357142Y-99500000D01*
X127261904Y-99595238D01*
X127214285Y-99690476D01*
X127166666Y-99880952D01*
X127166666Y-100023809D01*
X127214285Y-100214285D01*
X127261904Y-100309523D01*
X127357142Y-100404761D01*
X127500000Y-100452380D01*
X127595238Y-100452380D01*
X127738095Y-100404761D01*
X127785714Y-100357142D01*
X127785714Y-100023809D01*
X127595238Y-100023809D01*
X128214285Y-100452380D02*
X128214285Y-99452380D01*
X128785714Y-100452380D01*
X128785714Y-99452380D01*
X129261904Y-100452380D02*
X129261904Y-99452380D01*
X129500000Y-99452380D01*
X129642857Y-99500000D01*
X129738095Y-99595238D01*
X129785714Y-99690476D01*
X129833333Y-99880952D01*
X129833333Y-100023809D01*
X129785714Y-100214285D01*
X129738095Y-100309523D01*
X129642857Y-100404761D01*
X129500000Y-100452380D01*
X129261904Y-100452380D01*
X53558571Y-106417500D02*
X53915714Y-106417500D01*
X53487142Y-106631785D02*
X53737142Y-105881785D01*
X53987142Y-106631785D01*
X54201428Y-106596071D02*
X54272857Y-106631785D01*
X54415714Y-106631785D01*
X54487142Y-106596071D01*
X54522857Y-106524642D01*
X54522857Y-106488928D01*
X54487142Y-106417500D01*
X54415714Y-106381785D01*
X54308571Y-106381785D01*
X54237142Y-106346071D01*
X54201428Y-106274642D01*
X54201428Y-106238928D01*
X54237142Y-106167500D01*
X54308571Y-106131785D01*
X54415714Y-106131785D01*
X54487142Y-106167500D01*
X54737142Y-106131785D02*
X55022857Y-106131785D01*
X54844285Y-105881785D02*
X54844285Y-106524642D01*
X54880000Y-106596071D01*
X54951428Y-106631785D01*
X55022857Y-106631785D01*
X55272857Y-106631785D02*
X55272857Y-106131785D01*
X55272857Y-106274642D02*
X55308571Y-106203214D01*
X55344285Y-106167500D01*
X55415714Y-106131785D01*
X55487142Y-106131785D01*
X56058571Y-106631785D02*
X56058571Y-106238928D01*
X56022857Y-106167500D01*
X55951428Y-106131785D01*
X55808571Y-106131785D01*
X55737142Y-106167500D01*
X56058571Y-106596071D02*
X55987142Y-106631785D01*
X55808571Y-106631785D01*
X55737142Y-106596071D01*
X55701428Y-106524642D01*
X55701428Y-106453214D01*
X55737142Y-106381785D01*
X55808571Y-106346071D01*
X55987142Y-106346071D01*
X56058571Y-106310357D01*
X56665714Y-106238928D02*
X56415714Y-106238928D01*
X56415714Y-106631785D02*
X56415714Y-105881785D01*
X56772857Y-105881785D01*
X57058571Y-106631785D02*
X57058571Y-106131785D01*
X57058571Y-105881785D02*
X57022857Y-105917500D01*
X57058571Y-105953214D01*
X57094285Y-105917500D01*
X57058571Y-105881785D01*
X57058571Y-105953214D01*
X57344285Y-106631785D02*
X57737142Y-106131785D01*
X57344285Y-106131785D02*
X57737142Y-106631785D01*
X51880000Y-107839285D02*
X51880000Y-107089285D01*
X52058571Y-107089285D01*
X52165714Y-107125000D01*
X52237142Y-107196428D01*
X52272857Y-107267857D01*
X52308571Y-107410714D01*
X52308571Y-107517857D01*
X52272857Y-107660714D01*
X52237142Y-107732142D01*
X52165714Y-107803571D01*
X52058571Y-107839285D01*
X51880000Y-107839285D01*
X52915714Y-107803571D02*
X52844285Y-107839285D01*
X52701428Y-107839285D01*
X52630000Y-107803571D01*
X52594285Y-107732142D01*
X52594285Y-107446428D01*
X52630000Y-107375000D01*
X52701428Y-107339285D01*
X52844285Y-107339285D01*
X52915714Y-107375000D01*
X52951428Y-107446428D01*
X52951428Y-107517857D01*
X52594285Y-107589285D01*
X53237142Y-107803571D02*
X53308571Y-107839285D01*
X53451428Y-107839285D01*
X53522857Y-107803571D01*
X53558571Y-107732142D01*
X53558571Y-107696428D01*
X53522857Y-107625000D01*
X53451428Y-107589285D01*
X53344285Y-107589285D01*
X53272857Y-107553571D01*
X53237142Y-107482142D01*
X53237142Y-107446428D01*
X53272857Y-107375000D01*
X53344285Y-107339285D01*
X53451428Y-107339285D01*
X53522857Y-107375000D01*
X54201428Y-107339285D02*
X54201428Y-107946428D01*
X54165714Y-108017857D01*
X54130000Y-108053571D01*
X54058571Y-108089285D01*
X53951428Y-108089285D01*
X53880000Y-108053571D01*
X54201428Y-107803571D02*
X54130000Y-107839285D01*
X53987142Y-107839285D01*
X53915714Y-107803571D01*
X53880000Y-107767857D01*
X53844285Y-107696428D01*
X53844285Y-107482142D01*
X53880000Y-107410714D01*
X53915714Y-107375000D01*
X53987142Y-107339285D01*
X54130000Y-107339285D01*
X54201428Y-107375000D01*
X54558571Y-107839285D02*
X54558571Y-107339285D01*
X54558571Y-107089285D02*
X54522857Y-107125000D01*
X54558571Y-107160714D01*
X54594285Y-107125000D01*
X54558571Y-107089285D01*
X54558571Y-107160714D01*
X54915714Y-107339285D02*
X54915714Y-107839285D01*
X54915714Y-107410714D02*
X54951428Y-107375000D01*
X55022857Y-107339285D01*
X55130000Y-107339285D01*
X55201428Y-107375000D01*
X55237142Y-107446428D01*
X55237142Y-107839285D01*
X55880000Y-107803571D02*
X55808571Y-107839285D01*
X55665714Y-107839285D01*
X55594285Y-107803571D01*
X55558571Y-107732142D01*
X55558571Y-107446428D01*
X55594285Y-107375000D01*
X55665714Y-107339285D01*
X55808571Y-107339285D01*
X55880000Y-107375000D01*
X55915714Y-107446428D01*
X55915714Y-107517857D01*
X55558571Y-107589285D01*
X56558571Y-107839285D02*
X56558571Y-107089285D01*
X56558571Y-107803571D02*
X56487142Y-107839285D01*
X56344285Y-107839285D01*
X56272857Y-107803571D01*
X56237142Y-107767857D01*
X56201428Y-107696428D01*
X56201428Y-107482142D01*
X56237142Y-107410714D01*
X56272857Y-107375000D01*
X56344285Y-107339285D01*
X56487142Y-107339285D01*
X56558571Y-107375000D01*
X57737142Y-107446428D02*
X57844285Y-107482142D01*
X57880000Y-107517857D01*
X57915714Y-107589285D01*
X57915714Y-107696428D01*
X57880000Y-107767857D01*
X57844285Y-107803571D01*
X57772857Y-107839285D01*
X57487142Y-107839285D01*
X57487142Y-107089285D01*
X57737142Y-107089285D01*
X57808571Y-107125000D01*
X57844285Y-107160714D01*
X57880000Y-107232142D01*
X57880000Y-107303571D01*
X57844285Y-107375000D01*
X57808571Y-107410714D01*
X57737142Y-107446428D01*
X57487142Y-107446428D01*
X58165714Y-107339285D02*
X58344285Y-107839285D01*
X58522857Y-107339285D02*
X58344285Y-107839285D01*
X58272857Y-108017857D01*
X58237142Y-108053571D01*
X58165714Y-108089285D01*
X58808571Y-107767857D02*
X58844285Y-107803571D01*
X58808571Y-107839285D01*
X58772857Y-107803571D01*
X58808571Y-107767857D01*
X58808571Y-107839285D01*
X58808571Y-107375000D02*
X58844285Y-107410714D01*
X58808571Y-107446428D01*
X58772857Y-107410714D01*
X58808571Y-107375000D01*
X58808571Y-107446428D01*
X51915714Y-108832500D02*
X52272857Y-108832500D01*
X51844285Y-109046785D02*
X52094285Y-108296785D01*
X52344285Y-109046785D01*
X52915714Y-109046785D02*
X52915714Y-108296785D01*
X52915714Y-109011071D02*
X52844285Y-109046785D01*
X52701428Y-109046785D01*
X52630000Y-109011071D01*
X52594285Y-108975357D01*
X52558571Y-108903928D01*
X52558571Y-108689642D01*
X52594285Y-108618214D01*
X52630000Y-108582500D01*
X52701428Y-108546785D01*
X52844285Y-108546785D01*
X52915714Y-108582500D01*
X53272857Y-109046785D02*
X53272857Y-108546785D01*
X53272857Y-108296785D02*
X53237142Y-108332500D01*
X53272857Y-108368214D01*
X53308571Y-108332500D01*
X53272857Y-108296785D01*
X53272857Y-108368214D01*
X53522857Y-108546785D02*
X53808571Y-108546785D01*
X53630000Y-108296785D02*
X53630000Y-108939642D01*
X53665714Y-109011071D01*
X53737142Y-109046785D01*
X53808571Y-109046785D01*
X53987142Y-108546785D02*
X54165714Y-109046785D01*
X54344285Y-108546785D02*
X54165714Y-109046785D01*
X54094285Y-109225357D01*
X54058571Y-109261071D01*
X53987142Y-109296785D01*
X54951428Y-109046785D02*
X54951428Y-108653928D01*
X54915714Y-108582500D01*
X54844285Y-108546785D01*
X54701428Y-108546785D01*
X54630000Y-108582500D01*
X54951428Y-109011071D02*
X54880000Y-109046785D01*
X54701428Y-109046785D01*
X54630000Y-109011071D01*
X54594285Y-108939642D01*
X54594285Y-108868214D01*
X54630000Y-108796785D01*
X54701428Y-108761071D01*
X54880000Y-108761071D01*
X54951428Y-108725357D01*
X56130000Y-108653928D02*
X56237142Y-108689642D01*
X56272857Y-108725357D01*
X56308571Y-108796785D01*
X56308571Y-108903928D01*
X56272857Y-108975357D01*
X56237142Y-109011071D01*
X56165714Y-109046785D01*
X55880000Y-109046785D01*
X55880000Y-108296785D01*
X56130000Y-108296785D01*
X56201428Y-108332500D01*
X56237142Y-108368214D01*
X56272857Y-108439642D01*
X56272857Y-108511071D01*
X56237142Y-108582500D01*
X56201428Y-108618214D01*
X56130000Y-108653928D01*
X55880000Y-108653928D01*
X56951428Y-109046785D02*
X56951428Y-108653928D01*
X56915714Y-108582500D01*
X56844285Y-108546785D01*
X56701428Y-108546785D01*
X56630000Y-108582500D01*
X56951428Y-109011071D02*
X56880000Y-109046785D01*
X56701428Y-109046785D01*
X56630000Y-109011071D01*
X56594285Y-108939642D01*
X56594285Y-108868214D01*
X56630000Y-108796785D01*
X56701428Y-108761071D01*
X56880000Y-108761071D01*
X56951428Y-108725357D01*
X57308571Y-108546785D02*
X57308571Y-109046785D01*
X57308571Y-108618214D02*
X57344285Y-108582500D01*
X57415714Y-108546785D01*
X57522857Y-108546785D01*
X57594285Y-108582500D01*
X57630000Y-108653928D01*
X57630000Y-109046785D01*
X57951428Y-109011071D02*
X58022857Y-109046785D01*
X58165714Y-109046785D01*
X58237142Y-109011071D01*
X58272857Y-108939642D01*
X58272857Y-108903928D01*
X58237142Y-108832500D01*
X58165714Y-108796785D01*
X58058571Y-108796785D01*
X57987142Y-108761071D01*
X57951428Y-108689642D01*
X57951428Y-108653928D01*
X57987142Y-108582500D01*
X58058571Y-108546785D01*
X58165714Y-108546785D01*
X58237142Y-108582500D01*
X58915714Y-109046785D02*
X58915714Y-108653928D01*
X58880000Y-108582500D01*
X58808571Y-108546785D01*
X58665714Y-108546785D01*
X58594285Y-108582500D01*
X58915714Y-109011071D02*
X58844285Y-109046785D01*
X58665714Y-109046785D01*
X58594285Y-109011071D01*
X58558571Y-108939642D01*
X58558571Y-108868214D01*
X58594285Y-108796785D01*
X58665714Y-108761071D01*
X58844285Y-108761071D01*
X58915714Y-108725357D01*
X59380000Y-109046785D02*
X59308571Y-109011071D01*
X59272857Y-108939642D01*
X59272857Y-108296785D01*
%TO.C,F1*%
X117428571Y-87134833D02*
X117428571Y-87468166D01*
X117952380Y-87468166D02*
X116952380Y-87468166D01*
X116952380Y-86991976D01*
X117952380Y-86087214D02*
X117952380Y-86658642D01*
X117952380Y-86372928D02*
X116952380Y-86372928D01*
X117095238Y-86468166D01*
X117190476Y-86563404D01*
X117238095Y-86658642D01*
%TO.C,SW2*%
X101166666Y-80404761D02*
X101309523Y-80452380D01*
X101547619Y-80452380D01*
X101642857Y-80404761D01*
X101690476Y-80357142D01*
X101738095Y-80261904D01*
X101738095Y-80166666D01*
X101690476Y-80071428D01*
X101642857Y-80023809D01*
X101547619Y-79976190D01*
X101357142Y-79928571D01*
X101261904Y-79880952D01*
X101214285Y-79833333D01*
X101166666Y-79738095D01*
X101166666Y-79642857D01*
X101214285Y-79547619D01*
X101261904Y-79500000D01*
X101357142Y-79452380D01*
X101595238Y-79452380D01*
X101738095Y-79500000D01*
X102071428Y-79452380D02*
X102309523Y-80452380D01*
X102500000Y-79738095D01*
X102690476Y-80452380D01*
X102928571Y-79452380D01*
X103261904Y-79547619D02*
X103309523Y-79500000D01*
X103404761Y-79452380D01*
X103642857Y-79452380D01*
X103738095Y-79500000D01*
X103785714Y-79547619D01*
X103833333Y-79642857D01*
X103833333Y-79738095D01*
X103785714Y-79880952D01*
X103214285Y-80452380D01*
X103833333Y-80452380D01*
%TO.C,J9*%
X112222380Y-107833333D02*
X112936666Y-107833333D01*
X113079523Y-107880952D01*
X113174761Y-107976190D01*
X113222380Y-108119047D01*
X113222380Y-108214285D01*
X113222380Y-107309523D02*
X113222380Y-107119047D01*
X113174761Y-107023809D01*
X113127142Y-106976190D01*
X112984285Y-106880952D01*
X112793809Y-106833333D01*
X112412857Y-106833333D01*
X112317619Y-106880952D01*
X112270000Y-106928571D01*
X112222380Y-107023809D01*
X112222380Y-107214285D01*
X112270000Y-107309523D01*
X112317619Y-107357142D01*
X112412857Y-107404761D01*
X112650952Y-107404761D01*
X112746190Y-107357142D01*
X112793809Y-107309523D01*
X112841428Y-107214285D01*
X112841428Y-107023809D01*
X112793809Y-106928571D01*
X112746190Y-106880952D01*
X112650952Y-106833333D01*
%TO.C,C1*%
X75857142Y-100666666D02*
X75904761Y-100714285D01*
X75952380Y-100857142D01*
X75952380Y-100952380D01*
X75904761Y-101095238D01*
X75809523Y-101190476D01*
X75714285Y-101238095D01*
X75523809Y-101285714D01*
X75380952Y-101285714D01*
X75190476Y-101238095D01*
X75095238Y-101190476D01*
X75000000Y-101095238D01*
X74952380Y-100952380D01*
X74952380Y-100857142D01*
X75000000Y-100714285D01*
X75047619Y-100666666D01*
X75952380Y-99714285D02*
X75952380Y-100285714D01*
X75952380Y-100000000D02*
X74952380Y-100000000D01*
X75095238Y-100095238D01*
X75190476Y-100190476D01*
X75238095Y-100285714D01*
%TO.C,R3*%
X83082380Y-92666666D02*
X82606190Y-93000000D01*
X83082380Y-93238095D02*
X82082380Y-93238095D01*
X82082380Y-92857142D01*
X82130000Y-92761904D01*
X82177619Y-92714285D01*
X82272857Y-92666666D01*
X82415714Y-92666666D01*
X82510952Y-92714285D01*
X82558571Y-92761904D01*
X82606190Y-92857142D01*
X82606190Y-93238095D01*
X82082380Y-92333333D02*
X82082380Y-91714285D01*
X82463333Y-92047619D01*
X82463333Y-91904761D01*
X82510952Y-91809523D01*
X82558571Y-91761904D01*
X82653809Y-91714285D01*
X82891904Y-91714285D01*
X82987142Y-91761904D01*
X83034761Y-91809523D01*
X83082380Y-91904761D01*
X83082380Y-92190476D01*
X83034761Y-92285714D01*
X82987142Y-92333333D01*
%TO.C,H3*%
X46738095Y-105452380D02*
X46738095Y-104452380D01*
X46738095Y-104928571D02*
X47309523Y-104928571D01*
X47309523Y-105452380D02*
X47309523Y-104452380D01*
X47690476Y-104452380D02*
X48309523Y-104452380D01*
X47976190Y-104833333D01*
X48119047Y-104833333D01*
X48214285Y-104880952D01*
X48261904Y-104928571D01*
X48309523Y-105023809D01*
X48309523Y-105261904D01*
X48261904Y-105357142D01*
X48214285Y-105404761D01*
X48119047Y-105452380D01*
X47833333Y-105452380D01*
X47738095Y-105404761D01*
X47690476Y-105357142D01*
%TO.C,TP5*%
X123738095Y-81782380D02*
X124309523Y-81782380D01*
X124023809Y-82782380D02*
X124023809Y-81782380D01*
X124642857Y-82782380D02*
X124642857Y-81782380D01*
X125023809Y-81782380D01*
X125119047Y-81830000D01*
X125166666Y-81877619D01*
X125214285Y-81972857D01*
X125214285Y-82115714D01*
X125166666Y-82210952D01*
X125119047Y-82258571D01*
X125023809Y-82306190D01*
X124642857Y-82306190D01*
X126119047Y-81782380D02*
X125642857Y-81782380D01*
X125595238Y-82258571D01*
X125642857Y-82210952D01*
X125738095Y-82163333D01*
X125976190Y-82163333D01*
X126071428Y-82210952D01*
X126119047Y-82258571D01*
X126166666Y-82353809D01*
X126166666Y-82591904D01*
X126119047Y-82687142D01*
X126071428Y-82734761D01*
X125976190Y-82782380D01*
X125738095Y-82782380D01*
X125642857Y-82734761D01*
X125595238Y-82687142D01*
%TO.C,SW1*%
X63624166Y-96187261D02*
X63767023Y-96234880D01*
X64005119Y-96234880D01*
X64100357Y-96187261D01*
X64147976Y-96139642D01*
X64195595Y-96044404D01*
X64195595Y-95949166D01*
X64147976Y-95853928D01*
X64100357Y-95806309D01*
X64005119Y-95758690D01*
X63814642Y-95711071D01*
X63719404Y-95663452D01*
X63671785Y-95615833D01*
X63624166Y-95520595D01*
X63624166Y-95425357D01*
X63671785Y-95330119D01*
X63719404Y-95282500D01*
X63814642Y-95234880D01*
X64052738Y-95234880D01*
X64195595Y-95282500D01*
X64528928Y-95234880D02*
X64767023Y-96234880D01*
X64957500Y-95520595D01*
X65147976Y-96234880D01*
X65386071Y-95234880D01*
X66290833Y-96234880D02*
X65719404Y-96234880D01*
X66005119Y-96234880D02*
X66005119Y-95234880D01*
X65909880Y-95377738D01*
X65814642Y-95472976D01*
X65719404Y-95520595D01*
%TO.C,D1*%
X50531904Y-80452380D02*
X50531904Y-79452380D01*
X50770000Y-79452380D01*
X50912857Y-79500000D01*
X51008095Y-79595238D01*
X51055714Y-79690476D01*
X51103333Y-79880952D01*
X51103333Y-80023809D01*
X51055714Y-80214285D01*
X51008095Y-80309523D01*
X50912857Y-80404761D01*
X50770000Y-80452380D01*
X50531904Y-80452380D01*
X52055714Y-80452380D02*
X51484285Y-80452380D01*
X51770000Y-80452380D02*
X51770000Y-79452380D01*
X51674761Y-79595238D01*
X51579523Y-79690476D01*
X51484285Y-79738095D01*
%TO.C,C2*%
X93125833Y-69024642D02*
X93078214Y-69072261D01*
X92935357Y-69119880D01*
X92840119Y-69119880D01*
X92697261Y-69072261D01*
X92602023Y-68977023D01*
X92554404Y-68881785D01*
X92506785Y-68691309D01*
X92506785Y-68548452D01*
X92554404Y-68357976D01*
X92602023Y-68262738D01*
X92697261Y-68167500D01*
X92840119Y-68119880D01*
X92935357Y-68119880D01*
X93078214Y-68167500D01*
X93125833Y-68215119D01*
X93506785Y-68215119D02*
X93554404Y-68167500D01*
X93649642Y-68119880D01*
X93887738Y-68119880D01*
X93982976Y-68167500D01*
X94030595Y-68215119D01*
X94078214Y-68310357D01*
X94078214Y-68405595D01*
X94030595Y-68548452D01*
X93459166Y-69119880D01*
X94078214Y-69119880D01*
%TO.C,H5*%
X54238095Y-41252380D02*
X54238095Y-40252380D01*
X54238095Y-40728571D02*
X54809523Y-40728571D01*
X54809523Y-41252380D02*
X54809523Y-40252380D01*
X55761904Y-40252380D02*
X55285714Y-40252380D01*
X55238095Y-40728571D01*
X55285714Y-40680952D01*
X55380952Y-40633333D01*
X55619047Y-40633333D01*
X55714285Y-40680952D01*
X55761904Y-40728571D01*
X55809523Y-40823809D01*
X55809523Y-41061904D01*
X55761904Y-41157142D01*
X55714285Y-41204761D01*
X55619047Y-41252380D01*
X55380952Y-41252380D01*
X55285714Y-41204761D01*
X55238095Y-41157142D01*
%TO.C,H2*%
X134238095Y-47952380D02*
X134238095Y-46952380D01*
X134238095Y-47428571D02*
X134809523Y-47428571D01*
X134809523Y-47952380D02*
X134809523Y-46952380D01*
X135238095Y-47047619D02*
X135285714Y-47000000D01*
X135380952Y-46952380D01*
X135619047Y-46952380D01*
X135714285Y-47000000D01*
X135761904Y-47047619D01*
X135809523Y-47142857D01*
X135809523Y-47238095D01*
X135761904Y-47380952D01*
X135190476Y-47952380D01*
X135809523Y-47952380D01*
%TO.C,H4*%
X134238095Y-103752380D02*
X134238095Y-102752380D01*
X134238095Y-103228571D02*
X134809523Y-103228571D01*
X134809523Y-103752380D02*
X134809523Y-102752380D01*
X135714285Y-103085714D02*
X135714285Y-103752380D01*
X135476190Y-102704761D02*
X135238095Y-103419047D01*
X135857142Y-103419047D01*
%TO.C,H1*%
X49238095Y-42952380D02*
X49238095Y-41952380D01*
X49238095Y-42428571D02*
X49809523Y-42428571D01*
X49809523Y-42952380D02*
X49809523Y-41952380D01*
X50809523Y-42952380D02*
X50238095Y-42952380D01*
X50523809Y-42952380D02*
X50523809Y-41952380D01*
X50428571Y-42095238D01*
X50333333Y-42190476D01*
X50238095Y-42238095D01*
%TO.C,TP2*%
X123738095Y-96782380D02*
X124309523Y-96782380D01*
X124023809Y-97782380D02*
X124023809Y-96782380D01*
X124642857Y-97782380D02*
X124642857Y-96782380D01*
X125023809Y-96782380D01*
X125119047Y-96830000D01*
X125166666Y-96877619D01*
X125214285Y-96972857D01*
X125214285Y-97115714D01*
X125166666Y-97210952D01*
X125119047Y-97258571D01*
X125023809Y-97306190D01*
X124642857Y-97306190D01*
X125595238Y-96877619D02*
X125642857Y-96830000D01*
X125738095Y-96782380D01*
X125976190Y-96782380D01*
X126071428Y-96830000D01*
X126119047Y-96877619D01*
X126166666Y-96972857D01*
X126166666Y-97068095D01*
X126119047Y-97210952D01*
X125547619Y-97782380D01*
X126166666Y-97782380D01*
%TO.C,R2*%
X104833333Y-67749880D02*
X104500000Y-67273690D01*
X104261904Y-67749880D02*
X104261904Y-66749880D01*
X104642857Y-66749880D01*
X104738095Y-66797500D01*
X104785714Y-66845119D01*
X104833333Y-66940357D01*
X104833333Y-67083214D01*
X104785714Y-67178452D01*
X104738095Y-67226071D01*
X104642857Y-67273690D01*
X104261904Y-67273690D01*
X105214285Y-66845119D02*
X105261904Y-66797500D01*
X105357142Y-66749880D01*
X105595238Y-66749880D01*
X105690476Y-66797500D01*
X105738095Y-66845119D01*
X105785714Y-66940357D01*
X105785714Y-67035595D01*
X105738095Y-67178452D01*
X105166666Y-67749880D01*
X105785714Y-67749880D01*
%TO.C,H10*%
X123657904Y-57162380D02*
X123657904Y-56162380D01*
X123657904Y-56638571D02*
X124229333Y-56638571D01*
X124229333Y-57162380D02*
X124229333Y-56162380D01*
X125229333Y-57162380D02*
X124657904Y-57162380D01*
X124943619Y-57162380D02*
X124943619Y-56162380D01*
X124848380Y-56305238D01*
X124753142Y-56400476D01*
X124657904Y-56448095D01*
X125848380Y-56162380D02*
X125943619Y-56162380D01*
X126038857Y-56210000D01*
X126086476Y-56257619D01*
X126134095Y-56352857D01*
X126181714Y-56543333D01*
X126181714Y-56781428D01*
X126134095Y-56971904D01*
X126086476Y-57067142D01*
X126038857Y-57114761D01*
X125943619Y-57162380D01*
X125848380Y-57162380D01*
X125753142Y-57114761D01*
X125705523Y-57067142D01*
X125657904Y-56971904D01*
X125610285Y-56781428D01*
X125610285Y-56543333D01*
X125657904Y-56352857D01*
X125705523Y-56257619D01*
X125753142Y-56210000D01*
X125848380Y-56162380D01*
%TO.C,C3*%
X62857142Y-100666666D02*
X62904761Y-100714285D01*
X62952380Y-100857142D01*
X62952380Y-100952380D01*
X62904761Y-101095238D01*
X62809523Y-101190476D01*
X62714285Y-101238095D01*
X62523809Y-101285714D01*
X62380952Y-101285714D01*
X62190476Y-101238095D01*
X62095238Y-101190476D01*
X62000000Y-101095238D01*
X61952380Y-100952380D01*
X61952380Y-100857142D01*
X62000000Y-100714285D01*
X62047619Y-100666666D01*
X61952380Y-100333333D02*
X61952380Y-99714285D01*
X62333333Y-100047619D01*
X62333333Y-99904761D01*
X62380952Y-99809523D01*
X62428571Y-99761904D01*
X62523809Y-99714285D01*
X62761904Y-99714285D01*
X62857142Y-99761904D01*
X62904761Y-99809523D01*
X62952380Y-99904761D01*
X62952380Y-100190476D01*
X62904761Y-100285714D01*
X62857142Y-100333333D01*
%TO.C,TP1*%
X123738095Y-101782380D02*
X124309523Y-101782380D01*
X124023809Y-102782380D02*
X124023809Y-101782380D01*
X124642857Y-102782380D02*
X124642857Y-101782380D01*
X125023809Y-101782380D01*
X125119047Y-101830000D01*
X125166666Y-101877619D01*
X125214285Y-101972857D01*
X125214285Y-102115714D01*
X125166666Y-102210952D01*
X125119047Y-102258571D01*
X125023809Y-102306190D01*
X124642857Y-102306190D01*
X126166666Y-102782380D02*
X125595238Y-102782380D01*
X125880952Y-102782380D02*
X125880952Y-101782380D01*
X125785714Y-101925238D01*
X125690476Y-102020476D01*
X125595238Y-102068095D01*
%TO.C,H6*%
X84238095Y-41252380D02*
X84238095Y-40252380D01*
X84238095Y-40728571D02*
X84809523Y-40728571D01*
X84809523Y-41252380D02*
X84809523Y-40252380D01*
X85714285Y-40252380D02*
X85523809Y-40252380D01*
X85428571Y-40300000D01*
X85380952Y-40347619D01*
X85285714Y-40490476D01*
X85238095Y-40680952D01*
X85238095Y-41061904D01*
X85285714Y-41157142D01*
X85333333Y-41204761D01*
X85428571Y-41252380D01*
X85619047Y-41252380D01*
X85714285Y-41204761D01*
X85761904Y-41157142D01*
X85809523Y-41061904D01*
X85809523Y-40823809D01*
X85761904Y-40728571D01*
X85714285Y-40680952D01*
X85619047Y-40633333D01*
X85428571Y-40633333D01*
X85333333Y-40680952D01*
X85285714Y-40728571D01*
X85238095Y-40823809D01*
%TO.C,H8*%
X84238095Y-71252380D02*
X84238095Y-70252380D01*
X84238095Y-70728571D02*
X84809523Y-70728571D01*
X84809523Y-71252380D02*
X84809523Y-70252380D01*
X85428571Y-70680952D02*
X85333333Y-70633333D01*
X85285714Y-70585714D01*
X85238095Y-70490476D01*
X85238095Y-70442857D01*
X85285714Y-70347619D01*
X85333333Y-70300000D01*
X85428571Y-70252380D01*
X85619047Y-70252380D01*
X85714285Y-70300000D01*
X85761904Y-70347619D01*
X85809523Y-70442857D01*
X85809523Y-70490476D01*
X85761904Y-70585714D01*
X85714285Y-70633333D01*
X85619047Y-70680952D01*
X85428571Y-70680952D01*
X85333333Y-70728571D01*
X85285714Y-70776190D01*
X85238095Y-70871428D01*
X85238095Y-71061904D01*
X85285714Y-71157142D01*
X85333333Y-71204761D01*
X85428571Y-71252380D01*
X85619047Y-71252380D01*
X85714285Y-71204761D01*
X85761904Y-71157142D01*
X85809523Y-71061904D01*
X85809523Y-70871428D01*
X85761904Y-70776190D01*
X85714285Y-70728571D01*
X85619047Y-70680952D01*
%TO.C,J1*%
X88682380Y-66500833D02*
X89396666Y-66500833D01*
X89539523Y-66548452D01*
X89634761Y-66643690D01*
X89682380Y-66786547D01*
X89682380Y-66881785D01*
X89682380Y-65500833D02*
X89682380Y-66072261D01*
X89682380Y-65786547D02*
X88682380Y-65786547D01*
X88825238Y-65881785D01*
X88920476Y-65977023D01*
X88968095Y-66072261D01*
%TO.C,TP3*%
X123738095Y-91782380D02*
X124309523Y-91782380D01*
X124023809Y-92782380D02*
X124023809Y-91782380D01*
X124642857Y-92782380D02*
X124642857Y-91782380D01*
X125023809Y-91782380D01*
X125119047Y-91830000D01*
X125166666Y-91877619D01*
X125214285Y-91972857D01*
X125214285Y-92115714D01*
X125166666Y-92210952D01*
X125119047Y-92258571D01*
X125023809Y-92306190D01*
X124642857Y-92306190D01*
X125547619Y-91782380D02*
X126166666Y-91782380D01*
X125833333Y-92163333D01*
X125976190Y-92163333D01*
X126071428Y-92210952D01*
X126119047Y-92258571D01*
X126166666Y-92353809D01*
X126166666Y-92591904D01*
X126119047Y-92687142D01*
X126071428Y-92734761D01*
X125976190Y-92782380D01*
X125690476Y-92782380D01*
X125595238Y-92734761D01*
X125547619Y-92687142D01*
%TO.C,TP7*%
X123738095Y-71782380D02*
X124309523Y-71782380D01*
X124023809Y-72782380D02*
X124023809Y-71782380D01*
X124642857Y-72782380D02*
X124642857Y-71782380D01*
X125023809Y-71782380D01*
X125119047Y-71830000D01*
X125166666Y-71877619D01*
X125214285Y-71972857D01*
X125214285Y-72115714D01*
X125166666Y-72210952D01*
X125119047Y-72258571D01*
X125023809Y-72306190D01*
X124642857Y-72306190D01*
X125547619Y-71782380D02*
X126214285Y-71782380D01*
X125785714Y-72782380D01*
%TO.C,TP6*%
X123738095Y-76782380D02*
X124309523Y-76782380D01*
X124023809Y-77782380D02*
X124023809Y-76782380D01*
X124642857Y-77782380D02*
X124642857Y-76782380D01*
X125023809Y-76782380D01*
X125119047Y-76830000D01*
X125166666Y-76877619D01*
X125214285Y-76972857D01*
X125214285Y-77115714D01*
X125166666Y-77210952D01*
X125119047Y-77258571D01*
X125023809Y-77306190D01*
X124642857Y-77306190D01*
X126071428Y-76782380D02*
X125880952Y-76782380D01*
X125785714Y-76830000D01*
X125738095Y-76877619D01*
X125642857Y-77020476D01*
X125595238Y-77210952D01*
X125595238Y-77591904D01*
X125642857Y-77687142D01*
X125690476Y-77734761D01*
X125785714Y-77782380D01*
X125976190Y-77782380D01*
X126071428Y-77734761D01*
X126119047Y-77687142D01*
X126166666Y-77591904D01*
X126166666Y-77353809D01*
X126119047Y-77258571D01*
X126071428Y-77210952D01*
X125976190Y-77163333D01*
X125785714Y-77163333D01*
X125690476Y-77210952D01*
X125642857Y-77258571D01*
X125595238Y-77353809D01*
%TO.C,J2*%
X46872380Y-90625833D02*
X47586666Y-90625833D01*
X47729523Y-90673452D01*
X47824761Y-90768690D01*
X47872380Y-90911547D01*
X47872380Y-91006785D01*
X46967619Y-90197261D02*
X46920000Y-90149642D01*
X46872380Y-90054404D01*
X46872380Y-89816309D01*
X46920000Y-89721071D01*
X46967619Y-89673452D01*
X47062857Y-89625833D01*
X47158095Y-89625833D01*
X47300952Y-89673452D01*
X47872380Y-90244880D01*
X47872380Y-89625833D01*
%TO.C,C4*%
X93833333Y-82857142D02*
X93785714Y-82904761D01*
X93642857Y-82952380D01*
X93547619Y-82952380D01*
X93404761Y-82904761D01*
X93309523Y-82809523D01*
X93261904Y-82714285D01*
X93214285Y-82523809D01*
X93214285Y-82380952D01*
X93261904Y-82190476D01*
X93309523Y-82095238D01*
X93404761Y-82000000D01*
X93547619Y-81952380D01*
X93642857Y-81952380D01*
X93785714Y-82000000D01*
X93833333Y-82047619D01*
X94690476Y-82285714D02*
X94690476Y-82952380D01*
X94452380Y-81904761D02*
X94214285Y-82619047D01*
X94833333Y-82619047D01*
%TO.C,H9*%
X94842095Y-41292380D02*
X94842095Y-40292380D01*
X94842095Y-40768571D02*
X95413523Y-40768571D01*
X95413523Y-41292380D02*
X95413523Y-40292380D01*
X95937333Y-41292380D02*
X96127809Y-41292380D01*
X96223047Y-41244761D01*
X96270666Y-41197142D01*
X96365904Y-41054285D01*
X96413523Y-40863809D01*
X96413523Y-40482857D01*
X96365904Y-40387619D01*
X96318285Y-40340000D01*
X96223047Y-40292380D01*
X96032571Y-40292380D01*
X95937333Y-40340000D01*
X95889714Y-40387619D01*
X95842095Y-40482857D01*
X95842095Y-40720952D01*
X95889714Y-40816190D01*
X95937333Y-40863809D01*
X96032571Y-40911428D01*
X96223047Y-40911428D01*
X96318285Y-40863809D01*
X96365904Y-40816190D01*
X96413523Y-40720952D01*
%TO.C,R1*%
X77952380Y-90246666D02*
X77476190Y-90580000D01*
X77952380Y-90818095D02*
X76952380Y-90818095D01*
X76952380Y-90437142D01*
X77000000Y-90341904D01*
X77047619Y-90294285D01*
X77142857Y-90246666D01*
X77285714Y-90246666D01*
X77380952Y-90294285D01*
X77428571Y-90341904D01*
X77476190Y-90437142D01*
X77476190Y-90818095D01*
X77952380Y-89294285D02*
X77952380Y-89865714D01*
X77952380Y-89580000D02*
X76952380Y-89580000D01*
X77095238Y-89675238D01*
X77190476Y-89770476D01*
X77238095Y-89865714D01*
%TO.C,D2*%
X96761904Y-66119880D02*
X96761904Y-65119880D01*
X97000000Y-65119880D01*
X97142857Y-65167500D01*
X97238095Y-65262738D01*
X97285714Y-65357976D01*
X97333333Y-65548452D01*
X97333333Y-65691309D01*
X97285714Y-65881785D01*
X97238095Y-65977023D01*
X97142857Y-66072261D01*
X97000000Y-66119880D01*
X96761904Y-66119880D01*
X97714285Y-65215119D02*
X97761904Y-65167500D01*
X97857142Y-65119880D01*
X98095238Y-65119880D01*
X98190476Y-65167500D01*
X98238095Y-65215119D01*
X98285714Y-65310357D01*
X98285714Y-65405595D01*
X98238095Y-65548452D01*
X97666666Y-66119880D01*
X98285714Y-66119880D01*
%TO.C,H7*%
X54238095Y-71252380D02*
X54238095Y-70252380D01*
X54238095Y-70728571D02*
X54809523Y-70728571D01*
X54809523Y-71252380D02*
X54809523Y-70252380D01*
X55190476Y-70252380D02*
X55857142Y-70252380D01*
X55428571Y-71252380D01*
%TO.C,TP4*%
X123738095Y-86782380D02*
X124309523Y-86782380D01*
X124023809Y-87782380D02*
X124023809Y-86782380D01*
X124642857Y-87782380D02*
X124642857Y-86782380D01*
X125023809Y-86782380D01*
X125119047Y-86830000D01*
X125166666Y-86877619D01*
X125214285Y-86972857D01*
X125214285Y-87115714D01*
X125166666Y-87210952D01*
X125119047Y-87258571D01*
X125023809Y-87306190D01*
X124642857Y-87306190D01*
X126071428Y-87115714D02*
X126071428Y-87782380D01*
X125833333Y-86734761D02*
X125595238Y-87449047D01*
X126214285Y-87449047D01*
D12*
%TO.C,F1*%
X117500000Y-108429600D02*
X118008000Y-107667600D01*
X121119500Y-103121000D02*
X121119500Y-70482000D01*
X113880500Y-70482000D02*
X113880500Y-103121000D01*
X117500000Y-108429600D02*
X117373000Y-107667600D01*
X116865000Y-107667600D02*
X118135000Y-107667600D01*
X116865000Y-108429600D02*
X118135000Y-108429600D01*
X117500000Y-108429600D02*
X118135000Y-107667600D01*
X117500000Y-108429600D02*
X117119000Y-107667600D01*
X117500000Y-108429600D02*
X117881000Y-107667600D01*
X117500000Y-108429600D02*
X116992000Y-107667600D01*
X117500000Y-108429600D02*
X117754000Y-107667600D01*
X117500000Y-108429600D02*
X116865000Y-107667600D01*
X117500000Y-108429600D02*
X117246000Y-107667600D01*
X121119500Y-70482000D02*
X113880500Y-70482000D01*
X117500000Y-108429600D02*
X117627000Y-107667600D01*
X117500000Y-107413600D02*
X117500000Y-108683600D01*
X113880500Y-103121000D02*
X121119500Y-103121000D01*
D13*
%TO.C,SW2*%
X100092500Y-72567500D02*
X109992500Y-72567500D01*
X98042500Y-78517500D02*
X98042500Y-73317500D01*
X112042500Y-73317500D02*
X112042500Y-78517500D01*
X97742500Y-72917500D02*
X97742500Y-71617500D01*
X109992500Y-79267500D02*
X100092500Y-79267500D01*
X97742500Y-71617500D02*
X99042500Y-71617500D01*
%TO.C,J9*%
X95970000Y-106170000D02*
X95970000Y-108830000D01*
X108730000Y-106170000D02*
X95970000Y-106170000D01*
X111330000Y-108830000D02*
X110000000Y-108830000D01*
X108730000Y-108830000D02*
X95970000Y-108830000D01*
X108730000Y-106170000D02*
X108730000Y-108830000D01*
X111330000Y-107500000D02*
X111330000Y-108830000D01*
%TO.C,C1*%
X74370000Y-96780000D02*
X74370000Y-104220000D01*
X74370000Y-96780000D02*
X65630000Y-96780000D01*
X74370000Y-104220000D02*
X65630000Y-104220000D01*
X65630000Y-96780000D02*
X65630000Y-104220000D01*
%TO.C,R3*%
X85000000Y-88460000D02*
X85000000Y-89230000D01*
X85000000Y-96540000D02*
X85000000Y-95770000D01*
X83630000Y-95770000D02*
X86370000Y-95770000D01*
X86370000Y-89230000D02*
X83630000Y-89230000D01*
X86370000Y-95770000D02*
X86370000Y-89230000D01*
X83630000Y-89230000D02*
X83630000Y-95770000D01*
%TO.C,TP5*%
X123670000Y-78730000D02*
X123670000Y-78670000D01*
X126330000Y-80000000D02*
X126330000Y-81330000D01*
X126330000Y-81330000D02*
X125000000Y-81330000D01*
X126330000Y-78670000D02*
X123670000Y-78670000D01*
X126330000Y-78730000D02*
X123670000Y-78730000D01*
X126330000Y-78730000D02*
X126330000Y-78670000D01*
%TO.C,SW1*%
X57957500Y-94182500D02*
X57957500Y-88982500D01*
X72257500Y-95882500D02*
X70957500Y-95882500D01*
X60007500Y-88232500D02*
X69907500Y-88232500D01*
X69907500Y-94932500D02*
X60007500Y-94932500D01*
X72257500Y-94582500D02*
X72257500Y-95882500D01*
X71957500Y-88982500D02*
X71957500Y-94182500D01*
%TO.C,D1*%
X49560000Y-81240000D02*
X49560000Y-81420000D01*
X49560000Y-81240000D02*
X52980000Y-81240000D01*
X49680000Y-81240000D02*
X49680000Y-81420000D01*
X49800000Y-81240000D02*
X49800000Y-81420000D01*
X49680000Y-83580000D02*
X49680000Y-83760000D01*
X52980000Y-81240000D02*
X52980000Y-81405000D01*
X49560000Y-83760000D02*
X52980000Y-83760000D01*
X52980000Y-83595000D02*
X52980000Y-83760000D01*
X49800000Y-83580000D02*
X49800000Y-83760000D01*
X49560000Y-83580000D02*
X49560000Y-83760000D01*
%TO.C,C2*%
X97012500Y-69797500D02*
X97012500Y-78537500D01*
X89572500Y-69797500D02*
X97012500Y-69797500D01*
X89572500Y-78537500D02*
X97012500Y-78537500D01*
X89572500Y-69797500D02*
X89572500Y-78537500D01*
%TO.C,J7*%
X78830000Y-108830000D02*
X77500000Y-108830000D01*
X76230000Y-106170000D02*
X76230000Y-108830000D01*
X76230000Y-106170000D02*
X73630000Y-106170000D01*
X78830000Y-107500000D02*
X78830000Y-108830000D01*
X76230000Y-108830000D02*
X73630000Y-108830000D01*
X73630000Y-106170000D02*
X73630000Y-108830000D01*
%TO.C,J8*%
X83730000Y-108830000D02*
X81130000Y-108830000D01*
X83730000Y-106170000D02*
X83730000Y-108830000D01*
X83730000Y-106170000D02*
X81130000Y-106170000D01*
X85000000Y-106170000D02*
X86330000Y-106170000D01*
X81130000Y-106170000D02*
X81130000Y-108830000D01*
X86330000Y-106170000D02*
X86330000Y-107500000D01*
%TO.C,TP2*%
X126330000Y-93670000D02*
X123670000Y-93670000D01*
X126330000Y-96330000D02*
X125000000Y-96330000D01*
X126330000Y-93730000D02*
X126330000Y-93670000D01*
X126330000Y-93730000D02*
X123670000Y-93730000D01*
X126330000Y-95000000D02*
X126330000Y-96330000D01*
X123670000Y-93730000D02*
X123670000Y-93670000D01*
%TO.C,R2*%
X100960000Y-69667500D02*
X101730000Y-69667500D01*
X109040000Y-69667500D02*
X108270000Y-69667500D01*
X101730000Y-68297500D02*
X101730000Y-71037500D01*
X101730000Y-71037500D02*
X108270000Y-71037500D01*
X108270000Y-71037500D02*
X108270000Y-68297500D01*
X108270000Y-68297500D02*
X101730000Y-68297500D01*
%TO.C,J3*%
X71370000Y-108830000D02*
X71370000Y-106170000D01*
X66170000Y-106170000D02*
X67500000Y-106170000D01*
X68770000Y-108830000D02*
X68770000Y-106170000D01*
X68770000Y-108830000D02*
X71370000Y-108830000D01*
X66170000Y-107500000D02*
X66170000Y-106170000D01*
X68770000Y-106170000D02*
X71370000Y-106170000D01*
%TO.C,C3*%
X64370000Y-104220000D02*
X55630000Y-104220000D01*
X64370000Y-96780000D02*
X64370000Y-104220000D01*
X64370000Y-96780000D02*
X55630000Y-96780000D01*
X55630000Y-96780000D02*
X55630000Y-104220000D01*
%TO.C,J5*%
X92295000Y-91035000D02*
X92295000Y-93695000D01*
X105055000Y-93695000D02*
X92295000Y-93695000D01*
X107655000Y-93695000D02*
X106325000Y-93695000D01*
X105055000Y-91035000D02*
X105055000Y-93695000D01*
X107655000Y-92365000D02*
X107655000Y-93695000D01*
X105055000Y-91035000D02*
X92295000Y-91035000D01*
%TO.C,TP1*%
X126330000Y-101330000D02*
X125000000Y-101330000D01*
X126330000Y-98670000D02*
X123670000Y-98670000D01*
X126330000Y-98730000D02*
X126330000Y-98670000D01*
X126330000Y-98730000D02*
X123670000Y-98730000D01*
X123670000Y-98730000D02*
X123670000Y-98670000D01*
X126330000Y-100000000D02*
X126330000Y-101330000D01*
%TO.C,J6*%
X92295000Y-101195000D02*
X92295000Y-103855000D01*
X107655000Y-103855000D02*
X106325000Y-103855000D01*
X107655000Y-102525000D02*
X107655000Y-103855000D01*
X105055000Y-101195000D02*
X105055000Y-103855000D01*
X105055000Y-103855000D02*
X92295000Y-103855000D01*
X105055000Y-101195000D02*
X92295000Y-101195000D01*
%TO.C,J4*%
X92230000Y-108830000D02*
X89630000Y-108830000D01*
X89630000Y-106170000D02*
X89630000Y-108830000D01*
X92230000Y-106170000D02*
X92230000Y-108830000D01*
X94830000Y-106170000D02*
X94830000Y-107500000D01*
X93500000Y-106170000D02*
X94830000Y-106170000D01*
X92230000Y-106170000D02*
X89630000Y-106170000D01*
%TO.C,J1*%
X93270000Y-64837500D02*
X95870000Y-64837500D01*
X90670000Y-66167500D02*
X90670000Y-64837500D01*
X93270000Y-67497500D02*
X93270000Y-64837500D01*
X90670000Y-64837500D02*
X92000000Y-64837500D01*
X93270000Y-67497500D02*
X95870000Y-67497500D01*
X95870000Y-67497500D02*
X95870000Y-64837500D01*
%TO.C,TP3*%
X126330000Y-91330000D02*
X125000000Y-91330000D01*
X123670000Y-88730000D02*
X123670000Y-88670000D01*
X126330000Y-88730000D02*
X123670000Y-88730000D01*
X126330000Y-88670000D02*
X123670000Y-88670000D01*
X126330000Y-90000000D02*
X126330000Y-91330000D01*
X126330000Y-88730000D02*
X126330000Y-88670000D01*
%TO.C,TP7*%
X123670000Y-68730000D02*
X123670000Y-68670000D01*
X126330000Y-68730000D02*
X123670000Y-68730000D01*
X126330000Y-70000000D02*
X126330000Y-71330000D01*
X126330000Y-71330000D02*
X125000000Y-71330000D01*
X126330000Y-68670000D02*
X123670000Y-68670000D01*
X126330000Y-68730000D02*
X126330000Y-68670000D01*
%TO.C,TP6*%
X126330000Y-73730000D02*
X123670000Y-73730000D01*
X126330000Y-73670000D02*
X123670000Y-73670000D01*
X126330000Y-76330000D02*
X125000000Y-76330000D01*
X123670000Y-73730000D02*
X123670000Y-73670000D01*
X126330000Y-75000000D02*
X126330000Y-76330000D01*
X126330000Y-73730000D02*
X126330000Y-73670000D01*
%TO.C,J2*%
X56310000Y-95372500D02*
X56310000Y-85212500D01*
X48690000Y-95372500D02*
X56310000Y-95372500D01*
X55040000Y-85212500D02*
X55040000Y-95372500D01*
X48690000Y-85212500D02*
X48690000Y-95372500D01*
X56310000Y-85212500D02*
X48690000Y-85212500D01*
%TO.C,C4*%
X97012500Y-79797500D02*
X97012500Y-88537500D01*
X89572500Y-88537500D02*
X97012500Y-88537500D01*
X89572500Y-79797500D02*
X89572500Y-88537500D01*
X89572500Y-79797500D02*
X97012500Y-79797500D01*
%TO.C,R1*%
X78630000Y-89230000D02*
X78630000Y-95770000D01*
X81370000Y-89230000D02*
X78630000Y-89230000D01*
X80000000Y-88460000D02*
X80000000Y-89230000D01*
X81370000Y-95770000D02*
X81370000Y-89230000D01*
X80000000Y-96540000D02*
X80000000Y-95770000D01*
X78630000Y-95770000D02*
X81370000Y-95770000D01*
%TO.C,D2*%
X102980000Y-67427500D02*
X102980000Y-67247500D01*
X102980000Y-64907500D02*
X99560000Y-64907500D01*
X102980000Y-67427500D02*
X99560000Y-67427500D01*
X102980000Y-65087500D02*
X102980000Y-64907500D01*
X99560000Y-67427500D02*
X99560000Y-67262500D01*
X99560000Y-65072500D02*
X99560000Y-64907500D01*
X102860000Y-65087500D02*
X102860000Y-64907500D01*
X102860000Y-67427500D02*
X102860000Y-67247500D01*
X102740000Y-67427500D02*
X102740000Y-67247500D01*
X102740000Y-65087500D02*
X102740000Y-64907500D01*
%TO.C,TP4*%
X126330000Y-86330000D02*
X125000000Y-86330000D01*
X123670000Y-83730000D02*
X123670000Y-83670000D01*
X126330000Y-83730000D02*
X126330000Y-83670000D01*
X126330000Y-83730000D02*
X123670000Y-83730000D01*
X126330000Y-83670000D02*
X123670000Y-83670000D01*
X126330000Y-85000000D02*
X126330000Y-86330000D01*
%TD*%
M02*
